<svg width="58" height="42" viewBox="0 0 58 42" fill="none" xmlns="http://www.w3.org/2000/svg">
<g clip-path="url(#clip0_804_2264)">
<path d="M15.8617 0.1375C10.2952 0.847653 5.52403 3.65445 2.76883 7.81393C1.49203 9.74148 0.741629 11.6803 0.338429 14.0587C0.114429 15.3663 0.103229 15.7384 0.159229 20.4614C0.215229 25.3311 0.338429 27.4164 0.618429 28.0138C0.887229 28.6 1.77203 28.6902 2.10803 28.1604C2.27603 27.9011 2.27603 27.7433 2.14163 26.447C1.97363 24.7675 1.82803 17.7899 1.94003 16.0089C2.16403 12.3115 3.53042 9.2455 6.10642 6.6416C8.33522 4.4097 11.3145 2.85412 14.7417 2.13269C15.6825 1.92979 16.3769 1.91851 24.9337 1.91851H34.1177L34.7561 2.17778C35.9209 2.65122 36.6265 3.60936 37.0521 5.30021C37.3321 6.42743 37.3209 10.5193 37.0409 12.3453C36.3689 16.6964 34.7785 20.5854 32.8745 22.5581C31.9001 23.5614 31.5193 23.7192 29.5705 23.9108C27.4649 24.1136 26.7481 24.2939 25.5945 24.9027C23.6457 25.951 22.7833 26.6273 20.1177 29.2537C18.7065 30.6515 17.2281 32.0156 16.8361 32.286C14.6633 33.7628 12.0425 34.439 9.08562 34.2925C6.87922 34.1797 5.63602 33.7401 4.50482 32.6806C4.09042 32.2974 3.69843 31.7901 3.44083 31.2829C2.99283 30.4374 2.80243 30.2682 2.26483 30.2682C1.79443 30.2682 1.46963 30.6178 1.46963 31.1362C1.46963 32.2184 3.30643 34.4165 4.82963 35.1492C6.31922 35.8706 7.37202 36.0622 9.75762 36.0622C12.6249 36.0622 14.4393 35.679 16.4105 34.6645C17.8553 33.9206 18.6505 33.278 20.8345 31.125C21.9657 29.9978 22.8617 29.1862 22.8281 29.3102C22.7161 29.7047 22.3129 31.869 22.2009 32.7482C21.8649 35.1717 21.7529 38.5083 21.9657 39.7821C22.1001 40.605 22.5033 41.225 23.1865 41.6308C23.6121 41.8787 23.8361 41.9351 24.4857 41.9351C25.5273 41.9351 26.1881 41.5631 26.6697 40.7177C26.9833 40.1653 27.0057 40.0527 27.0057 38.9367C27.0057 37.8996 26.9721 37.6968 26.7705 37.4375C26.4793 37.0655 25.7849 37.0204 25.4377 37.3698C25.2473 37.5615 25.2137 37.7418 25.2137 38.6661C25.2137 39.613 25.1913 39.7483 24.9673 39.9624C24.5081 40.3908 23.9481 40.1879 23.7577 39.5341C23.5225 38.6774 23.6681 35.1605 24.0377 32.6017C24.2393 31.2152 24.7097 29.1186 25.0569 27.9913C25.3369 27.1233 25.3369 27.1233 26.0313 26.7288C26.4121 26.5147 26.8601 26.2892 27.0169 26.2328L27.2969 26.1201L26.9161 27.2022C26.2105 29.2651 25.4713 32.6468 25.4041 34.191C25.3705 34.9351 25.6169 35.2281 26.2777 35.2281C26.9385 35.2281 27.0953 35.0027 27.2409 33.8641C27.6441 30.6403 29.0329 25.8721 29.6265 25.7143C29.7609 25.6805 30.6233 25.6467 31.5529 25.6467C37.0073 25.6467 41.2633 24.666 45.9897 22.3214C49.1145 20.777 51.3657 19.1763 53.3817 17.0572C55.5209 14.8252 56.8425 12.3341 57.3017 9.66258C57.5257 8.36626 57.5257 5.40166 57.3017 4.51115C56.4841 1.30982 53.9305 0.0585938 48.1961 0.0585938C46.5609 0.0585938 46.3817 0.0811383 46.1129 0.295312C45.6985 0.622208 45.6985 1.29855 46.1129 1.62544C46.3817 1.83961 46.5609 1.86216 48.1625 1.86216C52.9001 1.86216 54.8601 2.65122 55.5097 4.80423C55.7449 5.6271 55.7449 8.28736 55.5097 9.48222C55.0169 11.8719 53.9305 13.8446 51.9817 15.8849C48.1737 19.8752 41.3417 23.0315 35.1257 23.6853C34.3641 23.7642 34.3529 23.7529 34.5097 23.5387C35.6297 21.9945 35.9769 21.4309 36.5817 20.1796C37.6905 17.8914 38.3961 15.4453 38.8441 12.4581C39.1241 10.5644 39.1241 6.32598 38.8441 5.01839C38.6425 4.0828 37.9145 2.31305 37.6569 2.15524C37.2649 1.90725 37.7465 1.86216 40.5017 1.86216H43.4809L43.7497 1.58035C43.9289 1.41127 44.0297 1.17455 44.0297 0.960376C44.0297 0.746203 43.9289 0.509485 43.7497 0.340401L43.4809 0.0585938L29.8393 0.0698661C22.3353 0.0811383 16.0521 0.114955 15.8617 0.1375Z" fill="#151515"/>
</g>
<defs>
<clipPath id="clip0_804_2264">
<rect width="57.456" height="42" fill="white" transform="translate(0.0332031)"/>
</clipPath>
</defs>
</svg>
