<svg width="16" height="16" fill="none" xmlns="http://www.w3.org/2000/svg"><path d="M15.333 6.473a5.666 5.666 0 0 0-.606-2.753 1.946 1.946 0 0 0-1.147-.667A52.242 52.242 0 0 0 8 2.847a52.299 52.299 0 0 0-5.56.2 1.913 1.913 0 0 0-.973.493c-.6.553-.667 1.5-.734 2.3a32.193 32.193 0 0 0 0 4.32c.02.45.087.897.2 1.333.08.337.243.649.474.907.271.269.617.45.993.52 1.437.177 2.885.25 4.333.22 2.334.033 4.38 0 6.8-.187.385-.065.741-.247 1.02-.52a1.66 1.66 0 0 0 .407-.666 7.053 7.053 0 0 0 .347-2.267c.026-.373.026-2.627.026-3.027ZM6.493 9.9V5.773l3.947 2.074C9.333 8.46 7.873 9.153 6.493 9.9Z" fill="#000"/></svg>