<svg width="16" height="16" fill="none" xmlns="http://www.w3.org/2000/svg"><path d="M11.56 3.64a.8.8 0 1 0 0 1.6.8.8 0 0 0 0-1.6Zm3.067 1.613a5.058 5.058 0 0 0-.307-1.62 3.293 3.293 0 0 0-.773-1.18 3.133 3.133 0 0 0-1.18-.766 4.867 4.867 0 0 0-1.62-.314c-.707-.04-.934-.04-2.747-.04-1.813 0-2.04 0-2.747.04a4.867 4.867 0 0 0-1.62.314 3.187 3.187 0 0 0-1.18.766c-.341.33-.604.734-.766 1.18a4.867 4.867 0 0 0-.314 1.62c-.04.707-.04.934-.04 2.747 0 1.813 0 2.04.04 2.747.012.554.118 1.102.314 1.62.162.446.425.85.766 1.18.332.34.735.602 1.18.766a4.865 4.865 0 0 0 1.62.314c.707.04.934.04 2.747.04 1.813 0 2.04 0 2.747-.04a4.864 4.864 0 0 0 1.62-.314c.446-.162.85-.425 1.18-.766.341-.332.605-.735.773-1.18.19-.52.294-1.067.307-1.62 0-.707.04-.934.04-2.747 0-1.813 0-2.04-.04-2.747Zm-1.2 5.414a3.74 3.74 0 0 1-.227 1.24 2.04 2.04 0 0 1-.5.767c-.216.22-.478.39-.767.5a3.74 3.74 0 0 1-1.24.226c-.666.034-.913.04-2.666.04-1.754 0-2 0-2.667-.04-.44.008-.877-.06-1.293-.2a2.181 2.181 0 0 1-.734-.5 2 2 0 0 1-.493-.766 3.693 3.693 0 0 1-.267-1.267c0-.667-.04-.913-.04-2.667 0-1.753 0-2 .04-2.667.003-.432.082-.86.234-1.266a2 2 0 0 1 .526-.734c.203-.229.453-.41.734-.533a3.82 3.82 0 0 1 1.266-.226c.667 0 .914-.04 2.667-.04 1.753 0 2 0 2.667.04a3.74 3.74 0 0 1 1.24.226c.303.113.575.295.793.534.218.204.39.455.5.733.148.406.225.834.227 1.266.033.667.04.914.04 2.667 0 1.754-.007 2-.04 2.667ZM8 4.58a3.42 3.42 0 1 0 3.168 2.109A3.415 3.415 0 0 0 8 4.58Zm0 5.64a2.22 2.22 0 1 1 0-4.44 2.22 2.22 0 0 1 0 4.44Z" fill="#000"/></svg>