<svg width="51" height="51" viewBox="0 0 51 51" fill="none" xmlns="http://www.w3.org/2000/svg">
<path d="M28.6151 1.04197C23.1918 1.78462 18.2767 5.30241 15.8142 10.2078C14.7002 12.4162 14.241 14.2532 14.1726 16.7548C14.1237 18.6896 14.2214 19.6863 14.6514 21.3475C14.9641 22.5494 15.6383 24.2985 16.166 25.2464C16.3517 25.5786 16.4982 25.8717 16.4982 25.9011C16.4982 25.9304 12.8729 25.9597 8.43661 25.9597H0.375V26.6926V27.4254H8.6809C14.4559 27.4254 16.9868 27.4547 16.9868 27.5329C16.9868 27.5818 16.9379 27.9336 16.8793 28.3147L16.7621 28.9889H8.57342H0.375V29.6729V30.3569H8.37798C12.785 30.3569 16.4103 30.3862 16.4298 30.4253C16.4591 30.4742 16.2539 31.6859 15.9901 33.1223C15.7263 34.5685 15.5211 35.7607 15.5406 35.7802C15.5601 35.7997 17.0259 35.3112 18.7946 34.6858C20.573 34.0702 22.6153 33.3568 23.3579 33.1028L24.6869 32.6435L25.5077 32.9171C27.2177 33.5034 28.0776 33.6207 30.4228 33.6304C32.2892 33.6304 32.7192 33.6011 33.6768 33.4057C35.8266 32.966 38.0838 32.0377 39.7254 30.9139L40.5267 30.3569H45.4712H50.4059V29.6729V28.9889H46.2431H42.0804L42.7937 28.2072L43.4973 27.4254H46.9467H50.4059V26.6926V25.9597H47.5232C45.9402 25.9597 44.6406 25.9401 44.6406 25.9206C44.6406 25.9011 44.7872 25.6274 44.963 25.305C47.7675 20.3019 47.6014 13.7647 44.5526 8.73226C43.9859 7.80396 42.8231 6.31866 42.6569 6.31866C42.5885 6.31866 42.3345 6.54341 42.0902 6.81702L41.6505 7.32514L42.3931 8.32185C44.621 11.2729 45.6275 14.39 45.4907 17.8492C45.3246 21.709 43.7807 25.1682 40.9762 27.9629C39.2369 29.6925 37.39 30.8553 35.2598 31.5686C33.7452 32.067 32.9341 32.2135 31.2925 32.2819C29.1427 32.3601 27.3838 32.0963 25.4002 31.383L24.726 31.1387L21.0714 32.409C19.0682 33.1028 17.3972 33.6793 17.3679 33.6793C17.3386 33.6793 17.6122 32.0377 17.9835 30.0345L18.648 26.3799L18.1985 25.7056C17.192 24.191 16.2637 21.9338 15.8435 19.999C15.5895 18.8264 15.5895 15.8069 15.8435 14.6246C17.1822 8.35117 22.3026 3.48488 28.5467 2.56635C32.3869 1.98982 36.2956 3.0647 39.7352 5.63465L40.5365 6.23072L41.0739 5.77145C41.3769 5.51739 41.6016 5.28287 41.5918 5.24378C41.5723 5.2047 41.3084 4.97018 41.0055 4.71611C38.9437 3.04516 36.3249 1.78462 33.7452 1.2374C32.641 1.00289 29.729 0.895397 28.6151 1.04197Z" fill="#151515"/>
<path d="M25.9766 7.9797V10.6083L26.6899 10.6376L27.3935 10.6669L27.4423 19.5102C27.4912 28.2852 27.4912 28.3536 27.6964 28.8031C27.9895 29.4285 28.5563 30.0245 29.1426 30.3372C29.5823 30.5718 29.7484 30.6011 30.5692 30.6011C31.3901 30.6011 31.5562 30.5718 31.9959 30.3372C32.5822 30.0245 33.149 29.4285 33.4421 28.8031C33.6473 28.3536 33.6473 28.2852 33.6962 19.5102L33.745 10.6669L34.4584 10.6376L35.1619 10.6083V7.9797V5.34135H30.5692H25.9766V7.9797ZM33.7743 7.99924L33.8037 9.25002H30.5692H27.3446V8.02856V6.81687L28.0091 6.77779C28.3706 6.75824 29.807 6.74847 31.2044 6.74847L33.745 6.75824L33.7743 7.99924ZM32.3086 13.3737L32.3281 16.0902H30.5692H28.8103V13.4225C28.8103 11.947 28.8397 10.7158 28.8787 10.6767C28.9178 10.6474 29.6996 10.6278 30.6083 10.6376L32.2793 10.6669L32.3086 13.3737ZM32.3086 22.686L32.3281 27.865L32.1132 28.3047C31.4585 29.5946 29.68 29.5946 29.0351 28.3047C28.8103 27.8748 28.8103 27.865 28.8103 22.7349C28.8103 19.9011 28.8397 17.5559 28.8787 17.5168C28.9178 17.4875 29.6996 17.468 30.6083 17.4777L32.2793 17.5071L32.3086 22.686Z" fill="#151515"/>
<path d="M18.0625 13.9405V14.6245H20.7008H23.3392V13.9405V13.2565H20.7008H18.0625V13.9405Z" fill="#151515"/>
<path d="M18.0625 16.8721V17.5561H20.5054H22.9483L23.8473 18.7775C24.3652 19.4616 24.8049 19.9697 24.8831 19.9501C25.0688 19.8817 25.87 19.2759 25.8798 19.1879C25.8798 19.1489 25.3815 18.4551 24.7854 17.6538L23.6812 16.1881H20.8767H18.0625V16.8721Z" fill="#151515"/>
<path d="M37.8008 17.9468V18.6309H40.4391H43.0775V17.9468V17.2628H40.4391H37.8008V17.9468Z" fill="#151515"/>
<path d="M36.3841 21.6309C35.788 22.4126 35.2994 23.0966 35.2799 23.1357C35.2506 23.2139 36.3157 24.064 36.3743 23.9956C36.3841 23.9761 36.8043 23.4191 37.3026 22.7546L38.2016 21.5625H40.6348H43.0777V20.8784V20.1944H40.2634H37.4492L36.3841 21.6309Z" fill="#151515"/>
<path d="M44.1918 33.171C43.5176 33.4055 43.2245 33.6108 42.8922 34.0798C42.1398 35.1156 42.2766 36.6791 43.1951 37.5585C44.2309 38.5552 46.0387 38.5064 46.9572 37.451C47.436 36.9136 47.6022 36.5325 47.651 35.8191C47.7194 34.7736 47.2211 33.8453 46.3025 33.3469C45.6478 32.9854 44.8759 32.9267 44.1918 33.171ZM45.7162 34.6465C46.3416 35.0765 46.4491 35.995 45.9214 36.5227C45.257 37.1872 44.1137 36.9136 43.8498 36.0244C43.5176 34.9104 44.7586 33.9918 45.7162 34.6465Z" fill="#151515"/>
<path d="M4.90864 34.0504C4.2344 34.2849 3.94125 34.4901 3.60901 34.9592C2.85659 35.995 2.9934 37.5584 3.91193 38.4379C4.94773 39.4346 6.75548 39.3857 7.67402 38.3304C8.15283 37.793 8.31895 37.4119 8.36781 36.6985C8.43621 35.653 7.93785 34.7247 7.01932 34.2263C6.36462 33.8648 5.59266 33.8061 4.90864 34.0504ZM6.43302 35.5259C7.0584 35.9559 7.16589 36.8744 6.63822 37.4021C5.97375 38.0666 4.83047 37.793 4.56663 36.9037C4.2344 35.7898 5.4754 34.8712 6.43302 35.5259Z" fill="#151515"/>
<path d="M31.107 38.4087C29.7096 38.7507 28.6054 39.7083 28.1755 40.9884C28.0778 41.262 27.9703 41.3695 27.6771 41.4672C27.4817 41.5356 27.0908 41.7408 26.8172 41.9167C26.3384 42.2196 26.2798 42.2294 25.2928 42.2294C24.1496 42.2392 23.6317 42.3857 22.8206 42.9525C22.3907 43.2456 22.3418 43.2554 21.7066 43.1968C20.4754 43.0795 19.2931 43.5095 18.3843 44.3987C17.8566 44.9068 17.2801 45.9328 17.2801 46.353V46.5778H13.4691H9.6582V47.2618V47.9458H30.0321H50.406V47.2618V46.5778H49.5949H48.7839L48.6569 46.0892C48.5005 45.4833 47.9142 44.5648 47.4159 44.1544C46.8687 43.6951 46.1162 43.3531 45.4029 43.2359L44.7873 43.1284L44.543 42.5909C44.2401 41.8971 43.3899 41.0372 42.6668 40.6855C41.4552 40.0992 40.136 40.1089 38.9341 40.705L38.3478 40.9982L37.9569 40.7636C37.4781 40.49 36.54 40.2262 36.0123 40.2262C35.6703 40.2262 35.5629 40.1578 35.0156 39.591C33.9408 38.4771 32.5532 38.0569 31.107 38.4087ZM33.1786 39.9233C33.7062 40.1676 34.3219 40.8027 34.5466 41.3597L34.7225 41.7994L35.2111 41.7213C36.3934 41.5356 37.1654 41.7701 37.9471 42.5323L38.3869 42.9525L38.8266 42.5323C39.4617 41.9069 40.0285 41.6626 40.82 41.6626C42.2662 41.6626 43.3899 42.7082 43.5365 44.1935L43.5951 44.7309L43.8981 44.6625C44.4941 44.5257 45.354 44.5941 45.8231 44.8091C46.3703 45.0632 47.025 45.7179 47.2302 46.2064L47.3768 46.5778H33.0125H18.6481L18.7947 46.2162C19.3419 44.9166 20.837 44.2814 22.2539 44.7602L22.7718 44.9361L23.2115 44.4964C24.0421 43.656 25.0486 43.4118 26.1625 43.7831L26.6804 43.959L27.1201 43.5192C27.6185 43.0111 28.1657 42.7277 28.84 42.63C29.2308 42.5714 29.2992 42.5323 29.2992 42.3369C29.2992 41.9558 29.5631 41.2034 29.8464 40.8027C30.1103 40.4119 30.5695 40.0698 31.107 39.8646C31.5858 39.679 32.7095 39.7181 33.1786 39.9233Z" fill="#151515"/>
<path d="M13.1176 38.5455C12.4434 38.7801 12.1502 38.9853 11.818 39.4543C11.0656 40.4901 11.2024 42.0536 12.1209 42.933C13.1567 43.9297 14.9645 43.8809 15.883 42.8255C16.3618 42.2881 16.5279 41.907 16.5768 41.1937C16.6452 40.1481 16.1468 39.2198 15.2283 38.7214C14.5736 38.3599 13.8016 38.3012 13.1176 38.5455ZM14.642 40.0211C15.2674 40.451 15.3749 41.3695 14.8472 41.8972C14.1827 42.5617 13.0395 42.2881 12.7756 41.3989C12.4434 40.2849 13.6844 39.3664 14.642 40.0211Z" fill="#151515"/>
<path d="M0.375 47.2618V47.9458H4.28366H8.19232V47.2618V46.5778H4.28366H0.375V47.2618Z" fill="#151515"/>
<path d="M0.375 50.2422V50.9751H25.3904H50.4059V50.2422V49.5093H25.3904H0.375V50.2422Z" fill="#151515"/>
</svg>
