<svg width="27" height="42" viewBox="0 0 27 42" fill="none" xmlns="http://www.w3.org/2000/svg">
<g clip-path="url(#clip0_804_2325)">
<path d="M3.97383 0.101772C3.68728 0.216392 3.38436 0.486568 3.23699 0.781305C3.08143 1.08423 3.07325 1.27253 3.07325 3.98247V6.86435L3.26974 7.20002C3.49898 7.60119 3.99839 7.90411 4.41594 7.90411H4.71067V9.20583C4.71067 9.93449 4.66974 10.614 4.62061 10.745C4.57149 10.8678 3.81009 11.7111 2.91769 12.6117C1.23933 14.3064 0.977341 14.6503 0.72354 15.4772C0.584359 15.9357 0.576172 16.4269 0.576172 23.0748V30.1895L0.805412 30.3859C1.08377 30.6234 1.34576 30.6398 1.63231 30.4105L1.84518 30.2468V25.1298V20.021H13.6346H25.4241V21.4047V22.7965L25.637 22.9602C25.9235 23.1895 26.1855 23.1731 26.4639 22.9357L26.6931 22.7392V19.3497C26.6931 14.7649 26.8077 15.0924 24.3516 12.6117C23.4592 11.7111 22.6978 10.8678 22.6487 10.745C22.5995 10.614 22.5586 9.93449 22.5586 9.20583V7.90411H22.8615C23.3036 7.90411 23.8194 7.56844 24.0241 7.14271C24.1878 6.80704 24.196 6.66785 24.196 3.94154C24.196 1.27253 24.1878 1.08423 24.0323 0.781305C23.9422 0.609375 23.7539 0.380135 23.6065 0.273702L23.3364 0.0853982L13.7165 0.0690242C8.42763 0.0608371 4.03933 0.0772114 3.97383 0.101772ZM22.7551 1.32166C22.8697 1.36259 22.8861 1.6737 22.8861 3.98247V6.59417H17.4007C13.5609 6.59417 11.8662 6.61873 11.727 6.68423C11.3422 6.85616 11.2358 7.3392 11.5141 7.69125L11.6779 7.90411H16.4592H21.2323L21.265 9.47601C21.2896 10.9497 21.306 11.0807 21.4861 11.4245C21.6007 11.6374 22.3457 12.4725 23.3036 13.4304C25.3668 15.5181 25.3504 15.4854 25.4077 17.3766L25.4487 18.7111H13.6346H1.82061L1.86155 17.3766C1.91886 15.4854 1.90249 15.5181 3.96564 13.4304C4.92354 12.4725 5.66857 11.6374 5.78319 11.4245C5.9633 11.0807 5.97968 10.9497 6.00424 9.47601L6.03699 7.90411H7.72354C9.33637 7.90411 9.41824 7.89592 9.59836 7.72399C9.83579 7.50294 9.84397 7.09359 9.63111 6.8316L9.47555 6.63511L6.92939 6.61054L4.38319 6.58598V3.97429C4.38319 1.96844 4.40775 1.36259 4.48962 1.32984C4.63699 1.26435 22.5995 1.26435 22.7551 1.32166Z" fill="#151515"/>
<path d="M5.89804 2.86885C5.70155 3.05715 5.69336 3.12265 5.69336 3.97411C5.69336 4.82557 5.70155 4.89107 5.89804 5.07937C6.02084 5.21037 6.19277 5.28405 6.34833 5.28405C6.50389 5.28405 6.67582 5.21037 6.79862 5.07937C6.99511 4.89107 7.0033 4.83376 7.0033 3.94955C7.0033 3.08171 6.98693 3.00803 6.815 2.84428C6.55301 2.59867 6.15184 2.60686 5.89804 2.86885Z" fill="#151515"/>
<path d="M9.5407 2.8281C9.39333 2.97547 9.37695 3.09828 9.37695 3.96611C9.37695 4.92401 9.38514 4.94857 9.58982 5.11231C9.83543 5.3088 10.0155 5.32518 10.3103 5.19418C10.5805 5.06319 10.6869 4.73571 10.6869 3.9743C10.6869 3.27021 10.5805 2.86085 10.3594 2.74623C10.1056 2.61524 9.71263 2.65617 9.5407 2.8281Z" fill="#151515"/>
<path d="M13.1832 2.86874C12.9867 3.05704 12.9785 3.12254 12.9785 3.974C12.9785 4.82547 12.9867 4.89096 13.1832 5.07927C13.306 5.21026 13.4779 5.28395 13.6335 5.28395C13.789 5.28395 13.961 5.21026 14.0838 5.07927C14.2803 4.89096 14.2885 4.82547 14.2885 3.974C14.2885 3.12254 14.2803 3.05704 14.0838 2.86874C13.961 2.73775 13.789 2.66406 13.6335 2.66406C13.4779 2.66406 13.306 2.73775 13.1832 2.86874Z" fill="#151515"/>
<path d="M16.8849 2.76239C16.8112 2.8197 16.7129 2.97526 16.6638 3.09807C16.5574 3.3928 16.5574 4.55538 16.6638 4.84192C16.8357 5.29222 17.2942 5.41502 17.679 5.1121C17.8837 4.94836 17.8919 4.9238 17.8919 3.9659C17.8919 3.09807 17.8755 2.97526 17.7281 2.82789C17.5398 2.63959 17.0977 2.60684 16.8849 2.76239Z" fill="#151515"/>
<path d="M20.4457 2.85261C20.282 3.02454 20.2656 3.13098 20.2656 3.96606C20.2656 4.8339 20.2738 4.89121 20.4703 5.07951C20.5931 5.21051 20.765 5.28419 20.9206 5.28419C21.0762 5.28419 21.2481 5.21051 21.3709 5.07951C21.5674 4.89121 21.5756 4.82571 21.5756 3.97425C21.5756 3.12279 21.5674 3.05729 21.3709 2.86899C21.1089 2.59881 20.6914 2.59063 20.4457 2.85261Z" fill="#151515"/>
<path d="M6.94531 21.5108C6.84707 21.56 6.72426 21.7073 6.66695 21.8383C6.57689 22.0512 6.65057 22.2886 7.41198 24.5073C8.58274 27.905 8.53362 27.7822 8.82013 27.9296C9.11487 28.0851 9.5406 28.0278 9.73709 27.8068C9.90083 27.6266 11.6693 22.3705 11.6693 22.0676C11.6693 21.7728 11.4646 21.519 11.1862 21.4535C10.9406 21.4044 10.6213 21.5109 10.5067 21.691C10.4739 21.7401 10.1628 22.6161 9.81896 23.6395C9.48329 24.6711 9.18855 25.5062 9.17218 25.5062C9.16399 25.5062 8.86107 24.6711 8.50905 23.6477C8.0997 22.4606 7.80496 21.7155 7.68215 21.6009C7.48566 21.3962 7.23186 21.3717 6.94531 21.5108Z" fill="#151515"/>
<path d="M13.1832 21.6173L12.9785 21.8138V24.712C12.9785 27.4383 12.9867 27.6266 13.1341 27.8068C13.2487 27.9541 13.3715 28.0032 13.6335 28.0032C13.8955 28.0032 14.0183 27.9541 14.1329 27.8068C14.2803 27.6266 14.2885 27.4383 14.2885 24.712V21.8138L14.0838 21.6173C13.961 21.4863 13.789 21.4126 13.6335 21.4126C13.4779 21.4126 13.306 21.4863 13.1832 21.6173Z" fill="#151515"/>
<path d="M15.951 21.511C15.7217 21.6175 15.5743 21.9859 15.648 22.2642C15.7299 22.5999 15.9755 22.7227 16.5568 22.7227H17.0726V25.0724C17.0726 26.3742 17.0972 27.5122 17.1217 27.6186C17.1954 27.8724 17.5884 28.0689 17.8995 28.0034C18.3743 27.897 18.3825 27.8315 18.3825 25.1625V22.7227H18.9147C19.3814 22.7227 19.4796 22.6982 19.6515 22.518C19.7825 22.3952 19.8562 22.2233 19.8562 22.0677C19.8562 21.9122 19.7825 21.7403 19.6515 21.6174C19.455 21.4128 19.455 21.4128 17.7931 21.421C16.8106 21.421 16.0574 21.4619 15.951 21.511Z" fill="#151515"/>
<path d="M25.5875 24.8513C25.4237 25.015 25.4237 25.1215 25.4237 30.132V35.249H13.6342H1.84472V33.8571C1.84472 32.5718 1.82835 32.449 1.68098 32.3016C1.46811 32.0887 1.00145 32.0805 0.788583 32.2934C0.698525 32.3835 0.600279 32.5881 0.575718 32.7437C0.542969 32.8993 0.534782 34.3074 0.551156 35.8794C0.583905 38.2946 0.616653 38.794 0.731273 39.1788C1.12426 40.4232 2.12308 41.4302 3.32659 41.8069C3.80145 41.9542 4.23536 41.9624 13.6342 41.9624C23.0331 41.9624 23.467 41.9542 23.9418 41.8069C25.1453 41.4302 26.1278 40.4396 26.5372 39.1788C26.6763 38.7612 26.6927 38.2209 26.7173 32.1379C26.7337 28.5109 26.7173 25.4244 26.6927 25.277C26.6682 25.1297 26.5699 24.9332 26.4799 24.8431C26.267 24.6303 25.8003 24.6384 25.5875 24.8513ZM25.3991 37.5823C25.3582 38.4419 25.3173 38.6794 25.1372 39.0887C24.867 39.6864 24.3839 40.1694 23.7453 40.4642L23.2541 40.6934H13.6342H4.01431L3.52308 40.4642C2.88449 40.1694 2.40145 39.6864 2.13127 39.0887C1.95115 38.6794 1.91022 38.4419 1.86928 37.5823L1.82016 36.5589H13.6342H25.4483L25.3991 37.5823Z" fill="#151515"/>
<path d="M20.0449 26.2103C19.2262 26.6196 19.5127 27.9623 20.4297 27.9623C21.0601 27.9623 21.404 27.643 21.4122 27.0617C21.4122 26.636 21.2648 26.3822 20.9209 26.2021C20.618 26.0465 20.3724 26.0465 20.0449 26.2103Z" fill="#151515"/>
<path d="M4.58749 29.5587C4.38281 29.7552 4.38281 29.7634 4.38281 31.3435C4.38281 32.8908 4.38281 32.9318 4.57112 33.1037L4.75942 33.2838H13.2413H21.7313L21.8951 33.071C22.0588 32.8663 22.067 32.7435 22.067 31.3025C22.067 29.7715 22.067 29.7552 21.8623 29.5587L21.6658 29.354H13.2249H4.78398L4.58749 29.5587ZM20.7571 31.3189V31.9739H13.2249H5.69275V31.3189V30.6639H13.2249H20.7571V31.3189Z" fill="#151515"/>
</g>
<defs>
<clipPath id="clip0_804_2325">
<rect width="26.2807" height="42" fill="white" transform="translate(0.488281)"/>
</clipPath>
</defs>
</svg>
