<svg width="16" height="16" fill="none" xmlns="http://www.w3.org/2000/svg"><path d="M14.667 3.867a5.66 5.66 0 0 1-1.574.426c.572-.341 1.001-.879 1.207-1.513a5.474 5.474 0 0 1-1.74.667A2.733 2.733 0 0 0 7.893 5.94 7.76 7.76 0 0 1 2.26 3.08a2.773 2.773 0 0 0-.046 2.67c.212.396.519.734.893.983a2.7 2.7 0 0 1-1.24-.34v.034a2.733 2.733 0 0 0 2.2 2.666 2.62 2.62 0 0 1-.734.114 3.267 3.267 0 0 1-.513-.047 2.74 2.74 0 0 0 2.553 1.893 5.48 5.48 0 0 1-4.04 1.134 7.713 7.713 0 0 0 4.194 1.233 7.726 7.726 0 0 0 7.806-7.787V5.28a5.62 5.62 0 0 0 1.334-1.413Z" fill="#000"/></svg>