<svg width="16" height="16" fill="none" xmlns="http://www.w3.org/2000/svg"><g clip-path="url(#a)"><path d="M0 1.776C0 1.261.18.836.54.502.9.167 1.37 0 1.947 0 2.512 0 2.97.165 3.32.494c.36.34.541.783.541 1.328 0 .495-.175.906-.525 1.236-.36.34-.834.51-1.42.51H1.9c-.567 0-1.025-.17-1.375-.51C.175 2.718 0 2.29 0 1.776ZM.2 15.29V4.973h3.43V15.29H.2Zm5.329 0h3.429V9.529c0-.36.04-.638.123-.834a2.24 2.24 0 0 1 .656-.888c.294-.242.662-.363 1.105-.363 1.153 0 1.73.777 1.73 2.332v5.514H16V9.375c0-1.524-.36-2.68-1.081-3.468-.72-.787-1.673-1.181-2.857-1.181-1.328 0-2.363.571-3.104 1.714v.031h-.016l.016-.03V4.972H5.529c.02.33.03 1.354.03 3.073 0 1.72-.01 4.134-.03 7.244Z" fill="#000"/></g><defs><clipPath id="a"><path fill="#fff" d="M0 0h16v15.29H0z"/></clipPath></defs></svg>