<svg width="28" height="28" fill="none" xmlns="http://www.w3.org/2000/svg"><path d="M25.003 27.673H3.5c-1.466 0-2.688-1.221-2.688-2.688V5.255c0-1.466.978-2.688 2.26-2.688h1.345v1.771H3.073c-.184 0-.428.367-.428.917v19.73a.94.94 0 0 0 .916.917h21.503a.94.94 0 0 0 .916-.917V5.255c0-.55-.306-.917-.428-.917h-1.344V2.567h1.344c1.222 0 2.26 1.222 2.26 2.688v19.73c-.122 1.467-1.343 2.688-2.81 2.688Z" fill="#fff"/><path d="M7.104 6.171a.94.94 0 0 1-.916-.916V1.65a.94.94 0 0 1 .916-.917.94.94 0 0 1 .917.917v3.604c-.061.488-.428.916-.917.916Zm14.294 0a.94.94 0 0 1-.916-.916V1.65a.94.94 0 0 1 .916-.917.94.94 0 0 1 .917.917v3.604a.94.94 0 0 1-.917.916ZM9.792 2.567h8.919V4.4H9.792V2.567ZM2.584 7.943h23.335v1.832H2.584V7.943Zm19.73 3.604h1.772v1.771h-1.771v-1.771Zm-3.603 0h1.832v1.771h-1.832v-1.771Zm-3.543 0h1.771v1.771h-1.771v-1.771Zm-3.604 0h1.771v1.771h-1.771v-1.771Zm-3.604 0h1.832v1.771H7.96v-1.771Zm14.355 3.604h1.771v1.771h-1.771v-1.771Zm-3.604 0h1.832v1.771h-1.832v-1.771Zm-3.543 0h1.771v1.771h-1.771v-1.771Zm-3.604 0h1.771v1.771h-1.771v-1.771Zm-3.604 0h1.832v1.771H7.96v-1.771Zm-3.543 0h1.771v1.771H4.417v-1.771Zm17.898 3.543h1.771v1.832h-1.771v-1.832Zm-3.604 0h1.832v1.832h-1.832v-1.832Zm-3.543 0h1.771v1.832h-1.771v-1.832Zm-3.604 0h1.771v1.832h-1.771v-1.832Zm-3.604 0h1.832v1.832H7.96v-1.832Zm-3.543 0h1.771v1.832H4.417v-1.832Zm14.294 3.604h1.832v1.771h-1.832v-1.771Zm-3.543 0h1.771v1.771h-1.771v-1.771Zm-3.604 0h1.771v1.771h-1.771v-1.771Zm-3.604 0h1.832v1.771H7.96v-1.771Zm-3.543 0h1.771v1.771H4.417v-1.771Z" fill="#fff"/></svg>