<svg width="28" height="28" fill="none" xmlns="http://www.w3.org/2000/svg"><g clip-path="url(#a)"><path d="m9.074 3.493-3.19 3.19-1.45-1.45a.41.41 0 0 0-.58.58l1.74 1.74a.41.41 0 0 0 .58 0l3.48-3.48a.41.41 0 0 0-.58-.58Zm16.738.827h-7.109a.958.958 0 0 0-.957.957v.547a.958.958 0 0 0 .82.946V24.31a3.691 3.691 0 0 0 7.383 0V6.77a.958.958 0 0 0 .82-.946v-.547a.958.958 0 0 0-.956-.957Zm-.683 11.485h-1.34a.41.41 0 0 0 0 .82h1.34v1.64h-1.34a.41.41 0 0 0 0 .82h1.34v1.642h-1.34a.41.41 0 0 0 0 .82h1.34v1.64h-1.34a.41.41 0 0 0 0 .82h1.34v.302a2.871 2.871 0 0 1-5.742 0V14.164h5.742v1.64Zm0-7.383h-1.34a.41.41 0 0 0 0 .82h1.34v1.64h-1.34a.41.41 0 0 0 0 .821h1.34v1.64h-5.742V6.782h5.742v1.64Zm.82-2.598a.136.136 0 0 1-.137.137h-7.109a.137.137 0 0 1-.137-.137v-.547a.137.137 0 0 1 .137-.136h7.11a.137.137 0 0 1 .136.136v.547ZM15.504 4.32h-3.359a5.522 5.522 0 1 0-3.887 6.519v13.47a3.691 3.691 0 0 0 7.383 0V6.77a.957.957 0 0 0 .82-.946v-.547a.958.958 0 0 0-.957-.957Zm-8.75 5.906a4.703 4.703 0 1 1 0-9.406 4.703 4.703 0 0 1 0 9.406Zm8.066 8.04h-1.34a.41.41 0 0 0 0 .82h1.34v1.64h-1.34a.41.41 0 0 0 0 .82h1.34v1.642h-1.34a.41.41 0 0 0 0 .82h1.34v.3a2.871 2.871 0 0 1-5.742 0v-7.683h5.742v1.64Zm0-9.844h-1.34a.41.41 0 0 0 0 .82h1.34v1.64h-1.34a.41.41 0 0 0 0 .821h1.34v1.64h-1.34a.41.41 0 1 0 0 .821h1.34v1.64H9.078v-5.27a5.546 5.546 0 0 0 3.055-3.753h2.687v1.64Zm.82-2.598a.136.136 0 0 1-.136.137H12.26a5.654 5.654 0 0 0 .004-.82h3.24a.137.137 0 0 1 .137.136v.547Z" fill="#fff"/></g><defs><clipPath id="a"><path fill="#fff" d="M0 0h28v28H0z"/></clipPath></defs></svg>