<svg width="28" height="28" fill="none" xmlns="http://www.w3.org/2000/svg"><path d="M5.688 22.75V3.062a.437.437 0 0 1 .437-.437h10.063V5.25a.438.438 0 0 0 .437.438h3.938v6.125h.875V5.25a.437.437 0 0 0-.193-.35L16.87 1.837a.407.407 0 0 0-.245-.087h-10.5a1.313 1.313 0 0 0-1.313 1.313V22.75a1.313 1.313 0 0 0 1.313 1.313h11.813v-.875H6.124a.438.438 0 0 1-.438-.438ZM17.063 3.027l2.55 1.785h-2.55V3.027ZM12.25 7.875a.438.438 0 0 0-.438-.438h-3.5a.437.437 0 0 0-.437.438V10.5a.438.438 0 0 0 .438.438h3.5a.438.438 0 0 0 .437-.438V7.875Zm-.875 2.188H8.75v-1.75h2.625v1.75Zm7.438-1.75H14v-.876h4.813v.875ZM14 10.063h4.813v.874H14v-.874Zm-1.75 3.062a.438.438 0 0 0-.438-.438h-3.5a.438.438 0 0 0-.437.438v2.625a.438.438 0 0 0 .438.438h3.5a.438.438 0 0 0 .437-.438v-2.625Zm-.875 2.188H8.75v-1.75h2.625v1.75ZM14 12.687h3.938v.876H14v-.876Zm0 2.626h3.938v.874H14v-.875Zm-2.188 2.624h-3.5a.438.438 0 0 0-.437.438V21a.438.438 0 0 0 .438.438h3.5A.438.438 0 0 0 12.25 21v-2.625a.438.438 0 0 0-.438-.438Zm-.437 2.625H8.75v-1.75h2.625v1.75ZM14 17.938h3.938v.875H14v-.875Zm0 2.625h3.938v.875H14v-.875Zm7.875-7.875h-1.75A1.313 1.313 0 0 0 18.812 14v9.625c.001.1.037.198.101.276l1.785 2.187a.437.437 0 0 0 .527.118c.059-.029.11-.07.151-.122l1.715-2.188a.472.472 0 0 0 .096-.271V14a1.313 1.313 0 0 0-1.312-1.313ZM19.687 14a.438.438 0 0 1 .438-.438h1.75a.438.438 0 0 1 .438.438v.875h-2.625V14Zm2.625 9.476-1.281 1.637-1.343-1.645V15.75h2.625v7.726Z" fill="#fff"/></svg>