<svg width="38" height="42" viewBox="0 0 38 42" fill="none" xmlns="http://www.w3.org/2000/svg">
<g clip-path="url(#clip0_804_2273)">
<path d="M16.8002 0.955533C14.1803 2.94501 13.5499 3.44442 13.3943 3.65729C13.1814 3.94384 13.1241 4.59062 13.2797 4.95904C13.3452 5.1146 13.599 5.41752 13.8364 5.6222C14.8762 6.49004 18.02 8.79884 18.192 8.81521C18.585 8.83978 18.7896 8.78247 18.9861 8.58598C19.1744 8.40586 19.1908 8.3158 19.2154 7.52161L19.2481 6.66197L19.6902 6.7029C19.9358 6.72746 20.3452 6.77659 20.6072 6.80115C21.3768 6.87483 22.9078 7.23507 23.7347 7.54618C24.8072 7.93916 26.2399 8.7006 27.1733 9.35557C28.1639 10.0515 29.8341 11.7135 30.5545 12.7287C30.8575 13.1544 31.3651 14.0222 31.6762 14.6526C32.6177 16.5357 33.0025 17.9848 33.1581 20.179C33.2645 21.6363 33.3791 22.0374 33.8212 22.5205C34.2961 23.0363 34.7791 23.2409 35.4832 23.2409C36.1873 23.2409 36.744 22.979 37.1943 22.455C37.6528 21.9228 37.7674 21.4152 37.7101 20.1708C37.489 15.6105 35.7206 11.3942 32.6586 8.11928C32.1838 7.61167 32.1265 7.57074 31.799 7.57074C31.3733 7.57074 31.185 7.75085 31.185 8.17659C31.185 8.43861 31.2504 8.56141 31.6189 8.96258C34.5499 12.1228 36.1873 15.979 36.392 20.179C36.4411 21.1614 36.4329 21.2105 36.2446 21.4889C36.1382 21.6445 35.9253 21.8164 35.7534 21.8819C35.4832 21.9883 35.4177 21.9801 35.1475 21.8491C34.6235 21.5871 34.5662 21.4316 34.468 20.0234C34.1896 16.1427 32.7569 12.8842 30.1206 10.1579C27.4025 7.3415 24.0212 5.76138 20.0341 5.4339C18.2165 5.27834 17.9218 5.4339 17.9218 6.50641C17.9218 6.77659 17.9054 6.99764 17.8727 6.99764C17.8481 6.99764 17.0703 6.42454 16.1534 5.72045C14.7779 4.67249 14.4914 4.41869 14.5814 4.33682C14.7616 4.16489 17.8399 1.83974 17.8809 1.83974C17.9054 1.83974 17.9218 2.0608 17.9218 2.33097C17.9218 3.25612 18.1756 3.47717 19.2481 3.47717C22.261 3.47717 25.7405 4.55787 28.4668 6.33448C29.4329 6.96489 29.744 7.04676 30.0388 6.75202C30.268 6.52278 30.2598 6.01518 30.0224 5.79413C29.9159 5.69588 29.523 5.41752 29.1382 5.17191C26.5101 3.47717 23.6119 2.49471 20.4189 2.23273L19.2481 2.13448L19.2154 1.29939C19.1908 0.546176 19.1744 0.439744 18.9943 0.25144C18.8306 0.0795099 18.7159 0.0385742 18.4048 0.0385742C18.0282 0.0385742 17.9545 0.0876969 16.8002 0.955533Z" fill="#151515"/>
<path d="M11.8155 10.7066C10.9395 10.9359 10.1535 11.599 9.75235 12.4668C9.45761 13.0973 9.44942 14.1616 9.72778 14.8739C10.0061 15.5943 10.7757 16.3394 11.5208 16.6259C11.529 16.6341 11.4143 17.0189 11.2588 17.4856C10.8904 18.5826 10.7757 19.4259 10.8085 20.7031C10.833 21.5136 10.8167 21.7347 10.7348 21.7347C10.481 21.7347 9.74416 22.1686 9.38392 22.5288C8.15588 23.7569 8.15588 25.6891 9.38392 26.9171C9.94884 27.4902 10.5138 27.7359 11.3325 27.7768C12.1266 27.8177 12.7079 27.6785 13.281 27.2937L13.6658 27.0399L14.0506 27.3592C15.3114 28.399 16.7523 29.0458 18.4143 29.316C19.3231 29.4715 20.9442 29.4224 21.7301 29.2341C22.3769 29.0704 22.3851 29.0704 22.4833 29.2914C22.6225 29.6025 23.3839 30.3803 23.8015 30.6505C25.8564 31.9686 28.6728 31.1908 29.7453 29.013C30.564 27.3511 30.1956 25.3534 28.8447 24.1171L28.3126 23.6259L28.4845 23.0692C28.5828 22.7663 28.7137 22.1604 28.7711 21.7347C29.467 17.1663 26.6097 12.8025 22.1395 11.6072C21.4108 11.4107 21.1652 11.3943 19.888 11.3861C18.1442 11.378 17.2845 11.5499 15.9254 12.1967C15.6716 12.3195 15.4424 12.4013 15.4342 12.3932C15.4178 12.3768 15.295 12.1885 15.1559 11.9756C14.4354 10.9113 13.0681 10.3873 11.8155 10.7066ZM13.1009 12.0002C14.1734 12.3277 14.6892 13.6458 14.1079 14.5873C13.4447 15.6598 12.0202 15.7663 11.226 14.8166C10.9804 14.5136 10.8003 14.047 10.8003 13.6949C10.8003 13.3183 11.0541 12.7534 11.357 12.4587C11.8483 11.9756 12.4705 11.8119 13.1009 12.0002ZM21.7792 12.8844C23.998 13.4902 25.7582 14.9557 26.7652 17.0189C27.6412 18.8201 27.7968 20.7522 27.2155 22.6844L27.0927 23.1019L26.2904 23.061C25.6845 23.0364 25.3652 23.061 24.9968 23.1674C23.5067 23.5932 22.4342 24.6739 22.0494 26.1148C21.9839 26.3359 21.9348 26.8271 21.9348 27.1873V27.8587L21.3863 27.9651C20.5757 28.1288 18.7582 28.1043 18.0868 27.9242C16.7687 27.5639 15.5652 26.9417 14.7465 26.2049L14.4272 25.9101L14.5418 25.4844C14.681 24.9768 14.6401 24.1663 14.4436 23.6177C14.1734 22.8318 13.3056 21.9967 12.5442 21.792C12.2167 21.7101 12.1921 21.6856 12.143 21.3417C12.1102 21.1452 12.1102 20.5312 12.1348 19.9826C12.1757 18.9183 12.4132 17.9195 12.8061 17.1581C12.9781 16.8142 13.0436 16.7487 13.3138 16.6996C13.7722 16.6177 14.5254 16.192 14.8529 15.8318C15.1968 15.447 15.5161 14.8329 15.5898 14.399C15.6225 14.2271 15.6635 14.0224 15.6798 13.9487C15.7617 13.6622 17.4974 12.9171 18.5126 12.737C19.2412 12.606 21.067 12.6879 21.7792 12.8844ZM12.536 23.2575C13.0354 23.6013 13.3629 24.2645 13.3219 24.813C13.1909 26.4095 11.2915 27.0563 10.2354 25.861C9.62954 25.1651 9.62135 24.3054 10.2108 23.6095C10.6202 23.1265 11.0459 22.9546 11.6763 22.9873C12.0857 23.0037 12.2576 23.061 12.536 23.2575ZM27.2892 24.6411C28.4763 25.2388 29.0904 26.5569 28.7792 27.8013C28.5909 28.5382 28.1734 29.1195 27.5757 29.5125C26.4459 30.2411 25.1196 30.1183 24.1126 29.185C23.5804 28.6937 23.3102 28.0879 23.2611 27.3101C23.1956 26.0657 23.8506 25.0423 25.0295 24.5429C25.6927 24.2645 26.626 24.3054 27.2892 24.6411Z" fill="#151515"/>
<path d="M20.0503 15.7986C19.559 15.9541 19.0269 16.4126 18.7649 16.9366C18.4701 17.5015 18.4538 18.3939 18.7321 18.9752C19.4035 20.367 21.3356 20.6863 22.4 19.5892C22.9321 19.0325 23.0386 18.7705 23.0386 17.9682C23.0386 17.1413 22.8912 16.7974 22.3181 16.2734C21.7286 15.7249 20.869 15.5448 20.0503 15.7986ZM21.4748 17.305C21.6877 17.5261 21.7286 17.6243 21.7286 17.9682C21.7286 18.312 21.6877 18.4103 21.4748 18.6313C20.9508 19.1553 20.1403 18.9588 19.8947 18.2547C19.5672 17.305 20.7625 16.5927 21.4748 17.305Z" fill="#151515"/>
<path d="M1.87536 18.779C1.08939 18.9427 0.401678 19.5731 0.180625 20.3427C0.0741921 20.6948 0.0578179 21.0059 0.0987535 21.8246C0.287058 25.6726 1.58062 29.2831 3.88939 32.3696C4.5853 33.3112 4.95373 33.4831 5.3549 33.0737C5.70695 32.7299 5.63326 32.4597 4.96192 31.5673C2.997 28.9638 1.79349 25.8936 1.466 22.6433C1.33501 21.3416 1.35957 20.834 1.54787 20.5229C1.89173 19.9579 2.62039 19.9088 3.04612 20.4246C3.21805 20.6293 3.2508 20.7685 3.29992 21.5872C3.5046 24.9439 4.50344 27.7767 6.35373 30.2901C7.04964 31.2234 8.67065 32.8609 9.57123 33.524C12.011 35.317 14.7046 36.3158 17.8075 36.5696C19.5923 36.7088 19.887 36.5614 19.887 35.4889C19.887 35.2188 19.9034 34.9977 19.9361 34.9977C19.9607 34.9977 20.7385 35.5708 21.6554 36.2749C23.0309 37.3229 23.3174 37.5767 23.2274 37.6585C23.0473 37.8305 19.9689 40.1556 19.928 40.1556C19.9034 40.1556 19.887 39.9345 19.887 39.6726C19.887 38.6655 19.7315 38.5591 18.1268 38.4936C14.4262 38.3217 11.0204 37.0445 7.98297 34.6784C7.25431 34.1135 6.99233 34.0562 6.66484 34.3837C6.45197 34.5883 6.40285 34.8995 6.54203 35.1614C6.59116 35.2515 6.92683 35.5544 7.30344 35.841C10.2016 38.1088 13.6812 39.4597 17.3899 39.7626L18.5607 39.8609L18.5935 40.696C18.618 41.4492 18.6344 41.5556 18.8145 41.7439C18.9782 41.9158 19.0929 41.9568 19.404 41.9568C19.7724 41.9568 19.8625 41.9076 20.6812 41.2854C23.6777 39.0176 24.2344 38.5755 24.3981 38.3462C24.6274 38.0188 24.6929 37.4211 24.5291 37.0363C24.3818 36.6843 24.0379 36.3895 21.6718 34.6047C20.6402 33.8269 19.7233 33.1883 19.625 33.1802C19.2239 33.1556 19.0192 33.2129 18.8227 33.4094C18.6344 33.5895 18.618 33.6796 18.5935 34.4655L18.5607 35.3252L18.0204 35.2843C15.204 35.0305 12.8215 34.179 10.6356 32.6398C9.64492 31.9439 7.97478 30.2819 7.25431 29.2667C6.95139 28.841 6.44379 27.9731 6.13268 27.3427C5.19116 25.4597 4.80636 24.0106 4.6508 21.8164C4.54437 20.3591 4.42974 19.9579 3.98764 19.4749C3.45547 18.9018 2.62039 18.6234 1.87536 18.779Z" fill="#151515"/>
</g>
<defs>
<clipPath id="clip0_804_2273">
<rect width="37.7427" height="42" fill="white" transform="translate(0.0253906)"/>
</clipPath>
</defs>
</svg>
