<svg width="36" height="42" viewBox="0 0 36 42" fill="none" xmlns="http://www.w3.org/2000/svg">
<g clip-path="url(#clip0_804_2205)">
<path d="M13.4771 0.173237C13.3871 0.263296 13.2397 0.672652 13.1333 1.09839C12.7567 2.64576 12.1918 4.03757 11.5286 5.07733C11.3812 5.31476 10.7672 6.03523 10.1777 6.67383C8.78591 8.18846 7.5333 9.71945 5.93681 11.8563C2.33447 16.6621 0.525116 19.9288 0.385935 21.8446C0.328625 22.7288 0.467806 23.5967 0.697046 23.785C0.934473 23.9896 1.38476 23.9733 1.59763 23.7604C1.76137 23.5966 1.76137 23.5312 1.71225 22.6715C1.65494 21.7873 1.66312 21.73 1.91693 20.985C2.39178 19.544 3.64441 17.3662 5.52745 14.6727C7.36956 12.0446 9.45725 9.41653 11.0701 7.69722C12.8304 5.82236 13.6245 4.42236 14.2467 2.08903L14.4678 1.25394H24.1859H33.904L34.0023 2.29371C34.0514 2.87499 34.1333 3.8902 34.1742 4.56154C34.2397 5.65043 34.2643 5.7978 34.428 5.96973C34.7309 6.28903 35.2467 6.22353 35.4432 5.84693C35.5333 5.66681 35.5415 5.39663 35.476 4.40599C35.3368 2.03991 35.1567 0.492535 35.0011 0.271483L34.8537 0.0668043L24.235 0.0422429C13.9929 0.0258686 13.6163 0.0340558 13.4771 0.173237Z" fill="#151515"/>
<path d="M34.4695 7.66435C34.2976 7.83628 34.2812 7.94271 34.2239 9.23629C34.0601 13.2152 33.6917 15.8024 32.2099 23.2363C31.7186 25.7088 31.2765 27.9603 31.2192 28.2304C31.1701 28.5006 31.1128 29.3848 31.0882 30.1954C31.0309 32.0129 31.1373 33.0363 31.8005 36.9907C32.0625 38.5626 32.2999 40.0527 32.3327 40.2819L32.39 40.7158H24.3666C16.3923 40.7158 16.3514 40.7158 16.204 40.8796C16.0075 41.1006 16.0075 41.5591 16.204 41.7802C16.3514 41.9439 16.3678 41.9439 24.9069 41.9275L33.4625 41.903L33.6262 41.6901C33.7736 41.4854 33.7818 41.4199 33.6835 40.5848C33.6262 40.0936 33.3888 38.5135 33.1432 37.0644C32.5455 33.4866 32.3736 32.0866 32.3736 30.7275C32.3736 29.2129 32.4063 28.9837 33.397 24.055C34.8216 16.9568 35.2555 14.0995 35.4847 10.4234C35.6157 8.23746 35.5993 7.91815 35.3619 7.68072C35.1081 7.41873 34.7233 7.41055 34.4695 7.66435Z" fill="#151515"/>
<path d="M8.73766 13.0761C7.92715 13.3381 7.55873 13.7065 6.40435 15.3767C3.99733 18.8726 2.933 20.8457 2.84294 22.0083C2.75288 23.0972 3.35055 24.6691 4.24294 25.7416C5.08622 26.7486 6.41253 27.6001 7.7061 27.9521C8.52481 28.1814 9.57275 28.1978 10.1458 28.0013C10.9646 27.7147 11.6605 27.0188 11.9552 26.2083C12.1189 25.758 12.7412 17.1451 12.7084 15.9089C12.6839 15.1147 12.6593 15.0083 12.3973 14.5334C12.0862 13.944 11.6605 13.5428 11.0137 13.2317C10.6453 13.0516 10.4324 13.0024 9.82655 12.9861C9.35988 12.9697 8.95053 13.0024 8.73766 13.0761ZM10.5061 14.4843C10.8172 14.6399 11.0137 14.8118 11.1774 15.0738C11.3903 15.4176 11.4149 15.5159 11.4149 16.1463C11.4067 16.5393 11.2675 18.8235 11.0956 21.2387C10.8008 25.4223 10.7763 25.6434 10.588 25.979C10.2113 26.6668 9.54819 26.9451 8.62304 26.8059C7.04294 26.5603 5.67569 25.6188 4.73417 24.1369L4.57862 23.8995L4.9061 24.0796C5.08622 24.1861 5.43826 24.4562 5.68388 24.6773C5.92949 24.9065 6.22423 25.1358 6.33885 25.2013C6.66633 25.3732 7.37861 25.4878 8.24645 25.5042C9.00784 25.5288 9.06515 25.5206 9.21252 25.3323C9.42538 25.0703 9.40901 24.7019 9.17158 24.4726C9.01603 24.3089 8.86866 24.2679 8.25464 24.227C7.26399 24.1533 7.01838 24.0714 6.55171 23.6457L6.15055 23.2855L6.38797 23.2364C7.09207 23.089 7.28856 22.9907 7.72247 22.5814C8.16458 22.1638 9.05696 21.6399 9.32714 21.6399C9.40082 21.6399 9.54819 21.5498 9.65462 21.4352C9.9248 21.165 9.9248 20.7966 9.64643 20.5182C9.46632 20.3381 9.38445 20.3136 9.06515 20.3545C8.55755 20.4118 7.54236 20.944 7.00201 21.4434C6.73183 21.6972 6.42891 21.8855 6.26516 21.9264L5.97861 21.9837L6.27335 21.6399C6.43709 21.4516 6.64996 21.0913 6.75639 20.8375C6.98563 20.2399 7.08388 20.1334 7.68973 19.7896C8.50025 19.3311 8.79497 18.9954 8.79497 18.5615C8.79497 17.9393 8.05815 17.7264 7.59967 18.2095C7.46867 18.3486 7.18212 18.5533 6.96926 18.6679C6.31429 18.9954 5.88856 19.4457 5.64294 20.0679C5.52014 20.3709 5.34821 20.6983 5.25815 20.7966C5.06984 20.9931 4.54587 21.2714 4.48037 21.2059C4.31663 21.0422 6.78914 17.0141 8.15639 15.213C8.88503 14.2551 9.59731 14.034 10.5061 14.4843Z" fill="#151515"/>
<path d="M1.63954 25.2505C1.30387 25.5206 1.3448 25.9054 1.7951 26.5768C2.66293 27.8622 3.99744 29.0002 5.47931 29.7125C7.03486 30.4493 8.53311 30.7358 9.96583 30.5639C10.7518 30.4657 11.7588 30.1709 12.2255 29.9008L12.5038 29.737L12.4547 30.785C12.3974 31.9721 12.3074 32.5288 11.7424 35.5171C11.2185 38.2926 11.1448 38.8739 11.1366 40.3557C11.1284 42.0505 11.0056 41.944 12.9296 41.944C14.6243 41.944 14.6898 41.9195 14.6898 41.3136C14.6898 40.7733 14.5588 40.716 13.3799 40.716H12.3728L12.4302 39.8318C12.5038 38.7183 12.6267 37.8587 13.0851 35.4762C13.6746 32.406 13.7319 31.9721 13.7483 30.2774L13.7647 28.7218L14.0267 28.337C14.3459 27.8622 14.919 26.6587 14.9845 26.3148C15.0255 26.1101 14.9927 26.0201 14.7881 25.8154C14.305 25.3323 13.9202 25.5288 13.5109 26.4785C13.1343 27.3464 12.7085 27.9768 12.2992 28.2797C10.8337 29.344 9.098 29.5733 7.12492 28.9511C5.52843 28.4516 3.96469 27.3382 3.10504 26.0937C2.40094 25.0785 2.08983 24.8984 1.63954 25.2505Z" fill="#151515"/>
</g>
<defs>
<clipPath id="clip0_804_2205">
<rect width="35.2047" height="42" fill="white" transform="translate(0.363281)"/>
</clipPath>
</defs>
</svg>
