<svg width="42" height="42" fill="none" xmlns="http://www.w3.org/2000/svg"><path d="M39.454 14.902a3.825 3.825 0 0 0-5.408 0l-.77.769a2.513 2.513 0 0 1-3.553 0l-.769-.77a3.816 3.816 0 0 0-5.24-.152 2.983 2.983 0 0 1-.089-.696 1.585 1.585 0 0 1 1.584-1.584h16.135v-1.313H25.209a2.895 2.895 0 0 0-2.896 2.897c0 .803.225 1.59.651 2.271l.435.696a14.425 14.425 0 0 1 2.195 7.655 3.855 3.855 0 0 1-.84 2.399 4.806 4.806 0 0 1-7.507 0 3.86 3.86 0 0 1-.84-2.399 14.41 14.41 0 0 1 2.194-7.651l.435-.697c.426-.682.652-1.47.651-2.274a2.897 2.897 0 0 0-2.896-2.897H.656v1.313h16.135a1.585 1.585 0 0 1 1.584 1.584 2.988 2.988 0 0 1-.089.696 3.816 3.816 0 0 0-5.24.152l-.77.77a2.513 2.513 0 0 1-3.552 0l-.77-.77a3.824 3.824 0 0 0-5.408 0L.192 17.256l.928.928 2.354-2.354a2.513 2.513 0 0 1 3.552 0l.77.77a3.824 3.824 0 0 0 5.408 0l.77-.77a2.513 2.513 0 0 1 3.552 0l.167.167-.205.328c-.31.502-.591 1.02-.844 1.554a2.625 2.625 0 1 0-1.443 5.03 15.638 15.638 0 0 0-.107 1.767 5.173 5.173 0 0 0 1.13 3.216 6.118 6.118 0 0 0 9.553 0 5.173 5.173 0 0 0 1.13-3.216 15.78 15.78 0 0 0-.11-1.764 2.625 2.625 0 1 0-1.443-5.03 15.802 15.802 0 0 0-.843-1.554l-.206-.328.167-.167a2.513 2.513 0 0 1 3.553 0l.77.77a3.825 3.825 0 0 0 5.408 0l.77-.77a2.513 2.513 0 0 1 3.552 0l2.353 2.353.928-.928-2.352-2.356Zm-24.051 6.693a1.305 1.305 0 0 1 .347-2.564c.126.002.251.023.371.06-.308.814-.548 1.651-.718 2.504Zm10.847-2.564a1.312 1.312 0 0 1 1.313 1.313 1.333 1.333 0 0 1-.965 1.256 15.726 15.726 0 0 0-.722-2.508c.121-.039.247-.059.374-.06Z" fill="#000"/><path d="M5.25 17.719a2.625 2.625 0 1 0 0 5.25 2.625 2.625 0 0 0 0-5.25Zm0 3.937a1.313 1.313 0 1 1 0-2.625 1.313 1.313 0 0 1 0 2.625Zm31.5-3.937a2.625 2.625 0 1 0 0 5.25 2.625 2.625 0 0 0 0-5.25Zm0 3.937a1.313 1.313 0 1 1 0-2.625 1.313 1.313 0 0 1 0 2.625Zm-26.25.59a1.968 1.968 0 1 0 0 3.937 1.968 1.968 0 0 0 0-3.936Zm0 2.626a.656.656 0 1 1 0-1.313.656.656 0 0 1 0 1.313Zm21-2.56a1.97 1.97 0 1 0 0 3.939 1.97 1.97 0 0 0 0-3.939Zm0 2.625a.656.656 0 1 1 0-1.312.656.656 0 0 1 0 1.313ZM15.75 30.844a1.313 1.313 0 1 0 0-2.625 1.313 1.313 0 0 0 0 2.625ZM26.25 30.844a1.313 1.313 0 1 0 0-2.625 1.313 1.313 0 0 0 0 2.625ZM36.75 30.844a1.313 1.313 0 1 0 0-2.625 1.313 1.313 0 0 0 0 2.625ZM5.25 30.844a1.313 1.313 0 1 0 0-2.625 1.313 1.313 0 0 0 0 2.625ZM21 26.906a3.285 3.285 0 0 0 3.281-3.281c0-1.534-2.4-7.454-2.673-8.124a.656.656 0 0 0-1.216 0c-.273.67-2.673 6.59-2.673 8.124A3.285 3.285 0 0 0 21 26.906Zm0-9.384c.925 2.381 1.969 5.316 1.969 6.103a1.969 1.969 0 0 1-3.938 0c0-.782 1.044-3.719 1.969-6.103Z" fill="#000"/></svg>