<svg width="48" height="42" viewBox="0 0 48 42" fill="none" xmlns="http://www.w3.org/2000/svg">
<g clip-path="url(#clip0_804_2281)">
<path d="M10.4796 0.272032C10.2063 0.554462 10.1517 1.14665 10.3703 1.57485L10.507 1.82084L9.53212 1.7844C8.5664 1.74795 8.55728 1.74795 8.3113 1.99394C8.10175 2.19437 8.0562 2.33103 8.0562 2.66813C8.0562 3.02344 8.10175 3.14188 8.3113 3.34231C8.55728 3.57919 8.6575 3.59741 9.70522 3.67941C11.7005 3.8434 11.582 3.79784 11.8645 4.37181L12.1013 4.86379L11.8827 5.01867C10.7347 5.8204 9.96943 7.14145 9.82366 8.57181C9.78722 8.89069 9.70522 9.19138 9.64145 9.24605C9.56856 9.30071 9.15859 9.38271 8.73039 9.42826C8.29308 9.47381 7.71 9.60136 7.40935 9.72891L6.86271 9.94756L6.55295 9.4647L6.2523 8.98179L6.38896 8.50804C6.48006 8.20739 6.5165 7.7883 6.49828 7.34188C6.43451 6.12106 5.79676 5.20088 4.57594 4.58136C3.53733 4.05294 2.77204 4.32626 2.77204 5.2191C2.78115 5.74752 2.87225 5.86596 3.59199 6.2486C4.31173 6.62214 4.59416 7.00479 4.59416 7.56965C4.59416 8.08895 4.42106 8.48982 3.99286 8.96357C3.52822 9.47381 3.03624 9.71069 2.36206 9.73802C2.06141 9.75624 1.74253 9.76535 1.65143 9.77446C1.56032 9.78357 1.38722 9.88379 1.26878 10.0113C1.08657 10.1844 1.04102 10.3211 1.04102 10.6855C1.04102 11.0682 1.07746 11.1684 1.30522 11.3597C1.95208 11.8972 3.55555 11.7059 4.65794 10.968L5.04058 10.7037L5.24102 11.0226L5.43234 11.3415L5.24102 11.7332C4.93125 12.3983 4.84015 12.9176 4.8857 13.8287C4.91303 14.5849 4.95859 14.758 5.25013 15.3502C5.62366 16.1064 6.28874 16.8079 7.00848 17.227C7.44579 17.4821 7.46401 17.5185 7.50956 17.9467L7.55512 18.3931L6.10653 18.3749L4.64882 18.3476L4.19329 17.9103C3.56466 17.309 3.27312 17.1176 2.59893 16.8899C2.12518 16.735 1.9703 16.7168 1.74253 16.7988C1.24145 16.9719 1.04102 17.2361 1.04102 17.7189C1.04102 18.0834 1.07746 18.1836 1.32345 18.384C1.47833 18.5116 1.66054 18.6209 1.73342 18.6209C1.95208 18.6209 2.52605 18.9489 2.76292 19.204L2.98158 19.4317L2.00674 20.4339C1.05924 21.4087 1.04102 21.4361 1.04102 21.8552C1.04102 22.4473 1.39633 22.8118 1.9703 22.8118C2.35295 22.8118 2.38939 22.7844 3.59199 21.5545L4.82193 20.3063H6.05186C7.77377 20.3155 8.2293 20.443 8.93993 21.1536C9.50479 21.7276 10.2245 22.1467 11.0536 22.3927C11.6276 22.5567 13.0215 22.584 13.5499 22.4382C13.7504 22.3836 13.9235 22.3562 13.9417 22.3745C13.9599 22.3927 13.9144 22.6113 13.8415 22.8573C13.7686 23.0942 13.7048 23.568 13.7048 23.8959V24.4972L13.0215 25.3536C12.402 26.128 12.3382 26.2465 12.3382 26.6109C12.3382 27.1484 12.7026 27.5493 13.2037 27.5493C13.6866 27.5493 13.805 27.4582 14.5976 26.4742C15.6636 25.1532 15.618 25.2443 15.618 24.3697C15.618 23.4586 15.7365 23.0213 16.1009 22.584C16.3469 22.2834 16.4016 22.256 16.6931 22.3107C16.8662 22.338 17.2944 22.4747 17.6406 22.6022C18.1417 22.7936 18.2601 22.8664 18.2055 22.9849C17.7408 24.0326 17.6679 24.3879 17.6679 25.8183C17.677 27.1393 17.6862 27.276 17.923 27.8955C18.4423 29.2348 19.1803 30.2278 20.2189 30.9749C22.943 32.9155 26.6237 32.4964 28.8467 30.0092L29.3386 29.4534L30.3044 29.5901C31.4614 29.7632 33.156 29.7814 33.4658 29.6174C33.5933 29.5627 33.7664 29.3714 33.8666 29.2165C34.0124 28.9523 34.0215 28.8795 33.9122 28.5879C33.7026 27.9957 33.5569 27.9502 31.999 27.8864C31.2337 27.8499 30.4866 27.7953 30.3499 27.768C30.113 27.7133 30.0948 27.6768 30.1404 27.4217C30.3226 26.5471 30.3864 25.7181 30.3044 25.1532C30.2497 24.6977 30.2497 24.5428 30.3317 24.5428C30.3955 24.5428 31.015 24.6066 31.7074 24.6886C34.3404 24.9983 36.7 24.7523 37.8662 24.0599C38.9595 23.3949 39.4332 22.0829 38.9413 21.017C38.759 20.607 38.5859 20.4886 38.012 20.3975C37.2649 20.279 36.9734 19.4408 37.4744 18.876C37.7295 18.5936 37.7751 18.5753 38.3217 18.5844C39.4423 18.6027 40.399 19.2951 40.9729 20.5159C41.2007 21.0079 41.2645 21.2721 41.2918 21.9098C41.3556 23.1215 41.0094 24.0781 40.1803 25.0803C39.6701 25.6998 39.5972 25.964 39.8432 26.4378C40.0436 26.8387 40.1712 26.9116 40.654 26.9116C40.9274 26.9116 41.0549 26.8387 41.4467 26.4287C42.0206 25.8456 42.5946 24.889 42.8679 24.0873C43.0137 23.65 43.0775 23.2126 43.1139 22.3836C43.1504 21.3905 43.1321 21.1992 42.9135 20.4339C42.7768 19.9784 42.6857 19.5866 42.6948 19.5775C42.713 19.5684 42.8953 19.4682 43.1048 19.3588C43.7699 19.0309 44.6445 18.8669 45.9109 18.8578C47.4506 18.8395 47.6875 18.712 47.6875 17.892C47.6875 17.6005 47.6328 17.4547 47.4324 17.2634C47.2228 17.0447 47.0862 16.9992 46.4849 16.9536C45.6467 16.8808 44.1434 17.0083 43.369 17.2178C43.0593 17.2998 42.5126 17.5094 42.1391 17.6734L41.4649 17.9831L41.0367 17.6643C40.5174 17.2816 39.7521 16.9263 39.2783 16.8352L38.9321 16.7805L38.9959 16.3979C39.1326 15.5506 39.497 15.2317 40.5265 15.0677C40.8818 15.004 41.4011 14.922 41.6744 14.8764C42.795 14.6942 43.9157 13.9198 44.3621 13.0361C44.6263 12.4894 44.6718 11.6786 44.4532 11.3597C44.189 10.9771 43.3781 10.9224 42.9864 11.2504C42.9135 11.305 42.8133 11.5237 42.7586 11.7241C42.7039 11.9246 42.6037 12.1888 42.5217 12.2981C42.3031 12.6352 41.5378 12.945 40.3261 13.1909C38.5859 13.5463 37.848 13.9745 37.4198 14.9037C37.2193 15.3228 37.028 16.1792 37.028 16.653C37.028 16.8899 36.9642 16.9719 36.6727 17.1267L36.3083 17.3272L35.8163 17.1176C35.1968 16.8716 34.8415 16.5892 34.5317 16.1155C34.2128 15.6417 34.0853 15.1133 34.1491 14.6304C34.2037 14.1931 34.3039 14.0018 34.887 13.1636C35.4974 12.289 35.6888 11.7059 35.6979 10.7857C35.707 10.0751 35.6796 9.95668 35.379 9.31893C35.1968 8.93624 34.887 8.45338 34.7048 8.24383C34.395 7.90674 34.3222 7.8703 33.9304 7.8703C32.992 7.8703 32.7187 8.69936 33.3564 9.65602C33.6206 10.0569 33.7026 10.2664 33.73 10.6946C33.7755 11.2686 33.7117 11.4235 32.8645 12.7992C32.3725 13.5918 32.1994 14.1293 32.1994 14.8764C32.1994 16.489 33.2016 18.0105 34.7504 18.7302L35.3881 19.0309V19.5411C35.3881 19.8144 35.4519 20.2335 35.5339 20.4703C35.7161 21.0079 36.3538 21.7276 36.8367 21.9463C37.0462 22.0374 37.2102 22.1467 37.2102 22.1831C37.2102 22.3198 36.7091 22.6113 36.2081 22.7662C34.7868 23.2035 29.9217 22.8847 29.448 22.3198C29.3569 22.2105 29.1291 21.928 28.9287 21.6821C27.9721 20.4977 26.0042 19.4408 24.7469 19.4408C24.3825 19.4408 24.0454 19.1129 23.4167 18.1654C22.8154 17.2634 22.0866 15.7237 22.0866 15.3684C22.0866 15.3137 22.2141 15.0495 22.3781 14.8035L22.6606 14.3389L23.1252 14.3936C23.8085 14.4847 23.9269 14.5484 24.8927 15.3228C25.3755 15.7146 25.8766 16.1064 26.0042 16.1883C26.3413 16.4252 26.8514 16.3888 27.1794 16.1064C27.4163 15.915 27.4619 15.8057 27.4619 15.4777C27.4619 15.2591 27.4345 15.0222 27.4072 14.9493C27.3799 14.8673 27.0245 14.5484 26.6237 14.2296L25.8948 13.6556L26.1499 13.4734C26.7968 13.0178 27.0063 12.7354 27.0063 12.3163C27.0063 11.8061 26.815 11.5419 26.3777 11.4235C25.9222 11.305 25.7582 11.3688 24.8016 12.0521C24.0454 12.5805 24.018 12.5988 23.5898 12.535L23.1525 12.4712L23.1252 11.9701C23.0432 10.9133 22.7152 10.0113 22.1048 9.20049L21.8315 8.83602L22.6241 8.45338C23.0523 8.24383 23.4805 7.98873 23.5716 7.88852C23.7356 7.7063 23.7447 7.7063 25.0749 8.15272C26.6146 8.67203 26.9608 8.69936 27.3616 8.36227C27.6076 8.16184 27.6441 8.07073 27.6441 7.68808C27.6441 7.05034 27.4436 6.89546 25.9677 6.4126L24.7196 6.01173L24.7742 5.63819C24.9018 4.80912 24.3642 2.97789 23.8449 2.45858C23.6627 2.26726 23.517 2.22171 23.1799 2.22171C22.3144 2.22171 22.0228 2.94145 22.4875 3.96184C22.615 4.23515 22.7608 4.64513 22.8154 4.8729C23.107 6.02084 22.2324 6.82257 20.2827 7.19611C19.235 7.39654 19.2532 7.40565 18.907 6.72236C18.4879 5.91151 17.6953 5.13711 16.8389 4.71802C16.4744 4.53581 16.1647 4.35359 16.1647 4.31715C16.1647 4.14405 16.4562 3.45164 16.6293 3.20565C16.8935 2.84123 17.6042 2.53147 18.3512 2.44947C19.2714 2.35837 19.5265 2.15793 19.5356 1.51108C19.5356 1.1922 19.4809 1.06466 19.2714 0.846002C19.0254 0.600015 18.9525 0.581794 18.333 0.581794C17.0849 0.581794 16.1556 0.937107 15.3903 1.71151C14.8801 2.23082 14.5157 2.91411 14.3426 3.70674C14.2514 4.08027 14.1786 4.22604 14.0875 4.20782C14.0146 4.1896 13.4953 3.30587 12.9213 2.23993C12.3564 1.16487 11.8189 0.23559 11.7278 0.162705C11.6367 0.0989304 11.3725 0.0351562 11.1447 0.0351562C10.8076 0.0351562 10.671 0.0807094 10.4796 0.272032ZM15.6272 6.18483C16.5655 6.52192 17.2397 7.24166 17.5313 8.25294C17.7499 8.98179 17.9048 9.10934 18.6792 9.23694C21.0753 9.62869 22.0957 12.3163 20.5469 14.1567C20.3465 14.3936 20.1551 14.6942 20.1187 14.8218C20.0003 15.3046 20.7655 17.309 21.6311 18.7667C21.8862 19.2131 22.1048 19.6048 22.1139 19.6413C22.123 19.6868 21.9044 19.8144 21.6128 19.9328C20.9022 20.2244 20.3829 20.5432 19.8727 20.9896L19.4354 21.3814L18.8159 21.0899C17.677 20.5706 16.5473 20.3246 15.2081 20.3246C14.215 20.3155 13.9326 20.3428 13.4406 20.5159C12.3109 20.9077 11.1994 20.6981 10.3612 19.951C9.66878 19.3315 9.5139 18.9306 9.27702 17.1905C9.20414 16.6803 8.70306 16.0699 8.01976 15.6508C7.67355 15.4413 7.30913 15.1771 7.21802 15.0586C6.39807 14.0473 6.55295 12.4894 7.546 11.7697C8.0562 11.3962 8.25663 11.3324 9.12214 11.2413C10.753 11.0682 11.4636 10.4395 11.6185 9.02735C11.7825 7.56965 12.484 6.60392 13.6957 6.17572C14.1512 6.01173 15.1443 6.02084 15.6272 6.18483ZM25.3755 21.4543C26.5235 21.7823 27.5439 22.6569 28.0905 23.7684C28.8011 25.2079 28.71 26.9116 27.8445 28.2417C26.9426 29.6265 25.6488 30.328 23.9998 30.328C22.7334 30.328 21.8133 29.9727 20.9113 29.1528C19.4627 27.8226 19.0254 25.627 19.8545 23.8595C20.5196 22.4656 21.8315 21.4907 23.3621 21.2721C23.9998 21.1719 24.6102 21.2265 25.3755 21.4543Z" fill="#151515"/>
<path d="M14.0053 10.5942C12.6752 11.0497 11.9099 12.1248 11.6821 13.8376C11.4817 15.4228 12.1832 16.7347 13.5862 17.3634C13.9233 17.5183 14.1967 17.5638 14.798 17.5638C15.3993 17.5638 15.6726 17.5183 16.0097 17.3634C17.3398 16.7621 18.0687 15.4957 17.9411 14.0198C17.7771 12.2614 17.1394 11.0588 16.1281 10.5942C15.6361 10.3755 14.6431 10.3664 14.0053 10.5942ZM15.5997 12.3616C15.9186 12.6987 16.0917 13.2545 16.1372 14.0653C16.1828 14.7669 16.1646 14.8671 15.9732 15.1495C15.627 15.6506 15.3173 15.8328 14.798 15.8328C13.9962 15.8328 13.4314 15.2224 13.4314 14.3478C13.4314 13.3274 13.7867 12.635 14.47 12.3252C14.9802 12.0974 15.3628 12.1065 15.5997 12.3616Z" fill="#151515"/>
<path d="M23.0801 23.2945C20.8389 24.1327 20.7204 27.2394 22.8979 28.2962C23.4992 28.5878 24.5105 28.5878 25.13 28.2871C26.7699 27.4854 27.2072 25.2897 25.9773 24.0142C25.4306 23.4402 24.966 23.2398 24.146 23.2034C23.6814 23.1852 23.2896 23.2216 23.0801 23.2945ZM24.4558 25.0437C25.2849 25.4719 24.9387 26.7292 24.0003 26.7292C23.071 26.7292 22.7157 25.4901 23.5265 25.0528C23.8454 24.8706 24.1278 24.8706 24.4558 25.0437Z" fill="#151515"/>
<path d="M36.4368 27.4123C36.2545 27.5854 36.209 27.7221 36.209 28.0774C36.209 28.5694 36.4185 28.8518 36.8558 28.9611C37.366 29.0887 38.0311 28.5603 38.0311 28.0319C38.0311 27.9408 37.9036 27.713 37.7487 27.5217C37.5027 27.221 37.4207 27.1846 37.0654 27.1846C36.7556 27.1846 36.6007 27.2392 36.4368 27.4123Z" fill="#151515"/>
<path d="M15.163 31.9224C14.2884 32.2686 13.4775 32.633 13.3682 32.7424C13.0493 33.0521 13.0311 33.371 13.3044 34.1454C13.4411 34.5372 13.5139 34.8834 13.4684 34.9289C13.4228 34.9654 12.9764 35.1294 12.4844 35.2933C11.3821 35.6578 11.1543 35.8491 11.1543 36.4322C11.1543 36.9697 11.5187 37.3888 11.9925 37.3888C12.448 37.3888 15.3179 36.4048 15.5365 36.1771C15.8463 35.84 15.8463 35.5758 15.5638 34.7285L15.2905 33.9359L16.4202 33.5077C17.1582 33.2252 17.6046 32.9975 17.7231 32.8517C17.9144 32.6057 17.9599 32.0226 17.8051 31.7311C17.6866 31.5215 17.2493 31.2847 16.9669 31.2847C16.8484 31.2847 16.0376 31.5762 15.163 31.9224Z" fill="#151515"/>
<path d="M20.1193 34.3277L19.7822 34.6648L19.8551 35.9221L19.9188 37.1793L19.5635 37.234C19.3722 37.2704 19.0351 37.2978 18.8074 37.2978C18.2972 37.2978 17.8325 37.562 17.7505 37.9082C17.6867 38.1633 17.8507 40.368 17.9874 41.1242C18.0876 41.6526 18.4065 41.9442 18.9076 41.9442C19.7184 41.9442 19.9462 41.5342 19.8095 40.3316C19.6638 39.0379 19.6 39.1563 20.511 39.0926C21.2308 39.0379 21.331 39.0106 21.5679 38.7737C21.823 38.5186 21.8321 38.473 21.823 37.6986C21.823 37.2522 21.7865 36.3776 21.7592 35.7581C21.7045 34.7103 21.6772 34.6101 21.4585 34.3641C21.2946 34.1819 21.1032 34.0817 20.839 34.0453C20.4837 33.9997 20.4199 34.0271 20.1193 34.3277Z" fill="#151515"/>
</g>
<defs>
<clipPath id="clip0_804_2281">
<rect width="46.7375" height="42" fill="white" transform="translate(0.964844)"/>
</clipPath>
</defs>
</svg>
