<svg width="32" height="42" viewBox="0 0 32 42" fill="none" xmlns="http://www.w3.org/2000/svg">
<g clip-path="url(#clip0_804_2294)">
<path d="M14.5724 0.0863178C14.4496 0.135441 14.2285 0.544797 14.2285 0.716727C14.2285 0.782224 14.3268 0.978714 14.4414 1.15064C15.039 2.02667 15.7923 3.74597 16.2426 5.29333C16.4063 5.85825 16.6437 6.46409 16.7911 6.69333C17.4379 7.70035 18.756 8.26525 19.9759 8.0524C20.68 7.9214 21.1057 7.72491 21.5642 7.29918C22.08 6.82433 22.2601 6.5214 22.6203 5.51439C23.2753 3.69684 23.8566 2.82082 25.2484 1.60912C25.7806 1.14246 25.8542 1.04421 25.8542 0.790411C25.8542 0.389242 25.5513 0.110879 25.1256 0.110879C24.8554 0.110879 24.7162 0.176376 24.3233 0.503862C22.8823 1.70737 21.9735 3.05006 21.3104 4.94129C21.1548 5.40795 20.9256 5.90737 20.8192 6.05474C20.3852 6.61965 19.3946 6.83252 18.6823 6.50503C18.142 6.25942 17.88 5.85825 17.5852 4.82667C17.1104 3.2138 16.2426 1.22433 15.6203 0.36468C15.3993 0.0617562 15.342 0.0290076 15.0227 0.0371948C14.8344 0.0371948 14.6297 0.0617562 14.5724 0.0863178Z" fill="#151515"/>
<path d="M30.0457 3.14043C29.9475 3.18137 29.841 3.2878 29.8083 3.36148C29.7755 3.44336 29.5627 3.72991 29.3334 4.00008C27.3194 6.33341 25.8375 9.08427 25.1171 11.8433C24.7323 13.3006 24.5931 14.3977 24.5931 15.9942C24.6013 18.7369 24.9943 20.448 26.6481 24.7954C28.0972 28.6024 28.3346 29.5276 28.3182 31.386C28.3101 33.5884 27.3603 35.6188 25.4527 37.5346C23.5697 39.4094 21.4492 40.441 19.2551 40.5311C17.1674 40.6211 15.3908 39.9252 13.9744 38.4515C10.8469 35.193 10.9779 30.2235 14.2855 26.6129C14.7358 26.1299 14.8013 26.0071 14.8013 25.7369C14.8013 25.3603 14.5147 25.0819 14.1136 25.0819C13.9089 25.0819 13.7697 25.1802 13.3603 25.6141C12.2878 26.7521 11.3545 28.2995 10.8715 29.7322C10.4785 30.903 10.3557 31.8199 10.4048 33.1872C10.4539 34.5626 10.6504 35.4714 11.1744 36.6831C11.6329 37.7311 12.6399 39.2129 13.2948 39.7942C14.441 40.8094 15.9229 41.5626 17.3229 41.8328C18.1089 41.9802 19.689 41.9802 20.5077 41.8246C24.151 41.1369 27.737 38.1322 29.1206 34.6199C29.6118 33.3837 29.7428 32.6305 29.7346 31.1814C29.7264 29.2574 29.4562 28.193 28.0071 24.386C26.4024 20.1697 26.0177 18.5486 26.0095 16.0024C26.0095 12.1299 27.4504 8.47843 30.3568 4.99891C30.9627 4.27026 31.0937 4.06558 31.0937 3.83634C31.0937 3.45154 31.0282 3.31236 30.758 3.18137C30.496 3.04219 30.3159 3.034 30.0457 3.14043Z" fill="#151515"/>
<path d="M8.21057 3.23852C7.9404 3.3777 7.84215 3.56601 7.84215 3.90168C7.84215 4.19641 7.90765 4.27829 8.80823 5.17068C10.1919 6.54612 10.9369 7.72507 11.379 9.25604C11.5345 9.79639 11.5673 10.0911 11.5673 11.1636C11.5673 12.621 11.4527 13.1777 10.8386 14.7005C10.11 16.5017 8.95559 18.2864 6.11467 21.9707C3.30648 25.6221 2.25034 27.1941 1.47256 28.8397C0.686596 30.5262 0.424608 31.7052 0.490105 33.3262C0.539228 34.5461 0.752093 35.3239 1.34157 36.4619C2.57782 38.8689 5.0094 40.4818 7.67841 40.6864L8.40706 40.7438L8.66086 40.4818C8.94741 40.1952 8.95559 39.966 8.66904 39.573C8.53806 39.3929 8.42344 39.3519 7.67022 39.2619C5.99186 39.049 4.87841 38.5169 3.74858 37.3707C3.21642 36.8303 2.96262 36.4946 2.66788 35.9297C2.01291 34.6689 1.90648 34.2268 1.91467 32.9005C1.91467 31.9017 1.94742 31.656 2.13572 31.0174C2.43864 30.0186 3.26554 28.373 4.10882 27.104C4.78016 26.097 5.14858 25.5894 7.96496 21.897C10.0445 19.1707 10.9205 17.828 11.7638 16.0759C12.6562 14.2256 13.0246 12.7847 13.0164 11.1227C13.0164 8.47826 12.0585 6.41513 9.74975 4.07361C8.80823 3.11571 8.61992 3.00928 8.21057 3.23852Z" fill="#151515"/>
<path d="M15.2031 14.1847C14.7856 14.6022 14.9411 15.1999 15.5142 15.3718C15.7271 15.4373 16.1528 15.2408 16.2265 15.0525C16.251 14.9788 16.2756 14.7741 16.2756 14.6022C16.2756 14.3566 16.2265 14.2502 16.0627 14.1192C15.7598 13.8818 15.4896 13.9063 15.2031 14.1847Z" fill="#151515"/>
<path d="M14.5384 16.649C14.4238 16.7309 14.2682 16.9847 14.1864 17.1976C13.7934 18.2373 12.8191 19.973 12.0495 20.98C11.7302 21.3976 11.6975 21.6923 11.9431 22.0034C12.0741 22.1671 12.1805 22.2163 12.4261 22.2163C12.6963 22.2163 12.7864 22.1671 13.0402 21.8642C14.0799 20.6689 15.7174 17.5332 15.5864 17.0011C15.4636 16.5344 14.9232 16.3461 14.5384 16.649Z" fill="#151515"/>
</g>
<defs>
<clipPath id="clip0_804_2294">
<rect width="30.7018" height="42" fill="white" transform="translate(0.410156)"/>
</clipPath>
</defs>
</svg>
