<svg width="43" height="42" viewBox="0 0 43 42" fill="none" xmlns="http://www.w3.org/2000/svg">
<g clip-path="url(#clip0_804_2319)">
<path d="M19.2486 0.154048C16.9301 0.483984 14.7543 1.09036 12.8995 1.93749L12.2664 2.22284L11.9632 2.00883C8.66389 -0.282895 4.89192 -0.336398 2.48428 1.88399C0.870267 3.37316 0.379821 5.54004 1.15562 7.77825C1.44097 8.59864 2.0295 9.67762 2.59128 10.4356C3.00147 10.9706 3.13523 11.2203 3.13523 11.4521C3.14415 12.0228 3.39383 12.9591 3.72377 13.5744C4.14287 14.3681 5.1951 15.3935 5.99765 15.7948C6.73778 16.1515 7.75434 16.3744 8.38746 16.3031C9.45752 16.1783 10.4206 15.4916 10.8308 14.5732C10.9288 14.3324 11.0269 13.8865 11.0537 13.5298C11.1429 12.1655 10.6435 10.9884 9.51995 9.8738C8.44988 8.82157 7.49574 8.40246 6.13141 8.40246C5.33778 8.40246 5.37345 8.42921 4.883 7.55532C4.04479 6.07507 4.09829 4.96934 5.02568 4.30055C5.57854 3.89927 6.2295 3.73876 7.13905 3.78335C8.40529 3.84577 9.51994 4.39864 10.7683 5.57571C13.1136 7.77825 13.5505 10.1591 12.4091 14.5107C11.883 16.5171 11.8295 16.9005 11.8295 18.6572C11.8295 20.1732 11.8473 20.3783 12.0702 21.1541C12.3288 22.0904 12.8995 23.5082 13.0601 23.633C13.3187 23.8381 13.6218 23.8203 13.8626 23.5974C14.1747 23.312 14.1658 23.1248 13.7823 22.2241C13.3632 21.2165 13.1314 20.2267 13.0601 19.1388C12.9887 17.9439 13.1403 16.8292 13.6218 14.912C14.8346 10.1324 14.3976 7.50182 12.0167 5.02284C11.0804 4.05978 10.3938 3.54259 9.45752 3.10564C8.52122 2.65978 7.86135 2.50819 6.88045 2.50819C4.75816 2.49927 3.23332 3.64959 3.00147 5.42411C2.90338 6.22666 3.34924 7.6445 4.02695 8.61647L4.30338 9.02666L4.0002 9.33876C3.83077 9.50819 3.67026 9.65087 3.64351 9.65087C3.43842 9.65087 2.52886 7.94768 2.25243 7.02921C1.63715 5.03176 2.49319 3.06997 4.39256 2.11583C6.50593 1.04577 9.083 1.45596 11.4817 3.24832C11.7314 3.43558 12.0346 3.58717 12.1594 3.58717C12.2843 3.58717 12.7836 3.39991 13.2651 3.17698C15.7887 1.99991 19.0346 1.2687 21.7722 1.2687C24.5097 1.2687 27.7556 1.99991 30.2792 3.17698C30.7607 3.39991 31.2601 3.58717 31.3849 3.58717C31.5097 3.58717 31.8664 3.39991 32.1964 3.15915C33.6588 2.08908 35.139 1.53622 36.5747 1.53622C37.3683 1.53622 37.6091 1.41138 37.6983 0.947681C37.7429 0.689079 37.7161 0.59099 37.5734 0.439398C37.404 0.278888 37.2881 0.252137 36.5301 0.269971C35.0142 0.296723 33.3823 0.822837 31.9823 1.74131L31.269 2.21392L30.4218 1.8394C28.8078 1.13494 27.0957 0.626659 25.1161 0.278888C23.7339 0.0292073 20.5773 -0.0332131 19.2486 0.154048ZM7.54924 9.96297C8.28937 10.3197 9.11867 11.1579 9.49319 11.9426C9.73394 12.4598 9.77853 12.647 9.77853 13.2267C9.77853 13.8152 9.74286 13.949 9.52886 14.27C8.49447 15.8394 5.52504 14.7872 4.64224 12.5311C4.19638 11.3808 4.46389 10.2572 5.29319 9.83813C5.83714 9.55278 6.80912 9.6152 7.54924 9.96297Z" fill="#151515"/>
<path d="M39.7506 1.38472C39.6704 1.44714 39.5723 1.66115 39.5455 1.84841C39.501 2.19618 39.5188 2.22293 40.036 2.66879C41.65 4.07771 41.9175 6.02166 40.8029 8.25987C40.464 8.92866 39.9914 9.65096 39.8933 9.65096C39.8576 9.65096 39.6971 9.50828 39.5366 9.33886L39.2424 9.02675L39.5188 8.62548C39.9201 8.03694 40.3035 7.15414 40.4729 6.43185C40.5889 5.90573 40.5889 5.71847 40.4997 5.25478C40.1608 3.51593 38.743 2.49937 36.6653 2.50828C34.7927 2.50828 33.2143 3.28408 31.529 5.02293C29.1659 7.47516 28.7111 10.2038 29.8882 14.7873C30.5124 17.2038 30.6462 18.6662 30.3787 20.2178C30.1825 21.3325 29.7634 22.3401 28.4615 24.8102C27.8283 26.014 27.1328 27.4229 26.9099 27.958C25.492 31.293 24.8143 34.7885 24.636 39.6484C24.5557 41.8331 24.5736 41.9312 25.1621 41.9312C25.7774 41.9312 25.8755 41.744 25.8755 40.6115C25.8755 37.8115 26.2768 34.4051 26.892 31.9885C27.436 29.8395 28.0869 28.2522 29.6296 25.3452C31.315 22.1529 31.6449 21.1631 31.7341 19.1032C31.7876 17.6854 31.6449 16.4726 31.1812 14.6981C30.1914 10.8548 30.3073 8.87516 31.636 6.86879C32.0997 6.17325 33.3124 5.0051 34.0258 4.57707C35.6576 3.59618 37.4054 3.48917 38.5201 4.30064C39.5188 5.02293 39.492 6.33376 38.4487 7.93886L38.1366 8.40255H37.4232C37.0309 8.40255 36.5137 8.45605 36.264 8.52739C34.5341 8.99108 32.9111 10.6764 32.5634 12.3885C32.4207 13.0752 32.492 14.0561 32.715 14.5732C33.1252 15.4917 34.0882 16.1783 35.1583 16.3032C35.7914 16.3745 36.808 16.1516 37.5481 15.7949C38.3506 15.3936 39.4029 14.3682 39.822 13.5745C40.1519 12.9592 40.4016 12.0229 40.4105 11.4522C40.4105 11.2204 40.5443 10.9707 40.9545 10.4357C41.7392 9.38344 42.3812 8.03694 42.6487 6.88663C42.7022 6.6637 42.7379 6.11975 42.7379 5.67389C42.7379 4.24714 42.1672 2.92739 41.1596 1.97325C40.4016 1.25987 40.0984 1.13503 39.7506 1.38472ZM38.2436 9.83822C38.9748 10.1949 39.2869 11.0688 39.0373 12.0675C38.3863 14.5911 35.1583 16.0089 34.008 14.2701C33.8029 13.949 33.7672 13.8153 33.7672 13.2268C33.7672 12.6561 33.8118 12.4599 34.0436 11.9694C34.8908 10.2038 36.8971 9.18726 38.2436 9.83822Z" fill="#151515"/>
<path d="M20.5691 4.60373C20.2749 4.67507 19.8112 4.81774 19.5437 4.92475C18.7857 5.22793 18.5717 5.28144 17.7335 5.37061C16.6456 5.49545 16.2354 5.73621 15.9322 6.45851C15.7539 6.91328 15.7628 7.10946 16.0303 8.01902C16.3424 9.11583 16.5118 10.3197 16.5118 11.5235C16.5118 12.7719 16.4137 13.6369 16.057 15.447C15.7271 17.0967 15.629 18.7642 15.7984 19.7897C15.95 20.7528 16.2265 21.5732 17.0379 23.5349C17.8316 25.4343 18.2774 26.754 18.6519 28.3235C19.3832 31.3107 19.8023 35.4483 19.8201 39.7464C19.829 41.8598 19.8469 41.9311 20.4443 41.9311C20.7742 41.9311 21.0507 41.7617 21.0685 41.5477C21.1131 40.9146 20.9258 36.1528 20.7921 34.4407C20.5691 31.7209 20.0787 28.8585 19.4902 26.7897C19.1424 25.577 18.7322 24.4534 17.9921 22.6967C16.7615 19.7808 16.6545 18.7732 17.2252 15.7502C17.5908 13.8419 17.68 13.0037 17.68 11.5235C17.68 10.0878 17.573 9.16934 17.2965 8.14386C17.0469 7.22539 17.0112 6.90437 17.1271 6.76169C17.1895 6.69036 17.5105 6.61902 17.9207 6.58335C18.3309 6.54768 18.9284 6.405 19.3742 6.25341C20.6316 5.79863 20.9883 5.71838 21.773 5.71838C22.5577 5.71838 22.9144 5.79863 24.1717 6.25341C24.6176 6.405 25.215 6.54768 25.6252 6.58335C26.0354 6.61902 26.3564 6.69036 26.4188 6.76169C26.5348 6.90437 26.4991 7.22539 26.2494 8.15278C25.973 9.17825 25.857 10.177 25.857 11.6126C25.857 13.0662 25.9462 13.8063 26.3386 15.8037C26.5526 16.9184 26.6061 17.4267 26.615 18.3897C26.615 19.7719 26.4723 20.4674 25.866 21.9298C24.8048 24.498 24.4927 25.3005 24.2163 26.2369C23.1641 29.6878 22.7004 33.2547 22.4953 39.3897C22.415 41.8241 22.4418 41.9311 23.1195 41.9311C23.6812 41.9311 23.708 41.8509 23.7258 39.7018C23.7704 34.0305 24.3768 29.4649 25.5449 26.0139C25.7144 25.5235 26.1691 24.3375 26.5615 23.3833C26.9628 22.4292 27.364 21.377 27.4621 21.056C27.9169 19.5668 27.9437 17.819 27.5246 15.7146C26.8736 12.4152 26.8736 10.2483 27.5156 8.01902C27.7832 7.10946 27.7921 6.91328 27.6137 6.45851C27.3105 5.73621 26.9004 5.49545 25.8125 5.37061C25.2953 5.31711 24.6621 5.16551 23.9666 4.91583C23.0481 4.59481 22.7806 4.54131 22.0048 4.51456C21.4341 4.49672 20.908 4.52348 20.5691 4.60373Z" fill="#151515"/>
<path d="M14.8438 25.6751C14.7457 25.6929 14.6119 25.8267 14.5495 25.9694C14.4336 26.2458 14.4514 26.2815 15.0845 27.5923C15.3877 28.2343 15.6909 28.4483 16.0298 28.27C16.538 28.0025 16.538 27.6636 16.0298 26.6114C15.5661 25.6662 15.4323 25.5592 14.8438 25.6751Z" fill="#151515"/>
<path d="M16.4946 30.1783C16.2717 30.4013 16.2895 30.5885 16.6373 31.9529C17.2258 34.2624 17.5468 36.7236 17.6449 39.7376C17.7073 41.8599 17.7341 41.9312 18.385 41.9312C18.9736 41.9312 18.9914 41.842 18.9112 39.6127C18.822 37.4548 18.6526 35.6 18.3761 33.9771C18.1532 32.6573 17.6271 30.5529 17.4487 30.2853C17.2793 30.0178 16.7175 29.9554 16.4946 30.1783Z" fill="#151515"/>
</g>
<defs>
<clipPath id="clip0_804_2319">
<rect width="42" height="42" fill="white" transform="translate(0.761719)"/>
</clipPath>
</defs>
</svg>
