<svg width="43" height="42" fill="none" xmlns="http://www.w3.org/2000/svg"><path d="M25.325 34.092a9.27 9.27 0 0 1-2.204-.267c-2.7-.666-3.794-1.923-4.23-2.737-1.732.353-6.37.888-8.296-2.967a4.17 4.17 0 0 1 .759-5.173 5.504 5.504 0 0 1 3.89-1.514 4.795 4.795 0 0 1 2.471-2.341c1.351-.505 2.9-.246 4.604.768a.74.74 0 0 1-.756 1.272c-1.296-.772-2.413-.994-3.32-.658a3.643 3.643 0 0 0-1.875 2.066.74.74 0 0 1-1.066.41c-.323-.182-1.85.042-2.93 1.07a2.68 2.68 0 0 0-.454 3.438c1.787 3.576 7.161 2.067 7.216 2.052a.738.738 0 0 1 .939.605c.01.043.337 1.516 3.402 2.27 2.377.586 4.612-.048 5.4-.998a1.393 1.393 0 0 0 .14-1.593.74.74 0 1 1 1.345-.618 2.853 2.853 0 0 1-.345 3.153c-.929 1.122-2.726 1.762-4.69 1.762Z" fill="#222"/><path d="M9.627 27.287A7.766 7.766 0 0 1 5 25.865c-1.679-1.252-2.674-3.243-2.958-5.917-.472-4.428 3.014-6.43 5.281-6.985.353-1.149 1.533-3.933 4.791-4.397a11.194 11.194 0 0 1 5.785.645c.926-1.127 2.948-2.424 6.085-1.649 3.076.758 4.275 2.005 4.734 2.785 1.716-.2 6.561-.261 8.391 4.923 1.209 3.424-.475 4.784-1.257 5.211-2.01 1.098-5.084.303-6.189-1.12-1.915-2.46-.62-4.172-.564-4.244a.742.742 0 0 1 1.049-.14.74.74 0 0 1 .115 1.052c-.014.022-.61.91.567 2.425.704.906 3.008 1.44 4.313.729 1.23-.672.988-2.232.568-3.42-1.785-5.059-7.055-3.929-7.277-3.879a.74.74 0 0 1-.893-.588s-.435-1.44-3.92-2.298c-3.485-.859-4.772 1.405-4.826 1.5a.746.746 0 0 1-1.017.29 9.389 9.389 0 0 0-5.465-.758c-2.983.426-3.648 3.574-3.675 3.707a.74.74 0 0 1-.603.586c-.203.036-5.016.923-4.532 5.469.246 2.244 1.042 3.886 2.371 4.882a6.796 6.796 0 0 0 4.76 1.064.74.74 0 0 1 .268 1.456 7.65 7.65 0 0 1-1.274.093Z" fill="#222"/><path d="M36.699 30.056h-.016a.74.74 0 0 1-.723-.755.725.725 0 0 1 .755-.723c.066 0 1.971-.08 2.706-3.704.764-3.772-3.039-5.91-3.078-5.931a.74.74 0 0 1 .712-1.298c1.661.912 4.597 3.657 3.815 7.522-.966 4.776-3.9 4.89-4.171 4.89Z" fill="#222"/><path d="M32.409 34.67a10.558 10.558 0 0 1-4.532-1.275.74.74 0 1 1 .725-1.29c.028.016 2.94 1.627 4.97.905a2.648 2.648 0 0 0 1.589-1.649 4.771 4.771 0 0 0-.222-4.49 5.527 5.527 0 0 0-4.445-2.327.74.74 0 0 1 .074-1.48 7.003 7.003 0 0 1 5.615 3.005 6.27 6.27 0 0 1 .35 5.837 4.1 4.1 0 0 1-2.474 2.498 4.939 4.939 0 0 1-1.65.266ZM20.35 16.262a.74.74 0 0 1-.204-1.451 1.49 1.49 0 0 0 1.09-.895 2.24 2.24 0 0 0-.413-1.93.74.74 0 1 1 1.216-.842 3.67 3.67 0 0 1 .592 3.27 2.958 2.958 0 0 1-2.076 1.82.722.722 0 0 1-.205.028Z" fill="#222"/><path d="M25.785 20.323a.74.74 0 0 1-.74-.716c-.148-4.532-3.009-4.787-3.13-4.795a.74.74 0 0 1 .082-1.478c.043 0 4.337.291 4.526 6.226a.74.74 0 0 1-.715.763h-.023Zm-5.032 8.148a.739.739 0 0 1-.61-1.156 2.297 2.297 0 0 0 .517-1.849 1.916 1.916 0 0 0-1.11-.961.74.74 0 0 1 .437-1.415 3.385 3.385 0 0 1 2.07 1.884 3.51 3.51 0 0 1-.688 3.168.74.74 0 0 1-.616.329Z" fill="#222"/><path d="M26.915 28.47a.74.74 0 0 1-.715-.553 2.836 2.836 0 0 0-1.412-2.006c-1.294-.613-3 .164-3.016.172a.741.741 0 0 1-1.053-.636.74.74 0 0 1 .425-.703c.094-.046 2.34-1.079 4.267-.175a4.227 4.227 0 0 1 2.219 2.976.74.74 0 0 1-.717.926h.002ZM6.718 21.63a.74.74 0 0 1-.675-1.036 3.318 3.318 0 0 1 2.117-1.82c.99-.209 2.038.19 3.106 1.182a.742.742 0 0 1 .041 1.046.74.74 0 0 1-1.045.041 2.362 2.362 0 0 0-1.798-.82 1.808 1.808 0 0 0-1.072.975.744.744 0 0 1-.674.432Zm8.608-4.746a.74.74 0 0 1-.356-.092 3.36 3.36 0 0 1-1.85-2.244 3.713 3.713 0 0 1 .717-2.762.74.74 0 0 1 1.165.91 2.223 2.223 0 0 0-.43 1.565 1.98 1.98 0 0 0 1.11 1.235.74.74 0 0 1-.358 1.388h.002Z" fill="#222"/><path d="M8.743 20.2h-.02a.74.74 0 0 1-.72-.757 6.023 6.023 0 0 1 5.77-5.987.741.741 0 1 1 .092 1.48c-4.202.262-4.378 4.373-4.384 4.549a.74.74 0 0 1-.738.714Z" fill="#222"/></svg>