<svg width="43" height="42" fill="none" xmlns="http://www.w3.org/2000/svg"><path d="M41.03 11.432v-.066a2.617 2.617 0 0 0-.066-.315 6.071 6.071 0 0 0-.118-.643c0-.315-.157-.63-.25-.945l-.065-.275c-.131-.42-.302-.827-.472-1.234a.767.767 0 0 1 0-.105c-.158-.355-.341-.696-.525-1.037l-.21-.25c-.17-.288-.341-.564-.538-.84l-.224-.236a12.25 12.25 0 0 0-.616-.774l-.224-.25c-.288-.314-.59-.63-.905-.918a7.653 7.653 0 0 0-1.798-1.313 7.455 7.455 0 0 0-7.783.722A7.244 7.244 0 0 0 24.4 8.715a6.9 6.9 0 0 0 .105 1.168c.015.102.037.203.065.302.055.285.13.566.223.84.03.094.065.186.105.276.101.28.224.552.368.813l.131.25c.066.105.105.21.17.302.066.091-.117.511-.157.774a8.676 8.676 0 0 0-3.911 3.307 8.597 8.597 0 0 0-3.806-3.451 7.353 7.353 0 0 0-.131-.775c0-.079.078-.17.13-.25l.21-.38c.106-.21.21-.433.303-.656.091-.223.105-.262.144-.407.04-.144.144-.499.197-.748.032-.117.059-.235.079-.354.068-.382.103-.768.105-1.155a7.245 7.245 0 0 0-2.835-5.762 7.455 7.455 0 0 0-7.783-.722c-.66.347-1.266.79-1.799 1.312-.325.291-.632.602-.918.932l-.197.223c-.223.263-.433.512-.63.788l-.197.276c-.197.275-.368.55-.538.84l-.158.262c-.183.341-.367.683-.525 1.037v.105c-.17.407-.341.814-.472 1.234 0 0 0 .144-.066.21-.092.315-.184.643-.25.958a6.08 6.08 0 0 0-.117.643c-.007.105-.007.21 0 .315v.066a13.48 13.48 0 0 0-.433 2.06v4.778c-.002.592.038 1.184.118 1.771v.29a13.204 13.204 0 0 0 3.819 7.375c.413.42.851.815 1.313 1.182.436.308.902.571 1.39.787a7.27 7.27 0 0 0 2.993.657 6.904 6.904 0 0 0 3.492-.92l.183-.117c.26-.154.51-.325.748-.512l.092-.079a8.688 8.688 0 0 0 3.071-6.563 8.974 8.974 0 0 0-.13-1.456c0-.132-.066-.25-.093-.381a9.558 9.558 0 0 0-.288-1.05c0-.118-.092-.236-.145-.354a8.328 8.328 0 0 0-.498-1.037 3.135 3.135 0 0 0-.171-.276c-.079-.144-.158-.302-.25-.446a5.78 5.78 0 0 0 .171-.683A6.709 6.709 0 0 1 20.188 21v18.375a1.313 1.313 0 0 0 2.625 0V21a6.694 6.694 0 0 1 2.625-4.751c.044.226.101.45.17.67-.079.117-.131.248-.21.367a6.806 6.806 0 0 0-.289.485c-.092.17-.262.525-.38.8l-.21.513c-.105.302-.17.617-.25.932-.078.315-.078.302-.105.459-.083.477-.127.96-.13 1.444a8.687 8.687 0 0 0 3.07 6.562c.04.019.076.046.105.079.28.216.574.414.88.59.154.079.311.149.472.21.192.099.39.187.59.263a7.022 7.022 0 0 0 2.324.394 7.259 7.259 0 0 0 2.992-.67 6.557 6.557 0 0 0 1.313-.748 14.57 14.57 0 0 0 1.64-1.47 13.125 13.125 0 0 0 3.689-9.187v-4.594c.02-.64-.007-1.28-.079-1.916ZM4.438 13.873v-1.391c6.43-2.625 9.725-.144 10.5.525.185.49.283 1.01.288 1.536.007.109.007.218 0 .328a10.842 10.842 0 0 0-10.788-.998Zm3.596-8.492c.349-.374.757-.689 1.207-.932a4.725 4.725 0 0 1 4.988.447 4.646 4.646 0 0 1 1.824 3.688 5.525 5.525 0 0 1-.079.827l-.078.315c0 .157-.092.301-.145.459a.71.71 0 0 1-.065.144 10.5 10.5 0 0 0-5.841-1.693c-1.574.02-3.136.276-4.633.762 0 0 0-.119.066-.171.065-.053.144-.315.223-.473.078-.157.17-.367.275-.55.08-.146.168-.286.263-.42.101-.188.215-.368.341-.539.105-.157.223-.289.328-.433.105-.144.236-.25.355-.46.118-.21.511-.55.787-.813a.643.643 0 0 0 .184-.158Zm8.216 17.863c0 .105-.079.197-.105.302-.083.314-.188.62-.315.919 0 .092-.105.17-.144.25a7.42 7.42 0 0 1-.525.879l-.25.262a8.44 8.44 0 0 1-.67.709c-.384.335-.83.593-1.312.761a4.594 4.594 0 0 1-2.848 0 4.805 4.805 0 0 1-1.312-.656 10.644 10.644 0 0 1-4.174-7.088 10.34 10.34 0 0 1-.157-1.456v-1.313a8.479 8.479 0 0 1 10.5 1.181c.077.096.147.197.21.302.154.182.295.375.42.578.098.183.185.371.262.564.066.131.131.25.184.38.052.132.131.486.197.736.065.25 0 .184.078.289.058.355.088.715.092 1.076.004.445-.04.89-.131 1.325Zm22.313-3.688a10.671 10.671 0 0 1-4.187 7.088c-.28.208-.584.38-.906.512a4.461 4.461 0 0 1-3.938-.171 4.183 4.183 0 0 1-.577-.407c-.2-.18-.385-.378-.551-.59a5.02 5.02 0 0 1-.368-.381c-.144-.21-.262-.433-.38-.643a4.414 4.414 0 0 1-.276-.473 5.814 5.814 0 0 1-.262-.761c0-.157-.119-.302-.158-.473a6.012 6.012 0 0 1 1.313-5.184 8.492 8.492 0 0 1 10.5-1.22v1.312c-.069.47-.17.935-.302 1.391h.092ZM27.93 14.884a2.99 2.99 0 0 1 0-.341 4.475 4.475 0 0 1 .131-1.536c.722-.683 4.017-3.176 10.5-.525v1.391a10.828 10.828 0 0 0-10.723 1.01h.092Zm.906-10.001c.172-.138.351-.265.538-.381l.38-.17.237-.106.472-.144h.171c.145-.059.294-.107.446-.144h.63c.291.003.581.033.867.091l.249.066c.313.083.616.197.906.341.45.243.858.558 1.207.932.05.06.108.112.17.158.276.262.539.538.801.813l.302.407c.131.158.263.315.38.486.119.17.224.341.329.512l.276.446.275.538c.079.17.158.328.223.486l.066.184c-5.25-1.68-8.768-.25-10.5.905v-.079a4.341 4.341 0 0 1-.158-.55l-.078-.263a6.053 6.053 0 0 1-.08-.853 4.646 4.646 0 0 1 1.799-3.675h.092Z" fill="#000"/></svg>