<svg width="43" height="42" viewBox="0 0 43 42" fill="none" xmlns="http://www.w3.org/2000/svg">
<g clip-path="url(#clip0_804_2225)">
<path d="M19.6908 0.138662C18.5282 0.261469 16.5224 0.613516 15.3107 0.916444C12.2814 1.66966 9.97265 2.70943 7.93405 4.23223C6.57498 5.25562 6.31299 5.7141 6.87791 6.0989C7.24633 6.3527 7.41826 6.30358 8.06504 5.73867C9.46505 4.52697 11.3235 3.49539 13.4276 2.76674C14.2627 2.48019 15.892 2.01352 16.0721 2.01352C16.1376 2.01352 15.9656 2.17726 15.7036 2.38194C15.0814 2.84042 14.1727 3.79831 13.7715 4.41235C12.1422 6.86849 11.8557 10.3317 12.9446 14.2369C13.6487 16.7422 14.9013 18.7726 17.1446 21.0077C21.5574 25.4042 29.7118 29.5633 39.4054 32.3551C40.4288 32.6498 41.3294 32.9445 41.4031 33.0182C41.4849 33.0919 41.5504 33.2638 41.5504 33.4194C41.5504 33.7469 41.4276 33.8861 40.2159 34.9176C39.1843 35.81 38.9715 36.072 38.8569 36.5796C38.7586 36.9972 38.775 37.12 39.168 38.8475C39.3072 39.4451 39.4218 40.0346 39.4218 40.1574C39.4218 40.4358 39.1107 40.7387 38.8323 40.7387C38.4475 40.7387 33.7317 38.9621 30.4405 37.5785C17.9142 32.306 9.8171 26.6405 6.38668 20.7293C5.06855 18.4451 4.52001 16.4475 4.51182 13.844C4.51182 11.8136 4.77381 10.5937 5.57615 8.89893C5.77264 8.48139 5.93639 8.08019 5.93639 8.02288C5.93639 7.95738 5.82995 7.79364 5.69896 7.66264C5.26504 7.20416 4.92937 7.38428 4.45451 8.32583C3.02176 11.1913 2.84983 15.1948 4.02878 18.5843C5.09311 21.6545 7.47557 24.8557 10.865 27.7785C11.5446 28.3598 11.7083 28.5399 11.6019 28.5808C9.05568 29.6042 5.87089 30.6603 2.44867 31.61C1.53171 31.872 1.01592 32.527 1.01592 33.4358C1.00773 34.2791 1.16329 34.5001 2.53872 35.6627C3.65217 36.6042 3.72586 36.6861 3.72586 36.9808C3.72586 37.1118 3.59486 37.7913 3.43931 38.4791C3.28375 39.175 3.15276 39.9282 3.15276 40.1574C3.15276 41.2217 3.90598 41.9586 4.97849 41.9668C5.3551 41.9668 5.75627 41.8603 7.04984 41.3855C11.6592 39.7235 15.9411 37.9305 19.8381 36.0311L21.9013 35.0159L23.9727 36.0311C27.9598 37.9796 32.2007 39.7481 36.9083 41.4428C38.0627 41.8603 38.4557 41.9668 38.8323 41.9668C39.8966 41.9586 40.6498 41.2217 40.6498 40.1574C40.6498 39.9282 40.5189 39.175 40.3633 38.4791C40.0522 37.1118 40.0194 36.8252 40.1832 36.6288C40.2323 36.5551 40.7399 36.1048 41.2966 35.6299C42.6066 34.5083 42.7294 34.3445 42.7621 33.5668C42.7949 33.0755 42.7621 32.9036 42.6148 32.5843C42.3937 32.134 41.927 31.7738 41.3539 31.61C39.2417 31.0206 38.2674 30.7258 36.3925 30.0954C33.8791 29.2603 32.0124 28.5481 32.1107 28.4662C32.9785 27.7457 34.0428 26.7633 34.9434 25.8627C35.9504 24.8311 36.0651 24.6919 36.0651 24.4381C36.0651 24.0288 35.9177 23.865 35.5247 23.8568C35.1972 23.8405 35.1645 23.865 33.9691 25.0685C33.2978 25.7481 32.2744 26.6896 31.7013 27.1644L30.6534 28.0323L29.9001 27.7048C27.9352 26.8533 24.906 25.2814 23.3504 24.3071L22.9574 24.0615L23.6779 23.5375C25.2662 22.3668 27.1738 20.5738 28.1645 19.3293C30.2686 16.6767 31.3247 13.7703 31.4557 10.258C31.5294 8.22759 31.2674 6.82756 30.5387 5.32931C29.9738 4.18311 28.9259 2.97141 27.796 2.1527L27.5914 2.00533L27.9189 2.06264C28.099 2.0872 28.6721 2.24276 29.1879 2.39832C32.4709 3.38896 34.7797 4.69071 36.5317 6.54101C37.7107 7.79364 38.4966 9.21004 38.9551 10.9212C39.2089 11.8627 39.2089 11.9118 39.2089 13.803C39.2089 15.4896 39.1925 15.8334 39.0288 16.5621C38.6767 18.1668 38.0463 19.6814 37.1048 21.1878C36.8019 21.6627 36.5563 22.1375 36.5563 22.2358C36.5563 22.3258 36.6136 22.5141 36.6791 22.6451C36.8592 22.9972 37.3013 22.989 37.6206 22.6451C37.9235 22.3176 38.6849 21.0323 39.1352 20.0907C40.4943 17.2252 40.8791 13.8358 40.1996 10.8393C38.8732 4.96907 33.2487 1.21118 24.2346 0.17141C23.0884 0.0404161 20.837 0.0240418 19.6908 0.138662ZM23.2358 1.48136C26.7808 2.01352 29.499 4.54334 30.1785 7.94919C30.3095 8.58782 30.3177 11.0685 30.2031 11.6498L30.1294 11.9937L29.6791 11.6989C28.361 10.8475 26.306 10.0369 24.5867 9.69309C23.3341 9.43928 20.6651 9.42291 19.4042 9.66034C17.644 9.98782 15.4826 10.8229 14.1235 11.6989L13.6732 11.9937L13.6077 11.7726C13.4849 11.3551 13.444 9.02993 13.5504 8.30946C13.9516 5.5258 15.6463 3.33165 18.299 2.16089C19.9036 1.45679 21.5574 1.22755 23.2358 1.48136ZM24.3902 10.9293C25.5282 11.1586 26.5516 11.5024 27.6159 12.01C28.6475 12.4931 29.761 13.2136 29.761 13.3937C29.761 13.5738 29.2534 15.0475 28.9914 15.6369C28.1563 17.4872 26.6089 19.4603 24.7013 21.1141C23.7434 21.9492 22.0405 23.2182 21.8849 23.2182C21.8276 23.2182 21.3528 22.8989 20.837 22.5141C17.1118 19.7223 15.0896 17.0861 14.099 13.7457L13.968 13.3118L14.6393 12.8697C16.2686 11.7972 18.2826 11.044 20.2639 10.7738C21.189 10.651 23.3914 10.7328 24.3902 10.9293ZM14.5083 30.472C15.9984 31.52 17.6686 32.5679 19.3633 33.534C20.0183 33.9024 20.5668 34.2217 20.5832 34.2381C20.6814 34.3282 15.6955 36.6288 12.8545 37.8077C9.88259 39.044 5.32235 40.7387 4.9703 40.7387C4.69194 40.7387 4.38083 40.4358 4.38083 40.1574C4.38083 40.0346 4.49545 39.4451 4.63463 38.8475C5.02761 37.12 5.04399 36.9972 4.94574 36.5796C4.83112 36.072 4.61826 35.81 3.58668 34.9176C2.37498 33.8861 2.25217 33.7469 2.25217 33.4194C2.25217 33.2638 2.31767 33.0919 2.39954 33.0182C2.47323 32.9445 3.36562 32.6498 4.38083 32.3551C7.0744 31.5773 10.4311 30.4229 12.3879 29.6042C12.8218 29.4241 12.9691 29.3995 13.0756 29.4732C13.1493 29.5223 13.796 29.9726 14.5083 30.472Z" fill="#151515"/>
</g>
<defs>
<clipPath id="clip0_804_2225">
<rect width="41.8363" height="42" fill="white" transform="translate(0.949219)"/>
</clipPath>
</defs>
</svg>
