<svg width="39" height="42" viewBox="0 0 39 42" fill="none" xmlns="http://www.w3.org/2000/svg">
<g clip-path="url(#clip0_804_2305)">
<path d="M20.0612 0.146854C18.6694 0.539837 16.7536 1.61235 15.2308 2.83223C11.0963 6.16439 8.36999 11.4287 7.65772 17.5036C7.48579 18.9527 7.48579 21.8346 7.65772 23.3164C8.17351 27.7539 9.75361 31.7492 12.2589 34.9586C12.5782 35.3761 12.8893 35.7855 12.9302 35.8755C13.2659 36.4895 12.5127 37.341 11.8331 37.1118C11.3829 36.9644 10.1138 35.5317 9.08227 33.9843C8.46005 33.0591 8.16533 32.8954 7.7969 33.2802C7.45304 33.6568 7.48579 33.8205 8.03433 34.6638C8.6811 35.6545 9.62262 36.8334 10.3595 37.5784C10.8507 38.0697 11.0144 38.1843 11.4156 38.2989C12.9466 38.741 14.4039 37.5211 14.2238 35.9574C14.1583 35.4416 13.9536 35.0732 13.1676 34.0662C11.0636 31.3808 9.58987 27.8276 9.0004 23.996C8.77934 22.596 8.69747 19.6159 8.83665 18.1422C9.45069 11.6498 12.5864 5.98428 17.3185 2.86498C18.2437 2.25913 19.2916 1.72697 20.1185 1.44861C20.6671 1.26849 20.8636 1.23574 21.4694 1.26849C22.0834 1.30124 22.2554 1.34217 22.7875 1.60416C25.1454 2.76673 25.4647 5.91059 23.3852 7.53165C23.1887 7.6872 22.5992 7.99013 22.0834 8.203C20.3478 8.93165 19.2425 9.6685 17.9244 10.9866C16.0086 12.9024 14.6331 15.3995 13.8799 18.3223C13.4378 20.0334 13.2331 22.7925 13.4214 24.5936C13.708 27.3855 14.6495 30.1609 16.0086 32.2486C16.9255 33.665 17.1957 34.41 17.1957 35.5808C17.1957 36.4977 17.0811 37.0053 16.6963 37.8404C16.0986 39.134 14.756 40.2229 13.3068 40.5913C12.6764 40.755 11.5712 40.7469 10.8998 40.5831C9.66355 40.2802 8.81209 39.6662 7.56766 38.1761C4.35831 34.3527 2.36065 29.6615 1.59924 24.1761C1.41913 22.8989 1.34544 19.3621 1.46825 17.9539C1.77936 14.417 2.61445 11.2077 4.05538 8.08837C4.75129 6.58194 6.12673 4.33866 6.51152 4.08486C7.101 3.70007 7.91152 3.90475 8.26357 4.52697C8.57467 5.08369 8.50917 5.34568 7.78053 6.53282C5.16883 10.7492 3.89983 15.2931 3.90802 20.41C3.90802 23.9878 4.4893 27.1235 5.75012 30.2919C6.35597 31.8229 6.42147 31.9129 6.88813 31.9048C7.55948 31.8802 7.6086 31.5036 7.09281 30.2919C6.2086 28.2124 5.57 25.7562 5.28345 23.3164C5.1279 21.9574 5.10334 19.2474 5.24252 17.872C5.62731 14.0241 6.93726 10.1352 8.82847 7.22872C9.508 6.17258 9.66355 5.80416 9.66355 5.17375C9.66355 4.38779 9.47525 3.91293 8.9349 3.38077C8.2472 2.69305 7.37117 2.48018 6.43784 2.75855C5.81562 2.94685 5.42264 3.27434 4.91503 4.03574C2.06591 8.2685 0.40392 13.5246 0.17468 18.9773C-0.136431 26.3211 1.96766 33.1574 6.1431 38.4217C7.62497 40.2884 8.73022 41.189 10.1138 41.6638C11.039 41.9831 12.6764 42.0404 13.6589 41.7948C14.8706 41.4837 15.894 40.8779 16.77 39.9363C17.7361 38.9048 18.2682 37.7012 18.4402 36.1784L18.5302 35.3188L18.9478 35.6708C19.177 35.8673 19.6273 36.1948 19.9384 36.3995C23.6881 38.8065 28.2647 38.7819 31.9244 36.3422C34.9945 34.2954 37.2542 30.7913 38.0975 26.755C38.4086 25.2895 38.4905 24.3808 38.4905 22.7024C38.4823 19.8205 37.9419 17.4053 36.763 14.9574C34.5524 10.3808 30.5162 7.51527 26.1852 7.44978C25.653 7.44159 25.2273 7.41703 25.2437 7.39247C25.26 7.3679 25.3829 7.10592 25.5302 6.81118C26.7992 4.21586 25.4729 1.09656 22.7384 0.228726C22.2226 0.0649829 21.9443 0.0240472 21.2647 0.0322343C20.8062 0.0322343 20.2659 0.0895444 20.0612 0.146854ZM26.9793 8.74335C30.5407 9.04627 34.094 11.9527 35.8869 16.0381C36.8039 18.134 37.246 20.32 37.2542 22.7597C37.2542 27.0825 35.7723 31.0205 33.1197 33.7141C30.9174 35.9492 28.2893 37.0545 25.4729 36.9235C22.9349 36.8088 20.7571 35.7773 18.7513 33.7632C16.8682 31.8638 15.6238 29.5387 14.9443 26.6404C14.756 25.8626 14.5758 24.5691 14.5758 24.0451C14.5758 23.6521 14.5922 23.5948 14.7232 23.6357C14.7969 23.6603 15.6156 23.8895 16.5407 24.1434C17.4659 24.3972 18.3992 24.7001 18.6121 24.8147C19.3407 25.2077 19.7337 25.9118 19.7337 26.8369C19.7337 27.1153 19.6437 28.5644 19.5291 30.0626C19.3407 32.5515 19.3326 32.8053 19.4472 33.0755C19.7337 33.7632 20.184 33.9925 21.232 34.0007C22.591 34.0007 23.901 33.5995 25.0554 32.8135C25.5138 32.5106 25.7185 32.3059 25.8577 32.0357C26.1033 31.5609 26.0706 31.0205 25.7676 30.5866C25.1291 29.6779 22.108 25.9936 21.8706 25.8381C21.6741 25.6989 21.4694 25.6498 21.1747 25.6498C20.7735 25.6498 20.7407 25.6334 20.6507 25.3796C20.6016 25.2404 20.4051 24.9211 20.2168 24.6755L19.8811 24.2334L20.3232 24.2907C21.8869 24.4954 23.3934 25.2895 24.3349 26.403C24.5396 26.6404 25.5957 28.1632 26.6928 29.7843C27.7817 31.4053 28.7887 32.8545 28.9279 33.0018C29.3782 33.4767 29.7548 33.6322 30.4998 33.6322C31.294 33.6322 31.6214 33.4767 32.2191 32.8463C33.922 31.0287 35.5676 27.7539 35.6823 25.9609C35.715 25.396 35.6986 25.2814 35.5022 24.872C35.3793 24.6264 35.1255 24.2989 34.9372 24.1352C34.3314 23.6112 34.225 23.603 29.9758 23.603H26.1606L25.7513 23.7995C25.3747 23.9714 24.8998 24.4135 24.6788 24.7901C24.5969 24.9375 24.556 24.9211 24.0647 24.5527C23.4179 24.0697 22.4191 23.5784 21.6413 23.3656C21.3138 23.2755 20.4624 23.12 19.7337 23.0217C19.0133 22.9235 18.4402 22.8252 18.4565 22.8088C18.4729 22.7925 19.1197 22.686 19.9057 22.5714C21.8951 22.2849 22.9513 21.9001 24.1057 21.0241L24.5887 20.6638L24.8179 21.0241C25.1209 21.4989 25.6203 21.851 26.1443 21.9656C26.439 22.0311 27.7244 22.0556 30.2951 22.0311C33.8893 22.0065 34.0367 21.9983 34.3969 21.8346C35.6004 21.2779 35.9852 20.0907 35.4694 18.5679C35.2156 17.8229 34.9864 17.61 34.577 17.7574C34.225 17.8802 34.1595 18.1831 34.3478 18.8381C34.4378 19.141 34.5115 19.5831 34.5115 19.8205C34.5115 20.2217 34.4869 20.2872 34.2168 20.5246L33.922 20.7948L30.2378 20.8603C26.8647 20.9176 26.5291 20.9094 26.2589 20.7784C25.7758 20.5492 25.522 20.0007 25.6858 19.534C25.7922 19.2393 29.501 13.7293 29.8121 13.41C30.025 13.1972 30.1068 13.1644 30.508 13.1644H30.9747L31.4577 13.6966C31.8671 14.1387 32.6448 15.2276 33.2752 16.2591C33.4472 16.5457 33.7092 16.6439 34.0039 16.5457C34.2413 16.4556 34.3887 16.2591 34.3887 16.0053C34.3887 15.6615 32.9969 13.5819 32.2191 12.7632C31.6542 12.1738 31.2367 11.9773 30.5407 11.9855C29.9267 11.9855 29.5419 12.1001 29.1326 12.4112C28.9606 12.5422 28.0437 13.8357 26.7747 15.7188C25.4811 17.6346 24.4905 19.0264 24.1548 19.3784C23.115 20.4755 21.8378 21.1223 20.2331 21.3433L19.8811 21.4007L20.1267 21.0895C20.2577 20.9176 20.4624 20.5983 20.5688 20.3691C20.7735 19.9761 20.7817 19.9679 21.1337 19.9843C21.7805 20.017 21.9852 19.8287 23.9583 17.3398C24.9653 16.079 25.8495 14.8919 25.9232 14.7036C26.0214 14.4498 26.0378 14.2533 25.9969 13.9749C25.915 13.4264 25.3255 12.8615 24.3103 12.3621C23.2542 11.8381 22.4519 11.6416 21.3302 11.6252C20.3478 11.617 20.094 11.6907 19.6928 12.1246C19.3244 12.5176 19.3162 12.7059 19.5291 15.5714C19.7829 18.9527 19.791 19.272 19.5372 19.796C19.3407 20.2299 18.8086 20.7703 18.4402 20.9176C18.1209 21.0404 14.584 22.0229 14.5513 21.9983C14.4858 21.9328 14.6905 20.2545 14.8706 19.3457C16.0741 13.3609 20.4214 8.94803 25.3829 8.67785C25.8413 8.65329 25.9478 8.66148 26.9793 8.74335ZM22.9267 13.0416C23.9419 13.3773 24.9735 14.065 24.8343 14.3024C24.6951 14.548 21.322 18.7644 21.2402 18.8053C20.9782 18.9118 20.9372 18.6989 20.7326 15.8907C20.6179 14.3352 20.5524 13.0007 20.5852 12.9188C20.6343 12.7878 20.7162 12.7796 21.5185 12.8205C22.0916 12.8451 22.5747 12.927 22.9267 13.0416ZM33.9548 24.9048C34.3232 25.0767 34.5524 25.4124 34.5524 25.7808C34.5524 26.4685 33.7174 28.5808 32.9232 29.9153C32.2928 30.9796 31.3185 32.1913 30.9501 32.3878C30.6308 32.5515 30.2296 32.527 29.9349 32.3305C29.8285 32.265 28.8378 30.8568 27.7244 29.203C26.2343 27.0007 25.6776 26.1164 25.653 25.8954C25.5957 25.5106 25.7922 25.1258 26.1443 24.9129C26.3899 24.7574 26.5782 24.7492 30.0086 24.7492C33.3735 24.7492 33.6355 24.7656 33.9548 24.9048ZM22.9431 28.9001C25.0554 31.5691 24.9407 31.389 24.7115 31.61C24.3595 31.9293 23.5407 32.3714 22.9103 32.5679C22.239 32.7808 21.1255 32.9118 20.7653 32.8217C20.5688 32.7726 20.5524 32.7317 20.5524 32.3387C20.5606 31.5936 20.9291 26.9925 20.9945 26.8942C21.0273 26.8369 21.101 26.796 21.1665 26.796C21.2238 26.796 22.0261 27.7457 22.9431 28.9001Z" fill="#151515"/>
</g>
<defs>
<clipPath id="clip0_804_2305">
<rect width="38.3977" height="42" fill="white" transform="translate(0.134766)"/>
</clipPath>
</defs>
</svg>
