<svg width="28" height="28" fill="none" xmlns="http://www.w3.org/2000/svg"><g clip-path="url(#a)" fill="#fff"><path d="M.56 21.905H16.8v5.47l3.36-2.017 3.36 2.017v-5.47h3.92V.625H.56v21.28Zm21.988-3.8c-.05.051-.104.098-.157.146-.03.027-.058.055-.09.081-.034.03-.071.054-.107.081a3.337 3.337 0 0 1-1.662.67l-.031.005a3.462 3.462 0 0 1-.684 0l-.031-.004a3.34 3.34 0 0 1-1.662-.67c-.036-.028-.073-.053-.108-.082l-.09-.081c-.052-.048-.106-.095-.157-.146a3.349 3.349 0 0 1-.971-2.36 3.363 3.363 0 0 1 3.36-3.36 3.363 3.363 0 0 1 3.36 3.36 3.337 3.337 0 0 1-.97 2.36Zm-.148 7.292-2.24-1.344-2.24 1.344v-5.77c.019.01.04.018.06.029.148.082.301.159.46.225l.02.007c1.09.45 2.312.45 3.4 0l.022-.007c.158-.067.31-.142.46-.226.019-.01.04-.018.06-.029v5.77H22.4ZM1.68 1.746h24.64v19.04h-2.8v-2.087a4.456 4.456 0 0 0 1.12-2.954c0-2.47-2.01-4.48-4.48-4.48-2.47 0-4.48 2.01-4.48 4.48 0 1.132.425 2.164 1.12 2.954v2.086H1.68V1.745Z"/><path d="M6.72 3.986h14.56v1.12H6.72v-1.12Zm2.8 3.36h8.96v1.12H9.52v-1.12Zm-5.6 10.08h6.16v1.12H3.92v-1.12Z"/></g><defs><clipPath id="a"><path fill="#fff" d="M0 0h28v28H0z"/></clipPath></defs></svg>