<svg width="44" height="42" viewBox="0 0 44 42" fill="none" xmlns="http://www.w3.org/2000/svg">
<g clip-path="url(#clip0_804_2317)">
<path d="M7.13591 0.195638C6.80585 0.269901 6.19524 0.509194 5.77441 0.715481C3.52176 1.83768 1.80546 4.12334 1.06282 6.9701C0.765769 8.10055 0.683255 10.2872 0.889541 11.4754C1.42589 14.5697 3.29897 17.2927 5.72491 18.5139C6.74809 19.0337 7.3587 19.1823 8.57166 19.2318C9.39678 19.2648 9.77635 19.24 10.2137 19.141C13.0687 18.4644 14.3972 15.3536 12.8954 12.8699C12.6561 12.4656 12.5818 12.284 12.6479 12.218C12.7716 12.0943 13.0934 12.2758 13.6958 12.8451C15.1646 14.2149 15.6927 16.1622 15.0903 18.0188C14.9665 18.3984 14.5044 19.5371 14.0589 20.5355C12.7469 23.4895 12.5323 24.3889 12.5984 26.6003C12.6479 28.1681 12.8376 29.1088 13.3987 30.4703C13.5803 30.9076 13.7288 31.4027 13.7288 31.5595C13.7288 32.0628 13.9763 32.8797 14.3064 33.5233C15.2553 35.3469 17.1614 36.9807 19.2325 37.7563C19.4966 37.8471 19.7359 37.9709 19.7689 38.0204C19.8019 38.0699 19.8349 38.5897 19.8349 39.1756C19.8349 40.4298 19.9174 40.7599 20.363 41.2632C20.8003 41.7583 21.2129 41.9481 21.8978 41.9481C22.5249 41.9481 22.9705 41.7748 23.3748 41.3622C23.8699 40.8671 23.9606 40.5618 23.9606 39.2664C23.9606 38.631 23.9936 38.0699 24.0266 38.0204C24.0596 37.9709 24.2989 37.8471 24.563 37.7563C26.6341 36.9807 28.5402 35.3469 29.4891 33.5233C29.8192 32.8797 30.0667 32.0628 30.0667 31.5595C30.0667 31.4027 30.2152 30.9076 30.3968 30.4703C30.5783 30.0247 30.8341 29.2573 30.9579 28.7705C31.1642 27.9371 31.1807 27.7721 31.1724 26.1878C31.1724 24.6282 31.1559 24.4302 30.9579 23.6958C30.7021 22.7717 30.3308 21.8145 29.5056 19.9992C28.664 18.1343 28.4742 17.499 28.4742 16.4923C28.4742 15.8239 28.5154 15.5434 28.6805 15.0235C28.9528 14.2149 29.4479 13.4475 30.0997 12.8451C30.7103 12.2675 31.0239 12.0943 31.1559 12.2263C31.2219 12.2923 31.1807 12.4161 30.9909 12.7131C30.5948 13.332 30.405 13.8188 30.3143 14.4624C30.009 16.6243 31.4035 18.6294 33.5818 19.141C34.3822 19.3308 36.0738 19.2648 36.8742 19.009C39.919 18.0436 42.2789 15.106 42.906 11.4754C43.1041 10.3202 43.0298 8.10055 42.7492 7.04436C41.9653 4.06558 40.2655 1.81293 37.9469 0.690727C36.8824 0.170884 36.2141 0.0306091 34.8691 0.0306091C33.4168 0.0306091 32.6907 0.253399 31.7418 1.01253C30.1822 2.2585 29.8109 4.79171 30.9331 6.46676L31.2219 6.88758L30.8836 7.45693C30.5618 7.99328 30.5123 8.03454 29.9925 8.24082C28.0286 9.03296 26.2545 10.7493 25.3139 12.7791C25.0003 13.4557 24.9756 13.6868 25.1571 13.9508C25.3139 14.1736 25.776 14.2726 26.0235 14.1406C26.1225 14.0911 26.3123 13.8023 26.4361 13.5135C27.1374 11.9705 28.5154 10.4605 29.8769 9.77559L30.2235 9.60231L30.273 9.99838C30.306 10.2129 30.3555 10.5017 30.3968 10.642C30.4545 10.8895 30.438 10.9143 29.9429 11.2361C28.0534 12.4821 26.8817 14.9658 27.1622 17.1524C27.286 18.0848 27.6738 19.2153 28.4824 20.9976C29.6129 23.4813 29.9017 24.5457 29.9017 26.163C29.9017 27.2357 29.8192 27.8876 29.5551 28.8447L29.3818 29.4884L29.0023 29.1335C28.796 28.9355 28.5567 28.7375 28.4659 28.688C28.3257 28.6054 28.3257 28.5807 28.4659 27.9123C28.6887 26.8561 28.6557 25.3874 28.3834 24.3394C28.1936 23.5968 27.9873 23.0935 26.7744 20.3292C26.2298 19.0667 25.9492 18.0931 25.842 16.9874C25.7677 16.1952 25.7264 16.055 25.5532 15.8899C25.3304 15.6836 25.1406 15.6589 24.8353 15.7992C24.53 15.9394 24.431 16.2777 24.4887 16.9214C24.6538 18.5634 24.9838 19.6444 26.0235 21.9465C27.1787 24.488 27.4593 25.6432 27.2612 27.0294C27.2117 27.409 27.1374 27.7638 27.1044 27.8216C27.0632 27.8876 26.8651 27.8546 26.3948 27.706C25.0911 27.2935 24.0019 27.1532 21.9803 27.1449C20.5445 27.1449 19.9174 27.1779 19.216 27.2935C18.4404 27.4172 17.3099 27.6978 16.8479 27.8793C16.6416 27.9618 16.5095 27.4007 16.493 26.3528C16.4765 25.3296 16.4353 25.1728 16.1547 25.0491C15.8494 24.9005 15.6596 24.9253 15.4039 25.1481C15.1728 25.3461 15.1728 25.3626 15.1728 26.2868C15.1811 26.8479 15.2388 27.4998 15.3296 27.9123C15.4699 28.5807 15.4699 28.6137 15.3213 28.6962C15.2388 28.7375 14.9995 28.9355 14.7932 29.1335L14.4137 29.4884L14.2404 28.8447C13.9598 27.8133 13.8938 27.2935 13.8938 26.2125C13.8938 24.521 14.1249 23.6711 15.3378 20.9481C16.2042 19.0007 16.5013 18.1178 16.6333 17.1689C16.7984 15.9312 16.4518 14.3799 15.7422 13.2165C15.3296 12.5398 14.4797 11.6569 13.8526 11.2361C13.3575 10.9143 13.341 10.8895 13.3987 10.642C13.44 10.5017 13.4895 10.2129 13.5225 9.99838L13.572 9.60231L13.9186 9.77559C15.3543 10.5017 16.8314 12.1603 17.442 13.7363C17.8298 14.7512 17.9618 15.4031 17.9618 16.4098C17.9701 17.862 17.706 18.8275 16.6416 21.1791C16.0805 22.4251 15.9567 22.7799 15.998 22.9697C16.1052 23.4565 16.7571 23.6381 17.0872 23.2832C17.3017 23.044 18.3579 20.7088 18.7209 19.6526C19.4058 17.6888 19.4801 15.8817 18.9602 14.0664C18.1928 11.4341 16.2042 9.20624 13.7123 8.19957C13.2915 8.02628 13.209 7.95202 12.9119 7.44868L12.5736 6.88758L12.8624 6.46676C13.704 5.21253 13.7206 3.26518 12.9037 1.98621C12.3673 1.14456 11.4431 0.459685 10.4365 0.162632C9.79285 -0.0271512 7.9528 -0.0106483 7.13591 0.195638ZM10.2962 1.51587C11.0883 1.81293 11.765 2.48955 12.0455 3.25693C12.1198 3.45497 12.1775 3.88405 12.1858 4.1976C12.1858 4.86597 11.9795 5.41882 11.4761 6.07894C10.9728 6.7308 10.9976 7.13513 11.5669 7.86126C12.2188 8.68639 12.3756 9.80859 11.9712 10.708C11.8475 10.9721 11.6494 11.3021 11.5339 11.4424C11.0058 12.0695 10.9893 12.5893 11.4844 13.1752C12.7469 14.6852 12.2518 16.8388 10.4447 17.6722C9.82585 17.9528 8.58817 18.0188 7.68876 17.8208C5.27933 17.2844 3.14219 14.9575 2.36656 12.02C2.06125 10.873 2.00349 8.91744 2.24278 7.78699C2.86164 4.79171 4.76773 2.39053 7.16891 1.58188C7.74652 1.38385 7.96105 1.35084 8.83571 1.35084C9.65257 1.35084 9.93312 1.38385 10.2962 1.51587ZM36.5606 1.55713C38.9618 2.31627 40.9257 4.76695 41.5528 7.78699C41.7921 8.91744 41.7343 10.873 41.429 12.02C40.6534 14.9575 38.5162 17.2844 36.1068 17.8208C35.2074 18.0188 33.9697 17.9528 33.3508 17.6722C31.5437 16.8388 31.0486 14.6852 32.3111 13.1752C32.8062 12.5893 32.7897 12.0695 32.2616 11.4424C31.4035 10.4275 31.387 8.92569 32.2286 7.86126C32.798 7.13513 32.8227 6.7308 32.3194 6.07894C31.816 5.41882 31.6097 4.86597 31.6097 4.1976C31.618 2.98463 32.2864 2.01921 33.4416 1.54063C33.8376 1.38385 34.0522 1.35084 34.9103 1.35084C35.7602 1.35084 36.016 1.38385 36.5606 1.55713ZM23.5316 28.4982C26.1638 28.7787 28.0121 29.6121 28.5485 30.7673C28.7877 31.2707 28.796 31.543 28.5815 32.2361C28.0781 33.8616 26.1638 35.6935 24.1504 36.4691C23.251 36.8157 22.8714 37.1292 22.7229 37.6408C22.6817 37.8058 22.6404 38.4495 22.6404 39.0518C22.6404 40.1493 22.6404 40.1658 22.4176 40.3968C22.1206 40.7104 21.6832 40.7186 21.3944 40.4133C21.2046 40.2153 21.1964 40.1328 21.1551 38.9033C21.1139 37.6573 21.0974 37.5831 20.8828 37.2612C20.6353 36.8817 20.5033 36.7992 19.5213 36.4196C17.6317 35.6935 15.7009 33.8204 15.2141 32.2361C14.9995 31.543 15.0078 31.2707 15.2471 30.7673C16.0145 29.117 19.7276 28.1021 23.5316 28.4982Z" fill="#151515"/>
</g>
<defs>
<clipPath id="clip0_804_2317">
<rect width="42.3301" height="42" fill="white" transform="translate(0.703125)"/>
</clipPath>
</defs>
</svg>
