<svg width="40" height="42" viewBox="0 0 40 42" fill="none" xmlns="http://www.w3.org/2000/svg">
<g clip-path="url(#clip0_804_2300)">
<path d="M18.3641 0.0283764C16.5184 0.364704 15.575 0.66822 14.3199 1.30807C11.0059 3.00611 8.64335 6.16432 7.94609 9.81471C7.6918 11.1518 7.67539 12.046 7.85586 14.5233C8.10195 17.8456 8.13476 17.5667 7.50312 18.1573C7.21601 18.428 6.87148 18.8546 6.74844 19.1006C6.52695 19.5026 6.51055 19.6174 6.51055 20.4049C6.51055 21.2335 6.51875 21.2909 6.78945 21.7831C7.08476 22.3327 7.49492 22.7182 8.11016 23.0381C8.45468 23.2186 8.59413 23.235 10.243 23.276C12.8762 23.3417 12.7777 23.235 13.1715 26.2046C13.3191 27.3612 13.434 28.3128 13.4176 28.3292C13.4094 28.3456 12.1789 28.0256 10.6941 27.6319L7.99531 26.91L7.97891 26.221C7.9543 24.8346 7.28164 23.8092 5.99375 23.2104C5.58359 23.0135 5.42773 22.9889 4.66484 22.9889C3.86914 22.9889 3.7625 23.0053 3.27031 23.2432C2.56484 23.5796 2.01523 24.1292 1.68711 24.8182C1.43281 25.3514 1.42461 25.3924 1.42461 26.5245V27.6811L1.10469 28.0338C0.604299 28.5835 0.374611 29.1823 0.333596 30.0108C0.29258 30.8639 0.440236 31.4381 0.84219 32.0452L1.1293 32.4635L0.850393 32.8737C0.415627 33.5135 0.29258 33.9975 0.333596 34.8753C0.374611 35.7448 0.596096 36.3272 1.10469 36.8932L1.42461 37.246V38.4436C1.42461 39.6331 1.42461 39.6413 1.68711 40.1417C2.03164 40.8061 2.57305 41.3393 3.25391 41.6674C3.7707 41.9217 3.84453 41.9381 4.70586 41.9381C5.50976 41.9381 5.65742 41.9135 6.07578 41.7167C7.29805 41.1424 8.15117 39.6987 8.00352 38.4436C7.9625 38.0991 7.9707 38.0499 8.13477 38.0088C10.7516 37.3444 15.05 36.1303 15.173 36.0237C15.5176 35.712 15.2223 35.0065 14.7465 35.0065C14.4758 35.0065 7.53594 36.844 7.21601 36.9999C7.10937 37.0573 6.94531 37.1967 6.85508 37.3198C6.69102 37.5413 6.68281 37.6151 6.71562 38.6159C6.74023 39.2639 6.58437 39.6741 6.15781 40.1253C5.73945 40.56 5.30469 40.7487 4.70586 40.7487C3.25391 40.7487 2.33516 39.4772 2.7043 37.9924C2.85195 37.41 2.68789 36.8276 2.22851 36.2944C1.6707 35.6546 1.52305 35.2608 1.56406 34.5881C1.62969 33.6694 2.15469 32.9967 3.00781 32.7424C4.07422 32.4143 5.02578 32.8819 5.53437 33.9811C5.68203 34.301 5.87891 34.6292 5.96914 34.7112C6.33828 35.0393 6.44492 35.0229 13.3273 33.169L19.898 31.4053L22.3918 31.3807C24.8773 31.3561 24.8855 31.3561 25.2465 31.151C25.6812 30.9049 25.8617 30.6753 26.0586 30.1256L26.2062 29.7155L29.307 28.887C31.0133 28.4276 32.5226 28.001 32.6703 27.9272C33.0805 27.7303 33.2117 27.3858 33.1543 26.5819C33.0805 25.5483 33.384 24.9167 34.1633 24.4573C35.1559 23.8749 36.4519 24.2604 37.0016 25.3186C37.2559 25.8026 37.2969 26.2538 37.141 26.9674C37.0098 27.5991 37.1574 28.0913 37.6824 28.7475C38.3059 29.5268 38.4371 30.1256 38.1746 30.9131C37.8137 31.9796 36.6816 32.5292 35.5578 32.201C35.0738 32.0534 34.4258 31.3889 34.2453 30.8393C34.0894 30.3799 33.8351 30.1256 33.4578 30.0436C33.2937 30.0108 32.1453 30.2815 29.5039 30.987C27.4613 31.5366 23.8848 32.4963 21.5551 33.1198C19.2254 33.7432 17.2402 34.2928 17.1418 34.3421C16.7973 34.5307 16.8055 35.1049 17.15 35.3592L17.3715 35.5233L18.6512 35.187L19.9309 34.8589L25.8781 36.4503C29.143 37.328 31.8336 38.0417 31.8582 38.0417C31.8746 38.0417 31.8746 38.2221 31.8418 38.4354C31.6941 39.6987 32.5473 41.1424 33.7695 41.7167C34.1879 41.9135 34.3355 41.9381 35.1394 41.9381C36.0008 41.9381 36.0746 41.9217 36.5914 41.6674C37.2723 41.3393 37.8137 40.8061 38.1582 40.1417C38.4207 39.6413 38.4207 39.6331 38.4207 38.4436V37.246L38.7406 36.8932C39.241 36.3436 39.4707 35.7448 39.5117 34.9163C39.5527 34.0631 39.4051 33.4889 39.0031 32.8819L38.716 32.4635L39.0031 32.0452C39.4051 31.4381 39.5527 30.8639 39.5117 30.0108C39.4707 29.1823 39.2492 28.6163 38.7242 28.0092C38.3551 27.5909 38.3387 27.5171 38.4535 26.7213C38.6668 25.2858 37.8957 23.8667 36.575 23.2432C36.0828 23.0053 35.9762 22.9889 35.1805 22.9889C34.4176 22.9889 34.2617 23.0135 33.8516 23.2104C32.5719 23.8092 31.8828 24.8592 31.8664 26.262L31.85 26.91L29.1512 27.6319C27.6664 28.0338 26.4441 28.3456 26.4277 28.3292C26.3949 28.2963 26.8789 24.5803 26.9527 24.2604C27.0266 23.9569 27.2891 23.6206 27.5762 23.4565C27.7976 23.3417 28.1422 23.3088 29.6023 23.276C31.2512 23.235 31.3906 23.2186 31.7351 23.0381C32.3504 22.7182 32.7605 22.3327 33.0559 21.7831C33.3266 21.2909 33.3348 21.2335 33.3348 20.4049C33.3348 19.6174 33.3184 19.5026 33.0969 19.0924C32.9738 18.8381 32.6457 18.428 32.3586 18.1655L31.8582 17.6979L31.8172 16.9432C31.7762 16.2624 31.7598 16.1803 31.5711 16.0491C31.3988 15.9178 31.3168 15.9096 31.0707 15.9753C30.6769 16.0901 30.5703 16.3116 30.5621 17.1319C30.5457 18.0096 30.7344 18.4362 31.3824 18.9858C31.6367 19.2073 31.9074 19.5272 31.9894 19.7077C32.3258 20.4296 32.0797 21.2991 31.4234 21.7585L31.0625 22.0046L29.2906 22.0456C27.3219 22.0948 27.166 22.1276 26.518 22.6608C25.8535 23.2104 25.7715 23.4893 25.3285 26.8608C25.025 29.1577 24.9019 29.896 24.7953 30.0108C24.6969 30.1174 24.541 30.1667 24.2949 30.1667H23.9422V29.1577C23.9422 28.6081 23.9176 28.0749 23.893 27.9682C23.8109 27.6893 23.409 27.5006 23.1219 27.6237C22.7773 27.7631 22.7117 28.0174 22.7117 29.1413V30.1667H22.1785H21.6453V29.0674C21.6453 28.1241 21.6207 27.9436 21.4976 27.7796C21.309 27.5499 20.8988 27.5335 20.6609 27.7467C20.5133 27.878 20.4969 28.001 20.4969 29.0346V30.1667H19.9226H19.3484V29.0346C19.3484 28.001 19.332 27.878 19.1844 27.7467C18.9465 27.5335 18.5363 27.5499 18.3476 27.7796C18.2246 27.9436 18.2 28.1241 18.2 29.0674V30.1667H17.6668H17.1336V29.1905C17.1336 28.0421 17.0516 27.7549 16.707 27.6319C16.4035 27.5253 16.0344 27.6893 15.9523 27.9682C15.9277 28.0749 15.9031 28.6081 15.9031 29.1577V30.1667H15.5504C15.3043 30.1667 15.1484 30.1174 15.05 30.0108C14.9434 29.896 14.8203 29.1577 14.5168 26.8526C14.0738 23.4811 13.9918 23.2104 13.3273 22.6608C12.6875 22.1358 12.5152 22.103 10.5711 22.0456C9.15194 22.0128 8.75819 21.9799 8.56132 21.8651C7.80664 21.4549 7.49492 20.5034 7.85586 19.7077C7.93789 19.519 8.19219 19.2155 8.42187 19.0268C9.32421 18.2639 9.37343 18.0342 9.16015 15.3272C8.88124 11.6686 8.94687 10.4874 9.5539 8.68268C10.8336 4.84361 14.1805 1.97252 18.118 1.33268C22.8758 0.561579 27.5762 2.9651 29.7172 7.26354C30.4965 8.82213 30.8328 10.3889 30.8328 12.4643C30.8328 13.2272 30.8656 13.9245 30.9148 14.0065C31.0297 14.2198 31.448 14.351 31.6941 14.2362C31.9648 14.1131 32.0469 13.8506 32.1043 12.8991C32.1617 11.9475 32.0387 10.5038 31.8172 9.48658C30.8246 4.91744 27.2973 1.34088 22.7199 0.24986C21.9734 0.069392 21.6207 0.0365795 20.2098 0.0201733C19.3074 0.00376702 18.4789 0.0119701 18.3641 0.0283764ZM5.3375 24.3096C5.8707 24.4901 6.33008 24.9167 6.55156 25.4253C6.71562 25.8026 6.73203 25.9421 6.69102 26.5573C6.63359 27.3448 6.74844 27.7057 7.12578 27.919C7.24062 27.9846 8.74999 28.4194 10.4891 28.8788L13.6473 29.7237L13.7703 30.101C13.9508 30.6671 14.2215 30.9788 14.7383 31.2167C14.9926 31.3315 15.1648 31.4381 15.1238 31.4546C15.0746 31.471 14.7219 31.5694 14.3363 31.676L13.6309 31.8647L10.1527 30.9296C7.7082 30.2733 6.60078 30.0108 6.42031 30.0436C6.02656 30.1092 5.75586 30.3717 5.61641 30.8065C5.54258 31.028 5.37851 31.3233 5.25547 31.471L5.03398 31.7417L4.58281 31.6104C4.025 31.4463 3.18008 31.4463 2.61406 31.6104L2.1793 31.7417L1.99062 31.5038C1.74453 31.2085 1.54766 30.6342 1.54766 30.2241C1.54766 29.6991 1.71172 29.2971 2.13008 28.7967C2.67148 28.1569 2.82734 27.6729 2.7043 27.0085C2.56484 26.2128 2.58945 25.819 2.82734 25.3432C3.30312 24.3917 4.33672 23.9651 5.3375 24.3096ZM8.88944 31.8975C9.93124 32.1764 10.8172 32.4225 10.8746 32.4553C10.9484 32.4963 8.93866 33.0706 6.9043 33.5874C6.77305 33.6202 6.71562 33.5956 6.71562 33.5053C6.71562 33.4397 6.58437 33.1854 6.42031 32.9475C6.1332 32.521 6.1332 32.5046 6.26445 32.2995C6.33828 32.1846 6.47773 31.9221 6.57617 31.7088C6.69922 31.4463 6.79766 31.3315 6.87969 31.3561C6.94531 31.3725 7.85586 31.6186 8.88944 31.8975ZM33.2691 31.7088C33.3676 31.9221 33.507 32.1846 33.5809 32.2995C33.7121 32.5046 33.7121 32.521 33.425 32.9475C33.2609 33.1854 33.1297 33.4397 33.1297 33.5053C33.1297 33.5956 33.0723 33.6202 32.9492 33.5874C31.4152 33.1936 28.8805 32.4963 28.9051 32.4717C28.9379 32.4471 32.9164 31.3397 33.0476 31.3233C33.0723 31.3233 33.1707 31.4956 33.2691 31.7088ZM29.709 34.0303C33.2527 34.9819 33.5316 35.0229 33.8844 34.703C33.9746 34.621 34.1715 34.2928 34.3273 33.9729C34.6883 33.2018 34.7375 33.169 35.1887 33.3331C35.7137 33.5299 36.7637 33.5299 37.2641 33.3331L37.666 33.1772L37.8219 33.3741C38.109 33.7432 38.232 34.0467 38.273 34.5143C38.3305 35.1542 38.1418 35.671 37.6496 36.2534C37.1492 36.8358 36.9851 37.3936 37.141 37.9924C37.5184 39.4854 36.5668 40.7569 35.0656 40.7487C34.516 40.7405 34.073 40.5354 33.6547 40.076C33.2035 39.5838 33.0969 39.2393 33.1543 38.419C33.2035 37.7053 33.1215 37.3772 32.818 37.1147C32.7113 37.0163 30.8164 36.4749 27.6336 35.6217C24.8691 34.8753 22.5312 34.2436 22.4328 34.219C22.318 34.178 22.843 34.0057 24.1473 33.6448C25.1891 33.3659 26.0996 33.128 26.1816 33.128C26.2637 33.1198 27.8469 33.5299 29.709 34.0303Z" fill="#151515"/>
<path d="M13.9753 12.5873C12.2526 12.9483 10.9893 14.269 10.7268 15.9834C10.3003 18.7479 12.9663 21.1514 15.6815 20.4459C16.8135 20.1506 17.2893 19.7076 17.0186 19.1826C16.8217 18.8135 16.5592 18.7807 15.9686 19.0596C15.5256 19.2729 15.3862 19.2975 14.6807 19.2975C13.7374 19.2893 13.2944 19.117 12.6956 18.51C12.0885 17.8865 11.9245 17.4764 11.9245 16.5494C11.9245 15.9014 11.9573 15.7045 12.1131 15.3846C12.6874 14.2198 13.8276 13.6045 15.0745 13.7686C15.7553 13.867 16.2885 14.1541 16.7889 14.6955C17.3139 15.2698 17.4944 15.7865 17.5026 16.6889C17.5026 17.2221 17.5354 17.3862 17.6585 17.5256C17.8717 17.7635 18.2409 17.7471 18.5034 17.4846C18.7085 17.2795 18.7085 17.2549 18.6756 16.3772C18.6428 15.5323 18.6182 15.4502 18.2983 14.794C17.5928 13.3748 16.2065 12.5135 14.6725 12.5381C14.3772 12.5463 14.0655 12.5627 13.9753 12.5873Z" fill="#151515"/>
<path d="M24.1319 12.6531C22.9999 12.9566 22.0812 13.7195 21.5562 14.7941C21.2444 15.4094 21.2116 15.5488 21.1706 16.2461C21.105 17.5012 21.4167 18.4035 22.2042 19.2648C24.4765 21.734 28.619 20.4543 29.1194 17.1238C29.546 14.3183 26.8636 11.923 24.1319 12.6531ZM26.0761 13.8918C27.6019 14.384 28.3812 16.2297 27.6921 17.7226C27.2491 18.6988 26.4042 19.2566 25.2968 19.3222C24.4272 19.3633 23.8366 19.15 23.2296 18.5758C22.5897 17.9769 22.3519 17.4191 22.3437 16.5496C22.3437 15.9508 22.3765 15.7867 22.5733 15.3847C23.246 14.023 24.6323 13.4324 26.0761 13.8918Z" fill="#151515"/>
<path d="M19.4721 19.8553C18.1678 20.1998 16.7322 23.5713 17.3721 24.8182C17.7986 25.6549 18.7174 25.9584 19.5377 25.5401L19.9232 25.3514L20.3088 25.5401C21.1291 25.9584 22.0479 25.6549 22.4744 24.8182C22.9502 23.8912 22.2283 21.4631 21.1619 20.4049C20.8666 20.1096 20.5877 19.9127 20.3662 19.8471C19.9807 19.7323 19.915 19.7323 19.4721 19.8553ZM20.3744 21.3237C20.7764 21.7666 21.2193 22.7346 21.3834 23.5303C21.5146 24.1373 21.5064 24.1783 21.367 24.3342C21.0307 24.7033 20.4975 24.4408 20.4975 23.9158C20.4975 23.7846 20.4236 23.6123 20.3334 23.5221C19.9889 23.1776 19.349 23.4237 19.349 23.9158C19.349 24.4737 18.7584 24.728 18.4795 24.2932C18.3482 24.0963 18.3482 24.0389 18.4713 23.4811C18.7174 22.3573 19.5131 20.9791 19.9232 20.9791C20.0053 20.9791 20.2104 21.135 20.3744 21.3237Z" fill="#151515"/>
</g>
<defs>
<clipPath id="clip0_804_2300">
<rect width="39.293" height="42" fill="white" transform="translate(0.25)"/>
</clipPath>
</defs>
</svg>
