<svg width="21" height="42" viewBox="0 0 21 42" fill="none" xmlns="http://www.w3.org/2000/svg">
<g clip-path="url(#clip0_804_2210)">
<path d="M6.83647 0.231398L6.65635 0.419702V4.28403C6.65635 8.46767 6.59904 9.28638 6.20606 10.8092C5.84583 12.1928 5.37916 13.2817 4.47039 14.8536C3.99553 15.6805 3.70898 16.5729 3.70898 17.2279C3.70898 17.8583 3.93004 18.7016 4.24115 19.2583L4.53589 19.7905L4.2739 20.0852C3.89729 20.5109 3.70898 20.9776 3.70898 21.4934C3.70898 22.0829 3.91366 22.5004 4.43764 23.0162L4.86337 23.4337L4.66688 23.6712C4.06922 24.3835 3.65167 25.6934 3.73355 26.5858C3.79904 27.339 4.19203 28.0431 4.92068 28.7554L5.52653 29.3449L5.11717 29.7542C4.13472 30.7367 4.11834 32.2677 5.08442 33.2992C5.47741 33.7168 6.21425 34.1261 6.77097 34.2326C7.0739 34.2899 7.08208 34.2899 7.03296 34.5846C7.0084 34.7484 6.9429 35.3378 6.88559 35.8864C6.79553 36.7706 6.80372 36.9261 6.91015 37.1144C7.01659 37.3028 7.09027 37.3355 7.38501 37.3273C7.5815 37.3273 7.78618 37.2618 7.85986 37.1881C8.01542 37.0326 8.44936 33.6349 8.45755 32.546C8.45755 30.8595 7.84349 29.6396 6.36162 28.3706C5.10898 27.2981 4.85518 26.8314 5.01893 25.8899C5.26454 24.5145 6.31249 23.4911 7.69612 23.2782C8.40024 23.1718 8.98971 23.2782 9.71837 23.6712C10.0131 23.8267 10.3078 23.9495 10.3733 23.9495C10.4388 23.9495 10.6681 23.8104 10.8891 23.6466C12.1172 22.7051 13.64 22.7297 14.7043 23.7039C15.2611 24.2115 15.5885 24.8992 15.6459 25.6688C15.6704 26.0946 15.6377 26.3238 15.4657 26.8232C15.2119 27.5683 15.2037 27.6337 15.4248 27.9121C15.6459 28.1905 16.0552 28.2068 16.2844 27.9449C16.8084 27.3472 17.054 25.8244 16.7757 24.8092C16.6447 24.3098 16.2763 23.5074 16.1125 23.3764C16.0061 23.2946 16.047 23.2127 16.3581 22.8688C17.2014 21.9273 17.1277 20.7811 16.1535 19.9051L15.8178 19.6022L16.0552 19.2992C16.5874 18.6279 16.8903 17.67 16.8903 16.6876C16.8903 15.5741 16.7593 15.1811 15.785 13.4291C14.6961 11.456 14.0821 9.24545 13.9675 6.94484C13.9266 6.04426 13.8938 5.8314 13.7628 5.69221C13.5663 5.47935 13.2061 5.47935 12.9277 5.7004C12.723 5.85596 12.7149 5.90508 12.7149 6.57642C12.7149 8.06648 13.0178 9.79398 13.5499 11.4232C13.8447 12.3156 14.2131 13.0934 15.3511 15.2794C15.6704 15.8934 15.7523 16.8104 15.5476 17.5145C15.1137 19.0045 13.7956 19.9378 12.2646 19.8396C11.7979 19.8068 11.5441 19.7332 11.0692 19.5039C10.7336 19.332 10.3651 19.201 10.2505 19.201C10.1277 19.201 9.8903 19.3156 9.71837 19.4548C9.2517 19.8232 8.88328 19.9952 8.31837 20.0934C7.68793 20.208 7.24583 20.1425 6.59904 19.8478C5.60021 19.3729 4.99436 18.4068 4.98618 17.2279C4.97799 16.6712 5.01074 16.5484 5.27273 16.0408C6.90197 12.9297 7.28676 11.9636 7.65518 10.0723C7.81893 9.24545 7.8353 8.8279 7.87624 4.83257C7.93355 -0.0715278 7.94992 0.108591 7.34407 0.059468C7.09027 0.0430937 6.98384 0.0758423 6.83647 0.231398ZM15.1301 20.6829C15.564 20.994 15.7768 21.3952 15.6704 21.6735C15.6295 21.7718 15.4739 21.9846 15.3184 22.132L15.04 22.394L14.4997 22.1566C13.2961 21.608 12.1418 21.6326 10.9382 22.2384L10.2669 22.5741L9.71018 22.3449C9.19439 22.1238 9.07158 22.1074 8.13004 22.1074C7.1967 22.1156 7.05752 22.132 6.54173 22.3449C5.97682 22.5823 5.97682 22.5823 5.69027 22.4267C5.30548 22.2221 4.93705 21.7554 4.93705 21.477C4.93705 21.3297 5.0353 21.1332 5.21542 20.9449L5.49378 20.6419L6.05869 20.9039C7.35226 21.5016 8.60492 21.4606 9.84117 20.7893L10.3652 20.5028L10.7418 20.6583C11.364 20.9285 11.7815 21.0104 12.4938 21.0104C13.2143 21.0104 13.9266 20.8548 14.4178 20.5928C14.5815 20.5109 14.7371 20.4373 14.7453 20.4291C14.7616 20.4291 14.9336 20.5437 15.1301 20.6829ZM6.73822 30.5156C7.04115 31.015 7.23764 31.6782 7.28676 32.3577C7.33589 33.0127 7.3277 33.0373 7.15577 33.0373C6.70548 33.0373 6.06688 32.6279 5.78033 32.153C5.55109 31.7846 5.5429 31.4653 5.74758 31.0232C5.88676 30.7285 6.35343 30.2536 6.51717 30.2536C6.54992 30.2536 6.64817 30.3764 6.73822 30.5156Z" fill="#151515"/>
<path d="M13.0835 0.206818C12.9525 0.354186 12.9361 0.526116 12.9525 2.01617C12.9607 2.92494 12.9853 3.70272 13.0098 3.75184C13.0262 3.80915 13.1572 3.91559 13.2964 3.99746C13.5092 4.11208 13.5829 4.12027 13.763 4.03839C14.1396 3.85009 14.1888 3.64541 14.1888 1.9998C14.1888 0.583426 14.1806 0.460619 14.0168 0.25594C13.804 -0.014235 13.3127 -0.0469835 13.0835 0.206818Z" fill="#151515"/>
<path d="M8.72064 8.19747C8.31947 8.47583 8.59783 9.21268 9.10543 9.21268C9.36742 9.21268 9.68672 8.89338 9.68672 8.63958C9.68672 8.55771 9.61304 8.40215 9.51479 8.27934C9.3183 8.03371 8.999 8.00096 8.72064 8.19747Z" fill="#151515"/>
<path d="M11.7915 17.5473C11.4722 17.8994 11.7342 18.5462 12.1845 18.5462C12.4301 18.5462 12.7985 18.2105 12.7985 17.9894C12.7985 17.8994 12.7248 17.7356 12.6266 17.6128C12.4219 17.3509 11.9962 17.3181 11.7915 17.5473Z" fill="#151515"/>
<path d="M0.696809 18.8162C0.500318 19.0291 0.459382 19.422 0.623125 19.6267C0.795055 19.856 1.57284 20.2653 1.83482 20.2653C2.28512 20.2653 2.59623 19.7659 2.43248 19.332C2.40792 19.2583 2.1705 19.07 1.90851 18.9144C1.3436 18.5706 0.958801 18.5378 0.696809 18.8162Z" fill="#151515"/>
<path d="M18.7989 18.8736C18.2667 19.1765 18.0866 19.4303 18.1603 19.7742C18.2258 20.0689 18.4796 20.2654 18.7907 20.2654C19.0691 20.2654 19.8878 19.8151 20.0024 19.6105C20.1334 19.3567 20.0925 18.9637 19.9205 18.7918C19.6913 18.5625 19.2983 18.5871 18.7989 18.8736Z" fill="#151515"/>
<path d="M0.320287 21.0103C0.156545 21.1413 0.107422 21.2477 0.107422 21.4934C0.107422 21.9764 0.377597 22.1483 1.14719 22.1483C1.67935 22.1483 1.7776 22.1238 1.94953 21.9436C2.08052 21.8208 2.15421 21.6489 2.15421 21.4934C2.15421 21.3378 2.08052 21.1659 1.94953 21.0431C1.7776 20.8629 1.67935 20.8384 1.14719 20.8384C0.65596 20.8384 0.500404 20.8711 0.320287 21.0103Z" fill="#151515"/>
<path d="M18.798 20.937C18.3886 21.1335 18.405 21.8704 18.8226 22.0587C19.0354 22.1569 19.9769 22.1815 20.2062 22.0996C20.5828 21.9522 20.6483 21.2072 20.3044 20.9616C20.0998 20.8142 19.0764 20.7978 18.798 20.937Z" fill="#151515"/>
<path d="M1.2857 22.91C0.728972 23.2129 0.589791 23.3439 0.548855 23.6305C0.483358 24.0316 0.753533 24.3591 1.14652 24.3591C1.46582 24.3591 2.35003 23.8761 2.4319 23.655C2.52196 23.4094 2.48102 23.1556 2.30909 22.9345C2.09622 22.6644 1.75237 22.6562 1.2857 22.91Z" fill="#151515"/>
<path d="M18.3568 22.877C18.2176 22.9916 18.1685 23.1063 18.1766 23.3273C18.1848 23.6957 18.2831 23.8185 18.8152 24.1215C19.5357 24.539 20.1252 24.3671 20.1006 23.7449C20.0842 23.3682 20.0106 23.2782 19.4702 22.9671C18.979 22.6887 18.6269 22.656 18.3568 22.877Z" fill="#151515"/>
<path d="M9.49882 27.4536C9.17953 27.7975 9.45789 28.4524 9.90818 28.4524C10.1456 28.4524 10.5058 28.1086 10.5058 27.8957C10.5058 27.8056 10.4322 27.6419 10.3339 27.5191C10.1292 27.2571 9.7035 27.2244 9.49882 27.4536Z" fill="#151515"/>
<path d="M8.9491 28.5997C8.5643 28.7225 8.39237 29.2793 8.66255 29.5494C9.12103 30.0079 9.84968 29.5331 9.60407 28.9354C9.50582 28.7062 9.17015 28.5261 8.9491 28.5997Z" fill="#151515"/>
<path d="M13.7313 29.0586C13.5185 29.206 13.1009 30.0575 12.9044 30.7042C12.7816 31.1463 12.7653 31.7522 12.7325 36.4107C12.7079 41.5849 12.7079 41.6259 12.8717 41.7896C13.0764 41.9943 13.5103 42.0189 13.7477 41.8469C13.8951 41.7323 13.9033 41.5604 13.9442 36.5417C13.9851 31.4329 13.9933 31.351 14.1734 30.8516C14.2717 30.5651 14.4272 30.2212 14.5173 30.0738C14.7056 29.7627 14.7302 29.2551 14.5664 29.1159C14.3699 28.9522 13.9196 28.9194 13.7313 29.0586Z" fill="#151515"/>
<path d="M6.90211 38.8584C6.78749 38.8993 6.6565 38.9976 6.60737 39.0794C6.55006 39.1613 6.48457 39.7426 6.45182 40.3648C6.39451 41.4619 6.40269 41.5192 6.57462 41.7321C6.71381 41.9122 6.82024 41.9613 7.05767 41.9613C7.59802 41.9613 7.66351 41.8057 7.69626 40.4876C7.72082 39.759 7.69626 39.2923 7.63895 39.1859C7.50796 38.9321 7.14772 38.7765 6.90211 38.8584Z" fill="#151515"/>
</g>
<defs>
<clipPath id="clip0_804_2210">
<rect width="20.4678" height="42" fill="white" transform="translate(0.0996094)"/>
</clipPath>
</defs>
</svg>
