<svg width="47" height="42" viewBox="0 0 47 42" fill="none" xmlns="http://www.w3.org/2000/svg">
<g clip-path="url(#clip0_804_2238)">
<path d="M23.5275 0.139513C23.4195 0.18448 23.2936 0.301397 23.2397 0.400326C23.1138 0.625166 23.1048 5.4817 23.2307 5.70654C23.3746 5.98534 23.8153 6.12024 24.13 5.98534C24.2829 5.92238 24.4448 5.79647 24.4898 5.70654C24.5437 5.6166 24.5797 4.47442 24.5797 3.03545C24.5797 0.769063 24.5617 0.499256 24.4268 0.328378C24.238 0.112532 23.8153 0.0136028 23.5275 0.139513Z" fill="#151515"/>
<path d="M13.1052 1.9743C12.5386 2.22612 12.5566 2.36102 13.5369 5.06809C14.2653 7.07366 14.3912 7.36145 14.6071 7.47837C14.751 7.55032 14.9398 7.60428 15.0478 7.60428C15.3266 7.60428 15.6773 7.20856 15.6773 6.89378C15.6773 6.65995 14.3013 2.72076 14.0495 2.23511C13.9685 2.09121 13.5009 1.81241 13.393 1.84839C13.384 1.85738 13.2581 1.91134 13.1052 1.9743Z" fill="#151515"/>
<path d="M33.8526 2.10026C33.6098 2.28913 32.0449 6.49812 32.0449 6.9478C32.0449 7.35251 32.3147 7.60433 32.7464 7.60433C32.9713 7.60433 33.1511 7.54138 33.2411 7.44245C33.4299 7.2356 35.0128 2.90969 35.0128 2.6129C35.0128 2.07328 34.2753 1.74951 33.8526 2.10026Z" fill="#151515"/>
<path d="M3.22993 6.62388C3.05006 6.76778 2.99609 6.8847 2.99609 7.14551C2.99609 7.45129 3.14898 7.65814 4.534 9.32196C5.42436 10.3832 6.17982 11.2016 6.32372 11.2646C6.6295 11.3995 7.08817 11.2736 7.22307 11.0217C7.4659 10.5631 7.36697 10.3742 5.86504 8.57549C5.06462 7.62217 4.31815 6.74979 4.19224 6.63288C3.92243 6.38106 3.5447 6.38106 3.22993 6.62388Z" fill="#151515"/>
<path d="M43.458 6.885C43.3771 6.92996 42.6036 7.81133 41.7492 8.82761C40.4182 10.4195 40.1934 10.7253 40.1934 10.9861C40.1934 11.4987 40.7779 11.8854 41.2096 11.6606C41.3625 11.5797 43.6829 8.88157 44.3484 8.01819C44.6092 7.67643 44.6002 7.28971 44.3214 7.0199C44.0966 6.78607 43.7188 6.73211 43.458 6.885Z" fill="#151515"/>
<path d="M19.886 9.0971C13.6714 9.8076 7.45687 13.0003 2.42946 18.0637C1.665 18.8282 1.1164 19.4577 1.00847 19.6825C0.783634 20.1952 0.783634 21.0765 1.00847 21.5352C1.35023 22.2007 4.52496 25.1057 6.72839 26.7695C9.03973 28.5142 12.3314 30.4479 12.9969 30.4479C13.5365 30.4479 13.8783 29.8633 13.6085 29.3686C13.5635 29.2787 13.0239 28.9459 12.4123 28.6312C9.68727 27.2012 7.07913 25.3305 4.30012 22.8033C2.69027 21.3464 2.27656 20.8877 2.27656 20.5909C2.27656 20.402 2.51939 20.1052 3.38277 19.2329C6.51254 16.0491 10.1639 13.6029 14.0582 12.074C14.9305 11.7322 15.4702 11.5613 17.2509 11.0487C17.3498 11.0217 17.1699 11.1926 16.8462 11.4264C15.3712 12.5147 13.6984 14.4932 13.6984 15.1408C13.6984 15.2397 13.7794 15.4196 13.8873 15.5545C14.0312 15.7344 14.1481 15.7883 14.4089 15.7883C14.8226 15.7883 14.9125 15.7164 15.4522 14.9339C16.9361 12.8204 19.4813 11.2196 22.1524 10.7429C23.1057 10.572 24.9044 10.599 25.8397 10.7969C27.8993 11.2196 29.7789 12.2449 31.2449 13.7198C32.6839 15.1768 33.6911 17.1194 34.0779 19.1789C34.2937 20.3481 34.2128 22.3626 33.907 23.5498C33.6282 24.593 32.9357 26.086 32.3421 26.9314C30.0487 30.1691 26.0016 31.8688 22.1884 31.2123C17.8984 30.4568 14.5618 27.2371 13.7074 23.0102C13.4466 21.7601 13.4556 20.1052 13.7074 18.9361C14.0042 17.614 14.0222 17.2813 13.7973 17.0564C13.5635 16.8226 13.0689 16.8046 12.8081 17.0204C12.5562 17.2273 12.2055 18.6123 12.0796 19.8984C11.8727 21.9309 12.2864 24.2423 13.1948 26.104C13.8963 27.5429 14.9036 28.883 16.0008 29.8273C16.2886 30.0791 16.5764 30.3309 16.6213 30.3759C16.6753 30.4209 16.4864 30.3759 16.2166 30.277C15.9468 30.1691 15.6051 30.0881 15.4702 30.0881C15.1374 30.0881 14.7776 30.4568 14.7776 30.7806C14.7776 31.2663 14.9755 31.4102 16.3066 31.8329C21.4329 33.4877 26.865 33.4157 32.1352 31.635C35.7956 30.3939 39.3751 28.3434 42.8376 25.5104C44.2316 24.3682 46.516 22.1108 46.7138 21.6791C46.9387 21.2025 46.9297 20.3571 46.7138 19.8624C46.525 19.4577 45.3828 18.4324 43.4402 16.9305C41.9832 15.8063 41.6864 15.6085 41.3806 15.6085C40.895 15.6085 40.5532 16.1571 40.7331 16.6427C40.7691 16.7147 41.2817 17.1553 41.8843 17.605C43.5571 18.8641 45.3558 20.393 45.4098 20.6179C45.4997 20.9686 45.3648 21.1575 44.2046 22.2637C40.3644 25.9601 36.1194 28.6761 31.8205 30.1691L31.0111 30.4568L31.5057 30.0252C34.2038 27.7048 35.6697 24.5301 35.6697 21.0046C35.6697 19.5566 35.4899 18.4594 35.0492 17.1374C34.4826 15.4466 33.6282 14.0526 32.3151 12.7125C31.8924 12.2718 31.6316 11.9481 31.7305 11.975C32.8907 12.3168 36.0654 13.8277 37.8372 14.88C38.5027 15.2847 38.9973 15.5185 39.1682 15.5185C39.6809 15.5185 40.0316 14.907 39.7798 14.4303C39.6449 14.1875 37.6573 13.0273 35.8676 12.1459C32.3151 10.4102 28.8796 9.39389 25.3091 9.04314C24.05 8.91723 21.1721 8.94421 19.886 9.0971Z" fill="#151515"/>
<path d="M27.7723 12.8924C27.1967 13.0903 26.792 13.3781 26.4682 13.8278C25.452 15.2218 25.9826 17.2723 27.5385 17.9738C28.132 18.2436 29.1483 18.2436 29.7509 17.9648C30.7582 17.5061 31.3607 16.5798 31.3607 15.4736C31.3607 14.2145 30.6323 13.2252 29.4451 12.8744C28.8156 12.6946 28.3389 12.6946 27.7723 12.8924ZM28.9954 14.2594C29.4811 14.3943 29.8139 14.7991 29.8678 15.3207C29.9308 16.0222 29.607 16.4809 28.9055 16.6877C28.1231 16.9125 27.2327 16.0492 27.4126 15.2487C27.4935 14.898 27.8712 14.4483 28.222 14.2954C28.5547 14.1515 28.5907 14.1515 28.9954 14.2594Z" fill="#151515"/>
<path d="M22.7899 16.8226C21.1261 17.2903 19.894 18.6573 19.6332 20.3301C19.5252 20.9956 19.5612 21.4813 19.777 22.2368C19.9209 22.7584 20.1638 22.9832 20.5775 22.9832C21.1261 22.9832 21.4049 22.3896 21.1531 21.7511C20.9732 21.2924 21.0272 20.447 21.27 19.9074C21.5937 19.2149 21.9895 18.8012 22.673 18.4684C23.1856 18.2166 23.3655 18.1717 23.9051 18.1717C25.9107 18.1896 27.2507 20.3121 26.3873 22.1288C25.7668 23.4419 24.2828 24.1164 23.0057 23.6577C22.1873 23.361 21.6657 23.5768 21.6657 24.2153C21.6657 24.8179 22.2593 25.1237 23.5813 25.2046C24.4897 25.2676 25.1552 25.1327 25.8837 24.746C28.3209 23.4599 28.8965 20.1053 27.0259 18.0997C26.4773 17.5241 25.9646 17.1734 25.3171 16.9485C24.6246 16.7057 23.4194 16.6427 22.7899 16.8226Z" fill="#151515"/>
<path d="M6.21579 30.421C6.08089 30.5109 5.30744 31.3833 4.48903 32.3726C3.131 33.9914 2.99609 34.1893 2.99609 34.495C2.99609 34.7649 3.05006 34.8818 3.22993 35.0257C3.52671 35.2595 3.90444 35.2685 4.14727 35.0526C4.2462 34.9717 5.00166 34.0903 5.82008 33.11C7.07018 31.6081 7.31301 31.2663 7.31301 31.0235C7.31301 30.4389 6.70145 30.0972 6.21579 30.421Z" fill="#151515"/>
<path d="M40.7235 30.6908C40.3098 30.7987 40.067 31.2394 40.2199 31.6351C40.3098 31.8689 42.7651 34.8278 43.2417 35.2775C43.7724 35.7812 44.4019 35.6013 44.5098 34.9358C44.5638 34.621 44.5098 34.549 42.9719 32.7054C41.6589 31.1315 41.0743 30.5469 40.9214 30.6368C40.9124 30.6458 40.8225 30.6728 40.7235 30.6908Z" fill="#151515"/>
<path d="M14.301 34.5132C14.1032 34.6661 12.5293 38.992 12.5293 39.3877C12.5293 40.0982 13.5096 40.332 13.8334 39.7115C14.0492 39.2888 15.4972 35.2507 15.4972 35.0618C15.4972 34.9629 15.4162 34.774 15.3083 34.6391C15.1644 34.4592 15.0475 34.4053 14.7867 34.4053C14.6068 34.4053 14.382 34.4592 14.301 34.5132Z" fill="#151515"/>
<path d="M32.0362 34.6658C31.8923 34.8097 31.7754 34.9986 31.7754 35.0795C31.7754 35.3493 33.4122 39.7562 33.5741 39.9181C33.673 40.026 33.8619 40.0889 34.0688 40.0889C34.5004 40.0889 34.7792 39.8281 34.7792 39.4234C34.7703 38.9468 33.2413 34.8457 32.9805 34.6029C32.6747 34.333 32.351 34.351 32.0362 34.6658Z" fill="#151515"/>
<path d="M23.3657 36.0149C22.925 36.2038 22.916 36.2488 22.916 38.9648V41.528L23.1678 41.7438C23.5096 42.0316 23.8154 42.0226 24.1391 41.6899L24.4089 41.4291L24.382 38.9109C24.355 36.5276 24.346 36.3747 24.1751 36.2128C23.9593 35.997 23.6085 35.916 23.3657 36.0149Z" fill="#151515"/>
</g>
<defs>
<clipPath id="clip0_804_2238">
<rect width="46.137" height="42" fill="white" transform="translate(0.828125)"/>
</clipPath>
</defs>
</svg>
