<svg width="43" height="42" viewBox="0 0 43 42" fill="none" xmlns="http://www.w3.org/2000/svg">
<g clip-path="url(#clip0_804_2227)">
<path d="M28.1767 0.13213C23.5919 0.959034 19.924 4.07014 18.4012 8.44206C17.9182 9.82568 17.7463 10.89 17.7463 12.5029C17.7463 14.2058 17.8363 14.7052 18.5895 17.3906C19.2609 19.7731 19.4164 20.5099 19.4328 21.3122C19.441 22.4011 18.9989 23.0643 17.8036 23.752C16.7802 24.3415 16.117 25.2011 15.9042 26.2C15.6913 27.2233 15.8387 28.6479 16.2317 29.4257C16.4527 29.8596 17.1322 30.5801 17.5662 30.8339C18.0164 31.104 18.4749 31.5871 18.655 31.9883C18.7697 32.2584 18.8024 32.6596 18.8433 34.3625C18.8925 36.1473 18.917 36.4994 19.0808 37.0888C19.3591 38.0795 19.8176 38.366 20.2679 37.8339C20.5217 37.5309 20.5217 37.5719 20.3088 36.835C20.1615 36.3356 20.1287 35.9263 20.0796 34.1169L20.0305 31.9883L19.7767 31.4479C19.4492 30.7684 19.0644 30.3345 18.303 29.8105C17.3124 29.1228 16.9931 28.435 17.0586 27.1333C17.1159 25.9462 17.4925 25.3403 18.5322 24.7836C19.2773 24.3742 20.055 23.621 20.3334 23.0233C20.9229 21.7707 20.8328 20.7473 19.8258 17.1614C19.0562 14.4514 18.9743 14.0011 18.9825 12.4619C18.9825 11.0374 19.1381 10.0713 19.5884 8.80229C20.7755 5.44558 23.5346 2.76839 26.8667 1.73681C28.9381 1.09822 31.3287 1.08184 33.4574 1.69588C34.2352 1.91693 35.848 2.67015 36.6258 3.17775C37.1334 3.50523 37.3299 3.51342 37.6574 3.2105C38.0913 2.80933 37.772 2.36722 36.5521 1.67131C35.3814 0.99997 34.4562 0.639733 33.0071 0.287686C32.2621 0.115756 31.9182 0.0830074 30.4691 0.0502588C29.2983 0.0338846 28.6024 0.058446 28.1767 0.13213Z" fill="#151515"/>
<path d="M29.1758 2.71949C25.3442 3.11247 22.0366 5.8388 20.8576 9.5803C20.1372 11.8809 20.2764 14.3207 21.2424 16.3101C21.5945 17.0306 21.7664 17.2762 22.3231 17.8329C23.1091 18.6271 23.6003 18.8563 24.5337 18.8645C25.3196 18.8645 25.9009 18.6353 26.5395 18.0704C27.1536 17.5136 27.5793 17.2926 28.136 17.2353C29.0202 17.1452 29.9454 17.7019 30.3056 18.5288C30.453 18.8727 30.4775 19.0774 30.453 19.544C30.4284 20.1171 30.4202 20.1253 29.4296 21.8037C27.9641 24.2598 27.5547 25.2505 27.1536 27.2318C26.9161 28.4435 26.7933 28.7382 26.3922 29.0902C25.7617 29.647 24.9676 29.8353 24.2144 29.6224C23.8132 29.5078 23.6331 29.3768 23.0518 28.8119C22.3723 28.1569 21.7173 27.6902 21.4553 27.6902C21.3816 27.6902 21.2261 27.7721 21.1033 27.8622C20.9231 28.0014 20.8822 28.0914 20.9068 28.337C20.9313 28.5908 20.9886 28.6645 21.3407 28.8938C21.5617 29.0411 21.9957 29.4177 22.2986 29.7288C23.0272 30.4821 23.6576 30.8014 24.55 30.8587C25.598 30.9323 26.474 30.6131 27.2518 29.8762C27.8167 29.344 28.046 28.8446 28.2588 27.6902C28.6191 25.7745 29.0284 24.7674 30.3875 22.4914C30.9033 21.6318 31.3781 20.7721 31.46 20.5674C32.0658 18.9628 31.329 17.1534 29.7407 16.3674C29.2413 16.1218 29.1512 16.1054 28.3407 16.1054C27.5465 16.1054 27.4401 16.1218 26.9489 16.3592C26.6541 16.4984 26.1793 16.8177 25.8927 17.0715C25.3033 17.6037 24.9676 17.7347 24.3617 17.6856C23.8132 17.6364 23.3875 17.3663 22.8962 16.744C22.0202 15.6142 21.6764 14.5826 21.6764 13.0353C21.6764 11.1768 22.2331 9.77679 23.5103 8.42592C24.5091 7.36979 25.4834 6.79669 26.8506 6.47739C27.4401 6.33003 27.7348 6.31365 28.5863 6.3464C29.7243 6.38734 30.3056 6.51833 31.1816 6.93587C32.6717 7.63178 33.736 8.69609 34.4401 10.178C34.784 10.9066 35.0541 11.9218 35.0541 12.4949C35.0541 13.2072 35.398 13.6002 35.8729 13.4364C36.2003 13.3218 36.2986 13.0189 36.2413 12.3885C35.9138 9.03176 33.6787 6.3382 30.4775 5.41306C28.6927 4.89727 26.5313 5.10196 24.8612 5.93704C24.2717 6.23178 24.3699 6.07622 25.1395 5.5113C25.9992 4.88089 27.0144 4.39785 28.1278 4.09493C28.6927 3.93937 29.0038 3.91481 30.2237 3.90663C31.5419 3.90663 31.722 3.93119 32.4752 4.13587C35.5208 4.97914 37.7805 7.2388 38.6401 10.309C38.8448 11.054 38.8612 11.2259 38.8612 12.6669C38.8612 13.9932 38.8366 14.3452 38.6729 15.0657C38.2307 17.0552 37.4366 18.7908 36.2904 20.2809C36.0857 20.5511 35.0132 21.8037 33.9079 23.0645C31.5828 25.7171 31.3536 25.9955 30.6904 26.9943C29.2413 29.1967 28.4062 31.792 28.2588 34.6084C28.1851 35.992 28.1033 36.3604 27.7267 36.9335C27.481 37.3019 27.1699 37.5557 26.6214 37.8505C26.3103 38.0142 26.1384 38.047 25.4752 38.047C24.7875 38.047 24.6483 38.0224 24.2881 37.8259C23.4366 37.3756 22.8471 36.4996 22.7243 35.5171C22.6588 34.9686 22.4787 34.7312 22.1348 34.7312C21.8074 34.7312 21.5454 35.0341 21.5454 35.4107C21.5454 36.3277 22.0038 37.4002 22.6916 38.0879C24.4927 39.8891 27.3992 39.6025 28.7664 37.4821C29.2167 36.778 29.3313 36.3359 29.405 34.854C29.5606 32.0867 30.2974 29.7452 31.6729 27.6493C32.2951 26.7078 32.5898 26.3476 34.6939 23.9569C35.6518 22.868 36.6916 21.6563 37.0191 21.2552C38.7547 19.0938 39.8027 16.4739 40.0483 13.6493C40.3348 10.4154 39.2869 7.56628 37.0109 5.38031C35.9384 4.35692 34.6693 3.59551 33.253 3.13703C32.1313 2.76861 30.412 2.59668 29.1758 2.71949Z" fill="#151515"/>
<path d="M38.5413 3.98851C38.2957 4.36512 38.3694 4.64348 38.8688 5.23296C40.5963 7.26337 41.5214 9.83412 41.5214 12.585C41.5214 14.902 41.0302 17.0552 40.0232 19.1756C39.2454 20.8131 38.615 21.6727 35.9951 24.661C33.5799 27.4119 33.2688 27.7967 32.7612 28.6318C31.5577 30.6376 31.0173 32.4306 30.8699 34.9113C30.7881 36.4259 30.7144 36.7616 30.305 37.6376C29.4044 39.5534 27.5869 40.7078 25.4746 40.7078C24.1319 40.7078 22.8793 40.2329 21.8887 39.3406C21.3156 38.8411 21.0699 38.7675 20.6933 39.0213C20.4313 39.1932 20.4068 39.5616 20.6442 39.8891C20.898 40.2411 21.9296 40.9944 22.6091 41.3137C23.5588 41.7639 24.353 41.9359 25.4746 41.9359C27.8161 41.9359 29.8138 40.847 31.0664 38.8984C31.7541 37.8259 31.9998 36.9008 32.1062 35.0259C32.2618 32.4142 32.9904 30.3265 34.415 28.4353C34.6033 28.1815 35.6512 26.9616 36.7319 25.7253C39.1553 22.9581 39.36 22.7043 40.0723 21.6318C41.4477 19.5441 42.3565 17.0552 42.6676 14.4926C42.7986 13.4201 42.7331 10.8329 42.5448 10.006C42.1927 8.41774 41.5787 6.92769 40.7846 5.70781C40.277 4.93822 39.4337 3.89845 39.2617 3.83296C38.9752 3.71834 38.6723 3.78383 38.5413 3.98851Z" fill="#151515"/>
<path d="M12.3756 6.89468C12.1791 7.09117 12.1627 7.51691 12.3265 7.76252C12.392 7.85258 12.6048 7.97538 12.8013 8.03269C13.5709 8.27011 14.2341 8.73678 14.7417 9.41631C15.1838 9.9976 15.413 10.6444 15.4785 11.504C15.5522 12.3555 15.675 12.5438 16.1581 12.5438C16.6657 12.5438 16.7967 12.3473 16.7967 11.5777C16.7885 9.89117 15.9288 8.31105 14.5043 7.3941C13.5382 6.77188 12.6949 6.57538 12.3756 6.89468Z" fill="#151515"/>
<path d="M11.8185 9.04795C11.5974 9.28537 11.5729 9.76023 11.7857 9.94034C11.8594 10.014 12.0723 10.1286 12.2524 10.2023C12.8828 10.4643 13.2676 11.0374 13.2758 11.7088C13.2758 12.3883 13.9389 12.7076 14.3974 12.2491C14.5939 12.0526 14.6021 12.0035 14.5694 11.455C14.4957 10.3988 13.8898 9.50643 12.9237 9.05613C12.3834 8.80233 12.0477 8.80233 11.8185 9.04795Z" fill="#151515"/>
<path d="M8.51887 12.0853C7.78203 12.3473 7.38086 12.9122 7.38086 13.6818C7.38086 14.173 7.46273 14.345 8.08495 15.221C9.94347 17.8081 10.4511 21.1075 9.43586 24.0877C9.12475 25.0128 8.64987 25.9543 8.08495 26.7321C7.46273 27.6081 7.38086 27.7801 7.38086 28.2713C7.38086 29.4011 8.41244 30.1953 9.51773 29.9005C9.96803 29.7777 10.4429 29.3029 11.0815 28.345C12.5797 26.0935 13.3002 23.7029 13.3002 20.9765C13.3002 19.683 13.2019 18.897 12.9072 17.7017C12.547 16.2771 11.9329 14.8853 11.1142 13.6572C10.4101 12.5929 10.0581 12.2409 9.56686 12.0935C9.06744 11.9461 8.90367 11.9461 8.51887 12.0853ZM9.81247 13.9847C10.6557 15.0982 11.4253 16.8339 11.8183 18.4713C11.9739 19.1181 11.9984 19.4537 11.9984 20.9765C11.9984 22.4994 11.9739 22.835 11.8183 23.4818C11.4253 25.1192 10.6557 26.8549 9.81247 27.9684C9.28031 28.6806 9.13294 28.7871 8.85454 28.6479C8.52706 28.4841 8.55981 28.2058 8.9692 27.6572C11.9411 23.6947 11.9411 18.2584 8.9692 14.2958C8.55981 13.7473 8.52706 13.4689 8.85454 13.3052C9.13294 13.166 9.28031 13.2725 9.81247 13.9847Z" fill="#151515"/>
<path d="M5.42457 14.443C4.7696 14.5576 4.23743 15.1307 4.13919 15.8266C4.07369 16.3342 4.21287 16.7764 4.60585 17.2921C5.03977 17.8652 5.52281 18.8886 5.70293 19.6091C5.87486 20.3214 5.87486 21.5904 5.71112 22.319C5.53919 23.0313 5.09708 23.9974 4.66316 24.5705C3.92632 25.5366 3.92632 26.3962 4.6386 27.084C5.26082 27.6898 6.30059 27.7144 6.90644 27.1495C7.96258 26.1506 9.01869 23.719 9.14969 21.9916C9.207 21.3448 9.19881 21.3284 8.97776 21.1565C8.82223 21.0337 8.69123 20.9927 8.53568 21.0255C8.14269 21.1237 7.97895 21.353 7.92164 21.9015C7.77427 23.1869 7.29942 24.4804 6.55439 25.5693C6.14503 26.1752 6.01404 26.298 5.79299 26.298C5.55556 26.298 5.29357 26.0196 5.36726 25.8395C5.39182 25.7658 5.62106 25.4056 5.85848 25.0372C6.71813 23.76 7.07837 22.5401 7.07837 20.9763C7.07837 19.4126 6.71813 18.1927 5.85848 16.9155C5.62106 16.5471 5.39182 16.1869 5.36726 16.1132C5.29357 15.9331 5.55556 15.6547 5.79299 15.6547C6.01404 15.6547 6.14503 15.7775 6.55439 16.3834C7.1193 17.2103 7.51229 18.119 7.79065 19.2243C7.88889 19.6337 8.08538 19.822 8.42106 19.8465C8.78129 19.8711 9.01869 19.6418 9.01869 19.2652C9.01869 18.119 7.61872 15.319 6.72632 14.6559C6.45615 14.4594 5.86667 14.3611 5.42457 14.443Z" fill="#151515"/>
<path d="M2.10094 16.8749C1.63428 16.9895 1.31498 17.2188 1.06936 17.6036C0.840123 17.9556 0.823749 18.0375 0.84831 18.5696C0.872871 19.0772 0.913807 19.2082 1.16761 19.593C1.52784 20.1416 1.65065 20.4854 1.65065 20.9767C1.65065 21.4761 1.52784 21.8199 1.16761 22.3603C0.913807 22.7451 0.872871 22.8679 0.84831 23.3837C0.831936 23.8667 0.856497 24.0141 1.01205 24.2924C1.60153 25.2995 3.09977 25.3731 3.8448 24.4398C5.11381 22.8188 5.36761 20.4445 4.47521 18.5615C4.11498 17.8082 3.68106 17.2433 3.30445 17.055C2.93603 16.8667 2.42843 16.793 2.10094 16.8749ZM3.05065 18.5942C3.55825 19.3474 3.73837 19.986 3.73837 20.9767C3.73837 21.7135 3.70562 21.9264 3.50913 22.4503C3.20621 23.2772 2.78866 23.8422 2.48574 23.8422C1.98632 23.8422 1.92901 23.4737 2.34656 22.8597C2.72317 22.303 2.87872 21.7462 2.87872 20.9767C2.87872 20.2071 2.72317 19.6503 2.34656 19.0936C1.92083 18.4632 1.98632 18.0784 2.5103 18.1275C2.70679 18.1439 2.82141 18.2422 3.05065 18.5942Z" fill="#151515"/>
<path d="M12.8907 30.1214C12.8334 30.1378 12.6778 30.3916 12.5387 30.67C12.2275 31.3331 11.8427 31.6115 11.155 31.6934C10.541 31.767 10.3281 31.939 10.3281 32.3729C10.3281 32.8477 10.541 33.0115 11.1468 33.0115C12.1539 33.0115 13.1199 32.4302 13.5948 31.5378C13.9387 30.8992 13.9714 30.4407 13.693 30.2197C13.5129 30.0723 13.1199 30.0232 12.8907 30.1214Z" fill="#151515"/>
<path d="M14.9713 30.7848C14.8976 30.8667 14.783 31.0959 14.7093 31.2924C14.1771 32.8071 12.7198 33.9123 11.2789 33.9123C10.7549 33.9123 10.3538 34.0433 10.2473 34.2398C10.1081 34.5018 10.1573 34.8538 10.3538 35.0421C10.5175 35.1977 10.6403 35.2223 11.197 35.2223C13.0637 35.2223 14.8157 34.1252 15.6426 32.4304C16.0766 31.5462 16.1421 31.1696 15.8964 30.8585C15.6836 30.5883 15.1842 30.5474 14.9713 30.7848Z" fill="#151515"/>
</g>
<defs>
<clipPath id="clip0_804_2227">
<rect width="42" height="42" fill="white" transform="translate(0.761719)"/>
</clipPath>
</defs>
</svg>
