<svg width="43" height="42" viewBox="0 0 43 42" fill="none" xmlns="http://www.w3.org/2000/svg">
<g clip-path="url(#clip0_804_2252)">
<path d="M21.1091 0.186806C20.6997 0.366923 20.2249 0.890896 20.0775 1.30844C19.9956 1.54587 19.9629 2.11078 19.9629 3.42891V5.23008L20.2085 5.664C20.9781 7.07218 22.9594 7.07218 23.729 5.664L23.9746 5.23008V3.42891C23.9746 1.40669 23.9337 1.19382 23.4506 0.661659C23.0494 0.211367 22.6237 0.03125 21.9687 0.03125C21.6249 0.03125 21.322 0.08856 21.1091 0.186806ZM22.4682 1.55405C22.6646 1.75873 22.6646 1.78329 22.6646 3.34704C22.6646 4.91078 22.6646 4.93534 22.4682 5.14002C22.2062 5.41838 22.0097 5.4675 21.7231 5.35288C21.281 5.17277 21.2155 4.86166 21.2483 3.22423C21.2728 1.80785 21.281 1.75873 21.4693 1.55405C21.7477 1.25932 22.1898 1.25932 22.4682 1.55405Z" fill="#151515"/>
<path d="M13.1197 4.23956C12.3255 4.51792 11.8179 5.26295 11.8179 6.13079C11.8179 6.71208 11.9735 7.0805 12.4401 7.56354L12.874 8.02202L12.2191 8.67703C11.2857 9.5858 11.1466 10.0197 11.6705 10.38C12.0308 10.6338 12.2027 10.5519 13.0378 9.73317L13.8319 8.95539L14.2004 9.34837C14.405 9.56124 14.6097 9.79048 14.667 9.86416C14.7407 9.96241 14.446 10.2981 12.8495 11.8946L10.9419 13.8022L10.4343 13.3355L9.93486 12.8607L10.3115 12.4595C10.639 12.1074 10.6799 12.0256 10.639 11.7963C10.5653 11.4197 10.3688 11.2478 10.0004 11.2478C9.74655 11.2478 9.61556 11.3133 9.3372 11.5671L8.99338 11.8864L8.5349 11.4525C8.00274 10.9449 7.59338 10.7975 6.89747 10.863C6.36531 10.9121 6.04601 11.0595 5.68578 11.4197C5.32554 11.78 5.17817 12.0993 5.12905 12.6314C5.04718 13.5484 5.11268 13.6548 6.88928 15.4478C7.78168 16.3402 8.77233 17.2899 9.09981 17.5601C10.2378 18.477 11.777 19.0583 13.3816 19.1647L14.1676 19.2139L14.2167 20.0408C14.2986 21.4408 14.7407 22.7262 15.5349 23.9215C15.7395 24.2326 16.5091 25.0759 17.3197 25.87C18.8425 27.3764 19.4237 27.794 20.6764 28.277C21.405 28.5554 22.5021 28.7683 23.2471 28.7683H23.7711V29.2513C23.7711 30.9378 24.5816 33.0501 25.6705 34.1963C26.0963 34.6466 26.1536 34.6794 26.3992 34.6302C26.7922 34.5566 26.9641 34.3601 26.9641 34.008C26.9641 33.7706 26.8822 33.6069 26.5711 33.2221C25.8343 32.3051 25.4167 31.3881 25.1957 30.2583C24.9337 28.8993 25.0811 28.1215 26.0963 25.5835C26.9395 23.463 27.0951 22.8408 27.0132 21.9729C26.9068 20.7531 26.4237 19.7706 25.4331 18.6981C24.9501 18.1823 24.8354 18.0104 24.8354 17.7975C24.8354 17.4454 25.1547 17.1425 25.515 17.1425C25.7606 17.1425 25.8834 17.2326 26.4892 17.863C27.5454 18.9601 28.1349 20.0817 28.3477 21.3998C28.5688 22.7589 28.4214 23.5121 27.4471 25.9601C27.0378 26.9916 26.6448 28.0805 26.5793 28.3998C26.4319 29.0794 26.4892 29.9226 26.7185 30.6759C27.0214 31.6338 27.398 32.1414 29.1583 33.9343C30.984 35.801 31.0167 35.8583 30.5746 36.3086C30.198 36.6852 29.9933 36.6279 29.2974 35.9729C28.7571 35.4571 28.6588 35.3998 28.3641 35.3998C28.1103 35.3998 28.0039 35.449 27.8729 35.6127C27.5618 36.0057 27.6354 36.194 28.4214 36.9554C29.2319 37.7577 29.5758 37.9133 30.3536 37.8314C30.8694 37.7823 31.1887 37.6267 31.5407 37.2747C31.9009 36.9145 32.0483 36.5952 32.0974 36.0548C32.1629 35.3753 31.9746 34.8759 31.467 34.3764L31.0577 33.9671L32.998 32.0267L34.9384 30.0864L35.3968 30.5285C35.9372 31.0361 36.3466 31.1835 37.0425 31.118C37.5746 31.0688 37.8939 30.9215 38.2542 30.5612C38.6144 30.201 38.7618 29.8817 38.8109 29.3414C38.9009 28.408 38.8191 28.2852 36.6413 26.1402C34.9547 24.4782 34.6109 24.1671 34.005 23.8314C32.8834 23.201 31.3524 22.7916 30.1653 22.7916H29.7723L29.7232 21.9484C29.6085 19.9916 28.8881 18.4115 27.4226 16.9051C26.5629 16.0209 26.2354 15.8408 25.5068 15.8326C24.6717 15.8326 23.943 16.2911 23.6401 17.0279C23.4928 17.3881 23.4928 18.2232 23.6483 18.5835C23.7138 18.739 24.0577 19.1893 24.4179 19.5741C25.7033 20.9577 26.0062 22.1694 25.4413 23.6595L25.2202 24.2408L24.639 24.4618C23.5746 24.863 22.7723 24.8221 21.7243 24.3226C20.9547 23.9542 19.0062 22.0057 18.6378 21.2361C18.1384 20.1881 18.0974 19.3858 18.4986 18.3215L18.7197 17.7402L19.3173 17.5191C19.6939 17.3718 20.1606 17.2735 20.6273 17.2326C21.6916 17.1425 22.1501 16.8724 22.543 16.0864C22.8132 15.546 22.7559 14.6946 22.4202 14.146C22.0518 13.5566 21.5524 13.2782 20.7828 13.2291L20.1688 13.1881V12.7952C20.1688 11.6735 19.8004 10.2244 19.2518 9.20101C18.8015 8.34954 18.3021 7.76822 16.4273 5.90974C15.1091 4.60798 14.7407 4.28868 14.4787 4.215C14.0448 4.10038 13.4881 4.10857 13.1197 4.23956ZM15.7968 7.17056C16.7384 8.12845 17.6635 9.13551 17.8354 9.40568C18.515 10.4373 18.9325 12.0256 18.8261 13.1718C18.777 13.7121 18.5068 14.5226 17.1559 18.1659C16.984 18.6408 16.943 18.8864 16.943 19.5987C16.9349 20.6057 17.115 21.2852 17.6062 22.1367C18.0319 22.8653 20.0951 24.9285 20.8237 25.3542C21.8062 25.9191 23.067 26.1811 24.0167 26.001C24.2623 25.9519 24.4752 25.9273 24.4834 25.9355C24.4916 25.9437 24.3852 26.2876 24.2378 26.7051L23.9758 27.4583H23.4436C22.2974 27.4583 21.1349 27.139 20.1278 26.5414C19.3992 26.1156 17.1232 23.8887 16.591 23.0946C15.6495 21.6864 15.3056 20.0408 15.6249 18.4934C15.6986 18.1659 16.0998 17.0115 16.5255 15.939C17.4261 13.6548 17.5489 13.139 17.3933 12.1238C17.2542 11.2069 16.9021 10.4045 16.3454 9.72498C16.0834 9.41387 15.2565 8.52966 14.5033 7.76003C13.3489 6.57289 13.1278 6.31909 13.1278 6.11441C13.1278 5.77874 13.4799 5.43488 13.8156 5.43488C14.0366 5.43488 14.2822 5.64775 15.7968 7.17056ZM15.9524 11.6981C16.1898 12.3612 16.1489 13.2864 15.8623 14.0314L15.6249 14.6454L15.0518 14.8583C14.0448 15.2513 13.2015 15.2349 12.3255 14.8256L11.9653 14.6618L13.791 12.8361C15.8132 10.8139 15.6659 10.8876 15.9524 11.6981ZM8.73958 13.5238C10.5325 15.284 11.1302 15.7671 11.8506 16.07C12.6366 16.3975 13.5945 16.5285 14.3232 16.4139C14.6261 16.3647 14.8881 16.3402 14.9044 16.3566C14.9208 16.3647 14.839 16.6022 14.7243 16.8805C14.6097 17.1589 14.5197 17.4373 14.5197 17.5028C14.5197 17.7484 14.274 17.8794 13.7992 17.8794C12.6857 17.8712 11.3021 17.4536 10.377 16.856C10.115 16.6759 9.108 15.7589 8.1501 14.8174C6.6273 13.3028 6.41443 13.0571 6.41443 12.8361C6.41443 12.5004 6.75829 12.1484 7.09396 12.1484C7.29864 12.1484 7.55244 12.3694 8.73958 13.5238ZM21.1922 14.7273C21.3313 14.8583 21.3968 15.0139 21.3968 15.2185C21.3968 15.6607 21.1021 15.9145 20.6027 15.9145C20.3898 15.9226 20.046 15.9554 19.8413 15.9963C19.6366 16.0291 19.4647 16.0536 19.4565 16.0454C19.4483 16.0373 19.5547 15.6934 19.7021 15.2759L19.9641 14.5226H20.4799C20.922 14.5226 21.0284 14.5554 21.1922 14.7273ZM31.2214 24.2162C32.0483 24.3636 32.9653 24.732 33.6448 25.1905C33.9805 25.4115 34.8811 26.2466 35.8717 27.2291C37.2963 28.67 37.5255 28.932 37.5255 29.1531C37.5255 29.4805 37.1816 29.8326 36.846 29.8326C36.6413 29.8326 36.3547 29.587 34.9547 28.2115C34.0542 27.3191 33.1208 26.4759 32.8916 26.3285C31.7536 25.608 30.3372 25.346 29.1828 25.6326C29.0109 25.6735 28.9945 25.6571 29.0518 25.5262C29.0846 25.4443 29.2074 25.1086 29.3138 24.7975C29.4284 24.4782 29.5594 24.1998 29.6167 24.1671C29.7559 24.0688 30.5501 24.0934 31.2214 24.2162ZM31.2705 27.0162C32.0729 27.2864 32.1466 27.1472 30.1243 29.1694L28.2986 30.9952L28.1267 30.6267C27.7173 29.7589 27.7173 28.8419 28.1267 27.8267C28.315 27.3683 28.3477 27.3355 28.8062 27.1472C29.7313 26.7788 30.46 26.7378 31.2705 27.0162ZM33.5384 28.67L34.005 29.1367L32.0565 31.0852L30.1161 33.0256L29.6249 32.5343L29.1337 32.0431L31.0577 30.1191C32.1138 29.063 32.998 28.1952 33.0226 28.1952C33.0471 28.1952 33.2764 28.408 33.5384 28.67Z" fill="#151515"/>
<path d="M35.0282 5.59857C34.4878 5.68045 34.2668 5.85238 32.9323 7.21144C31.5814 8.59511 31.4668 8.76704 31.4668 9.53663C31.4668 9.97055 31.7615 10.6255 32.089 10.9366C32.4247 11.2477 33.006 11.4934 33.4235 11.4934C34.1931 11.4934 34.365 11.3787 35.7569 10.0279C37.1978 8.61148 37.3779 8.34131 37.3779 7.57167C37.3779 6.28629 36.3218 5.3939 35.0282 5.59857ZM35.8715 7.09682C35.9943 7.21144 36.0516 7.35881 36.0516 7.56349C36.0516 7.83366 35.9615 7.94828 34.8808 9.02084C33.5709 10.3144 33.4481 10.3799 33.0142 9.94598C32.5884 9.51207 32.6457 9.38926 33.9066 8.11203C34.5206 7.4898 35.1019 6.94126 35.1919 6.90852C35.4048 6.81846 35.634 6.88395 35.8715 7.09682Z" fill="#151515"/>
<path d="M24.5481 9.64343C22.9598 10.3393 22.9844 12.689 24.5891 13.3604C24.9329 13.4996 25.7598 13.5159 26.1037 13.3768C26.7668 13.123 27.2744 12.4516 27.3481 11.723C27.4709 10.4703 26.6113 9.52881 25.3505 9.52881C25.0475 9.537 24.6873 9.58612 24.5481 9.64343ZM25.9563 11.2072C26.1282 11.5674 26.0136 11.9031 25.6616 12.0832C25.4569 12.1896 25.3423 12.1978 25.154 12.1323C24.5317 11.9195 24.499 11.1335 25.1048 10.8797C25.4487 10.7323 25.7926 10.8633 25.9563 11.2072Z" fill="#151515"/>
<path d="M2.58989 19.0257C2.13959 19.1239 1.84486 19.2795 1.52555 19.6151C1.16532 19.9918 1.00977 20.4093 1.00977 21.007C1.00977 21.6456 1.19807 22.0795 1.64017 22.4725C2.17234 22.9555 2.38521 22.9964 4.40743 22.9964H6.2086L6.64252 22.7508C8.0507 21.9812 8.0507 19.9999 6.64252 19.2304L6.2086 18.9929L4.57117 18.9684C3.67059 18.9602 2.77819 18.9847 2.58989 19.0257ZM5.96298 20.3847C6.25772 20.5239 6.45421 20.8842 6.38053 21.138C6.34778 21.2198 6.23316 21.3836 6.11854 21.49C5.91386 21.6865 5.8893 21.6865 4.32556 21.6865C2.76182 21.6865 2.73725 21.6865 2.53258 21.49C2.13141 21.1134 2.31971 20.4421 2.85187 20.3111C2.94193 20.2865 3.62146 20.2701 4.35012 20.2619C5.41445 20.2537 5.75012 20.2783 5.96298 20.3847Z" fill="#151515"/>
<path d="M37.8856 19.0176C36.7886 19.2059 36.0354 20.3358 36.281 21.4083C36.4202 21.9896 36.7722 22.4644 37.2962 22.751L37.7301 22.9966H39.5313C41.5535 22.9966 41.7664 22.9556 42.2985 22.4726C42.7488 22.0714 42.9289 21.6457 42.9289 20.9907C42.9289 20.3603 42.7488 19.9264 42.3476 19.5416C41.8237 19.0504 41.5862 18.9931 39.8178 18.9767C38.9418 18.9685 38.074 18.9849 37.8856 19.0176ZM41.4061 20.4913C41.7009 20.7697 41.7009 21.2118 41.4061 21.4901C41.2014 21.6784 41.1523 21.6866 39.7359 21.7112C38.5079 21.7358 38.2295 21.7194 37.9921 21.6048C37.4272 21.3346 37.4108 20.6632 37.9593 20.3849C38.1804 20.2703 38.4751 20.2539 39.7114 20.2703C41.1605 20.2948 41.2014 20.303 41.4061 20.4913Z" fill="#151515"/>
<path d="M9.76993 30.5941C9.36876 30.7169 6.94541 33.0993 6.72436 33.5905C6.51968 34.0327 6.51149 34.7531 6.6998 35.1952C7.11734 36.2022 8.36997 36.6935 9.36876 36.235C9.9173 35.9894 12.2424 33.5905 12.3734 33.1403C12.8483 31.5192 11.391 30.0946 9.76993 30.5941ZM10.9243 32.035C11.3582 32.4689 11.2927 32.5917 9.9828 33.9098C8.96763 34.9332 8.77114 35.097 8.55009 35.097C8.18167 35.097 7.88693 34.7941 7.88693 34.4174C7.88693 34.1473 7.97699 34.0326 9.05769 32.9601C10.3676 31.6666 10.4904 31.6011 10.9243 32.035Z" fill="#151515"/>
<path d="M21.4038 35.3343C20.929 35.4653 20.4623 35.8501 20.2085 36.3168L19.9629 36.7507V38.5518C19.9629 40.5741 20.0038 40.7869 20.4869 41.3191C20.888 41.7694 21.3138 41.9495 21.9687 41.9495C22.6237 41.9495 23.0494 41.7694 23.4506 41.3191C23.9337 40.7869 23.9746 40.5741 23.9746 38.5518V36.7507L23.729 36.3168C23.2623 35.4735 22.3126 35.0723 21.4038 35.3343ZM22.2471 36.6361C22.6565 36.8244 22.722 37.1437 22.6892 38.7565C22.6646 40.1729 22.6565 40.222 22.4682 40.4267C22.3208 40.5823 22.1816 40.6396 21.9687 40.6396C21.7559 40.6396 21.6167 40.5823 21.4693 40.4267C21.281 40.222 21.2728 40.1729 21.2483 38.7565C21.2237 37.5366 21.2401 37.2501 21.3547 37.0127C21.5512 36.6033 21.8705 36.4641 22.2471 36.6361Z" fill="#151515"/>
</g>
<defs>
<clipPath id="clip0_804_2252">
<rect width="42" height="42" fill="white" transform="translate(0.964844)"/>
</clipPath>
</defs>
</svg>
