<svg width="28" height="28" fill="none" xmlns="http://www.w3.org/2000/svg"><path d="M23.333 1.167H9.917a.58.58 0 0 0-.217.043.559.559 0 0 0-.074.045.57.57 0 0 0-.097.06L4.279 5.98c-.004.003-.006.009-.01.013a.577.577 0 0 0-.103.141.394.394 0 0 0-.083.282V26.25a.583.583 0 0 0 .584.583h18.666a.583.583 0 0 0 .584-.583V1.75a.583.583 0 0 0-.584-.583Zm-14 1.882v2.784H6.201L9.333 3.05ZM22.75 25.667H5.25V7h4.667a.583.583 0 0 0 .583-.583V2.333h12.25v23.334Z" fill="#fff"/><path d="M9.333 8.167a.583.583 0 0 0-.583.583v1.167H7.583A.583.583 0 0 0 7 10.5v2.333a.583.583 0 0 0 .583.584H8.75v1.166a.583.583 0 0 0 .583.584h2.334a.583.583 0 0 0 .583-.584v-1.166h1.167a.583.583 0 0 0 .583-.584V10.5a.583.583 0 0 0-.583-.583H12.25V8.75a.583.583 0 0 0-.583-.583H9.333Zm3.5 2.916v1.167h-1.166a.583.583 0 0 0-.584.583V14H9.917v-1.167a.583.583 0 0 0-.584-.583H8.167v-1.167h1.166a.583.583 0 0 0 .584-.583V9.333h1.166V10.5a.583.583 0 0 0 .584.583h1.166Zm2.917-.583H21a.583.583 0 1 0 0-1.167h-5.25a.583.583 0 0 0 0 1.167Zm0 3.5H21a.583.583 0 1 0 0-1.167h-5.25a.583.583 0 1 0 0 1.167ZM21 16.917H8.167a.583.583 0 1 0 0 1.166H21a.583.583 0 0 0 0-1.166Zm-.583 5.17a3.508 3.508 0 0 1-2.24-.89.592.592 0 0 0-.47-.167.583.583 0 0 0-.427.256l-.446.668-.648-1.621a.583.583 0 0 0-1.027-.107l-1.061 1.59a.584.584 0 0 0 .97.648l.446-.669.649 1.622a.583.583 0 0 0 1.027.107l.711-1.066a4.553 4.553 0 0 0 2.516.796.583.583 0 1 0 0-1.167Zm-8.75-1.67h-3.5a.583.583 0 1 0 0 1.166h3.5a.583.583 0 0 0 0-1.166Z" fill="#fff"/></svg>