<svg width="28" height="28" fill="none" xmlns="http://www.w3.org/2000/svg"><path d="M7 5.833a1.167 1.167 0 1 0-1.01-1.75h-.157a1.75 1.75 0 0 0-1.75 1.75v5.25H5.25v-5.25c0-.322.261-.583.583-.583h.156c.202.349.58.583 1.011.583Z" fill="#fff"/><path fill-rule="evenodd" clip-rule="evenodd" d="M5.927 11.083H4.083c-.322 0-.586.262-.557.583a6.417 6.417 0 0 0 4.64 5.59v1.41c0 .763.488 1.411 1.168 1.651a4.23 4.23 0 0 0 8.458-.046v-2.334a2.187 2.187 0 1 1 4.375 0v1.413a1.75 1.75 0 1 0 1.166 0v-1.413a3.354 3.354 0 0 0-6.708 0v2.334a3.062 3.062 0 0 1-6.125.046 1.75 1.75 0 0 0 1.167-1.65v-1.41a6.416 6.416 0 0 0 4.64-5.591c.03-.32-.235-.583-.557-.583v-5.25A1.75 1.75 0 0 0 14 4.083h-.156a1.166 1.166 0 1 0 0 1.167H14c.322 0 .583.261.583.583v5.25h-.676c-.323 0-.579.263-.633.58a3.406 3.406 0 0 1-6.714 0c-.055-.317-.311-.58-.633-.58Zm8.412 1.167h.696a5.25 5.25 0 0 1-10.237 0h.697a4.573 4.573 0 0 0 8.844 0Zm8.411 8.167a.583.583 0 1 1 0 1.166.583.583 0 0 1 0-1.166ZM10.5 17.5v1.167a.583.583 0 0 1-1.167 0V17.5H10.5Z" fill="#fff"/></svg>