<svg width="37" height="42" viewBox="0 0 37 42" fill="none" xmlns="http://www.w3.org/2000/svg">
<g clip-path="url(#clip0_804_2261)">
<path d="M18.3861 0.173767C16.5931 0.484878 15.0294 1.21354 13.4984 2.45798L13.2282 2.67085L12.5159 2.53166C9.82238 1.9995 7.06332 3.52231 5.78613 6.27319C4.56625 8.87666 4.73818 12.7492 6.15455 14.755L6.43291 15.1398L6.16274 15.3363C4.82005 16.3679 4.50075 18.0135 5.33584 19.6673C5.84344 20.6989 7.02239 21.5831 8.05397 21.7059C8.27502 21.7305 8.49607 21.7714 8.52882 21.8041C8.56976 21.8287 8.7253 22.0907 8.88086 22.3854C9.26565 23.1305 10.0598 24.2521 10.8458 25.1691L11.5089 25.9386V29.2217V32.5129L10.3955 32.6112C7.59549 32.8568 4.86917 33.6427 4.55806 34.2895C4.45981 34.5024 4.45981 34.5597 4.55806 34.7398C4.62356 34.8463 4.7873 34.9854 4.91829 35.0427C5.13935 35.1328 5.24578 35.1082 5.90075 34.8544C6.83408 34.486 8.19315 34.1422 9.43758 33.9539C10.3136 33.8229 11.1241 33.8065 18.3861 33.8065C26.3195 33.8065 26.3768 33.8065 27.4329 33.9948C30.3557 34.5024 31.7148 35.1001 32.9183 36.4018C33.9826 37.548 34.5557 38.9971 34.7358 40.9539C34.8013 41.7153 34.9651 41.9527 35.4236 41.9527C35.8165 41.9527 36.0703 41.7316 36.0703 41.3714C36.0703 40.962 35.6774 38.9316 35.489 38.3503C34.6703 35.8451 32.7955 34.0848 30.1347 33.3234C28.7428 32.9223 26.4177 32.5375 25.4107 32.5375H25.0996V31.6041C25.0996 30.7936 25.075 30.6463 24.9276 30.4579C24.723 30.196 24.3873 30.1796 24.0844 30.417C23.8797 30.5808 23.8715 30.6053 23.8715 31.5632V32.5375H18.3043H12.737V29.1071C12.737 26.9129 12.7043 25.5866 12.6551 25.4474C12.606 25.3246 12.3358 24.9562 12.0493 24.6451C10.9276 23.3761 9.98612 21.9679 9.63407 21.0264C9.43758 20.5106 9.24928 19.5854 9.18378 18.824L9.12647 18.2509L9.29022 18.4392C9.38027 18.5375 9.63407 18.9714 9.86331 19.3971C11.6154 22.6474 14.6937 24.5141 18.3043 24.5141C20.875 24.5141 23.2002 23.5562 24.9768 21.7796C25.8037 20.9527 26.254 20.3141 26.9007 19.086C27.1791 18.562 27.4247 18.1281 27.4493 18.1281C27.4738 18.1281 27.4657 18.3574 27.4411 18.6357C27.2855 20.134 27.0399 21.0346 26.5323 21.9433C26.1885 22.5492 25.2388 23.8346 24.5674 24.596C23.8961 25.3574 23.8715 25.4392 23.8715 26.9211C23.8715 28.3457 23.9206 28.4767 24.4528 28.5667C24.7066 28.6158 24.7721 28.5913 24.9276 28.403C25.0832 28.1983 25.0996 28.0755 25.0996 27.0439V25.9059L25.7218 25.1772C26.5405 24.2275 27.3101 23.1468 27.6949 22.4018C27.9323 21.9515 28.0551 21.796 28.2107 21.7714C29.3651 21.5422 29.8972 21.2802 30.5686 20.617C32.2469 18.9468 32.0668 16.3024 30.2002 15.2053L29.8481 15.0006L30.0855 14.6568C30.3803 14.231 30.6832 13.5106 30.8797 12.7656C31.0025 12.3071 31.0271 11.8895 31.0271 10.7188C31.0271 9.41701 31.0025 9.13865 30.8142 8.3445C30.5604 7.27202 30.1429 6.09307 29.9136 5.80652C29.7007 5.52816 29.2914 5.52816 29.0294 5.79833C28.7838 6.06851 28.792 6.27319 29.1031 7.06734C29.6516 8.48368 29.9054 10.2112 29.7662 11.5211C29.6107 12.9948 29.3159 13.6989 28.4563 14.6404C27.4575 15.7293 26.6224 16.9737 25.8692 18.4802C24.5674 21.0591 22.5534 22.6392 19.8189 23.2123C19.0165 23.3843 17.3218 23.3433 16.4785 23.1386C14.8902 22.7457 13.7358 22.1234 12.6224 21.0673C11.861 20.3468 11.4516 19.7737 10.5265 18.1691C9.85513 17.0065 9.1756 16.1141 8.11128 15.017C7.12063 14.0018 6.8259 13.5351 6.53116 12.5199C5.89256 10.3422 6.22824 7.7305 7.38262 6.00301C8.07034 4.96324 9.19197 4.15272 10.3627 3.84161C11.0832 3.64512 12.1475 3.68605 12.8271 3.92348C13.1382 4.02991 13.4575 4.09541 13.5393 4.07085C13.613 4.0381 13.8996 3.81705 14.1697 3.57143C16.2247 1.71295 19.0738 0.926987 22.1113 1.38547C24.2481 1.70476 25.5826 2.35155 26.9908 3.72699C27.6458 4.37377 27.6703 4.39014 27.9978 4.34921C28.923 4.2264 28.6446 3.37494 27.3101 2.27786C25.4025 0.697744 23.3066 0.0263982 20.351 0.0427725C19.6306 0.0427725 18.7791 0.100083 18.3861 0.173767ZM7.69373 16.3024C7.87385 16.5071 7.89022 16.6299 7.94753 17.8006C7.98028 18.4965 8.05397 19.3808 8.10309 19.7492L8.20133 20.4369L7.95572 20.3878C7.57093 20.3059 6.87502 19.7901 6.59666 19.3726C6.30192 18.9305 6.10543 18.3164 6.10543 17.8498C6.10543 17.0965 6.78496 16.2369 7.48087 16.0895C7.49724 16.0813 7.5873 16.1796 7.69373 16.3024ZM29.5288 16.3024C30.806 16.9901 30.7978 18.7258 29.5206 19.872C29.2996 20.0767 28.9393 20.2977 28.7347 20.3714L28.3581 20.5024L28.4072 20.2322C28.5136 19.6427 28.6119 18.5866 28.661 17.3667L28.7183 16.0813H28.923C29.0376 16.0813 29.3078 16.1796 29.5288 16.3024Z" fill="#151515"/>
<path d="M2.30553 36.0743C1.96167 36.4755 1.35582 37.6217 1.1184 38.3176C0.938279 38.858 0.537109 40.962 0.537109 41.3714C0.537109 41.7316 0.790911 41.9527 1.18389 41.9527C1.60143 41.9527 1.84705 41.6661 1.84705 41.1831C1.84705 40.7656 2.12541 39.2755 2.30553 38.7188C2.48564 38.1702 2.78038 37.5889 3.16518 37.024C3.50904 36.5082 3.55816 36.2463 3.35348 35.9351C3.24705 35.7796 3.1488 35.7305 2.91138 35.7305C2.6412 35.7305 2.55114 35.7796 2.30553 36.0743Z" fill="#151515"/>
</g>
<defs>
<clipPath id="clip0_804_2261">
<rect width="35.614" height="42" fill="white" transform="translate(0.527344)"/>
</clipPath>
</defs>
</svg>
