<svg width="42" height="42" fill="none" xmlns="http://www.w3.org/2000/svg"><path d="M38.651 19.487c-.17-5.743-4.834-10.362-10.542-10.362h-1.172v6.172l-2.421-1.95V2h-7.032v11.348l-2.422 1.95V9.124h-1.171c-5.708 0-10.372 4.619-10.542 10.362C1.81 21.709 1 24.277 1 26.937v9.5C1 38.403 2.577 40 4.516 40c5.815 0 10.546-4.794 10.546-10.688v-4.915L21 19.62l5.938 4.776v4.916c0 5.893 4.73 10.687 10.546 10.687C39.423 40 41 38.402 41 36.437v-9.5c0-2.66-.81-5.229-2.349-7.45Zm.005 16.95c0 .655-.526 1.188-1.172 1.188-4.523 0-8.203-3.729-8.203-8.313v-3.03l1.324 1.065 1.457-1.86L21 16.588 9.938 25.487l1.457 1.86 1.324-1.065v3.03c0 4.584-3.68 8.313-8.203 8.313a1.181 1.181 0 0 1-1.172-1.188v-9.5c0-2.658.906-4.71 2.344-6.666v-.459c0-4.18 3.06-7.65 7.03-8.228v5.6L7.01 21.778l1.458 1.86 11.36-9.144V4.375h2.344v10.12l11.36 9.143 1.458-1.86-5.709-4.594v-5.6c3.97.578 7.032 4.048 7.032 8.229v.458c1.448 1.971 2.343 4.023 2.343 6.666v9.5Z" fill="#000"/></svg>