<svg width="42" height="42" viewBox="0 0 42 42" fill="none" xmlns="http://www.w3.org/2000/svg">
<g clip-path="url(#clip0_804_2278)">
<path d="M12.4093 0.137763C10.0186 0.416125 8.01277 1.56232 6.52272 3.51086C5.54026 4.79624 5.18003 5.95063 5.08997 8.07109C5.01628 9.6758 5.08997 9.41381 3.99289 11.9273C3.40342 13.2863 2.95312 14.4816 2.95312 14.7191C2.95312 15.0466 3.17418 15.2758 3.49348 15.2758C3.92739 15.2758 4.07476 15.1612 4.22213 14.6863C4.304 14.4489 4.69698 13.4746 5.10634 12.5331C6.33441 9.6758 6.30985 9.74948 6.30985 8.28398C6.30985 6.34361 6.62096 5.38571 7.6771 4.0594C9.33911 1.98805 11.1403 1.28396 14.7836 1.27577C15.9871 1.27577 16.1262 1.29215 16.5028 1.47226C17.3625 1.87343 17.9356 2.79858 18.4759 4.64887C18.7952 5.7787 18.8362 6.23718 18.6315 6.74478C18.4432 7.20326 18.083 7.47343 16.8549 8.07928C15.766 8.61147 15.2584 8.73428 14.9145 8.54597C14.7181 8.43954 13.9894 7.47343 13.6783 6.90852C13.4572 6.49098 13.4654 6.14712 13.7192 5.9015C13.973 5.63952 14.3251 5.63952 14.9719 5.9015C15.2502 6.01612 15.5695 6.10618 15.6759 6.10618C15.8806 6.10618 16.2163 5.77051 16.2163 5.57402C16.2163 5.23016 15.242 4.60794 14.5379 4.50969C13.7765 4.39507 12.8759 4.85355 12.5239 5.54127C12.311 5.95881 12.3192 6.76115 12.5321 7.23601C12.6795 7.5553 12.6795 7.61262 12.5812 7.81729C12.3274 8.30036 11.4759 8.93077 10.3134 9.50387C9.89583 9.70855 9.51922 9.92141 9.48647 9.97872C9.34729 10.1998 9.42917 10.7974 9.67478 11.3542C10.8537 14.0559 11.5742 16.7167 11.9754 19.8606C12.0409 20.4091 12.0818 21.6208 12.0818 23.2173C12.0818 26.1892 11.959 27.2945 11.5578 27.9986C11.1812 28.6618 10.8046 29.6606 10.6409 30.4629C10.3134 32.0349 10.5344 34.5401 11.0502 35.1787C11.3368 35.539 12.0409 35.3179 12.0409 34.8676C12.0409 34.7612 11.9672 34.4091 11.8689 34.0816C11.6151 33.1811 11.5742 31.8056 11.7789 30.8314C12.1555 29.0056 13.1297 27.4255 14.5461 26.3694C16.7894 24.6746 19.7122 24.2407 22.3976 25.1904C23.0034 25.4033 23.1508 25.4278 23.3391 25.346C23.7321 25.1822 23.7812 24.9284 23.552 24.1998C22.9789 22.3904 23.1099 20.3682 23.9122 18.6571C24.3461 17.7319 24.8128 17.0852 25.6479 16.291C27.3754 14.6372 29.0701 13.9413 31.3625 13.9413C33.8268 13.9495 35.9637 14.8009 37.6338 16.4629C38.8701 17.6992 39.5333 18.8863 39.9754 20.6629C40.2292 21.6945 40.2292 23.5776 39.9672 24.7238C39.6479 26.1319 39.0666 27.4828 38.2315 28.7928C37.8058 29.4477 37.773 29.6033 37.9368 29.9553C38.0514 30.2173 38.3297 30.3156 38.6327 30.2091C39.0584 30.0618 40.2374 27.9904 40.7695 26.4676C41.5882 24.1261 41.6374 21.5881 40.9005 19.3857C39.7216 15.8735 36.8561 13.4664 33.1227 12.8524C32.1321 12.6968 30.249 12.7296 29.3321 12.9343C25.4186 13.7939 22.7005 16.6103 22.0619 20.4828C21.9391 21.2606 21.9391 22.9553 22.0783 23.553L22.1274 23.7577L21.3988 23.6103C20.3017 23.3729 18.1976 23.4384 17.0759 23.7413C16.0771 24.0115 14.6526 24.691 13.883 25.2805L13.3099 25.7144V23.0536C13.3099 20.1471 13.2444 19.3857 12.7695 17.036C12.3683 15.0384 11.6724 12.7787 10.9847 11.2395L10.7391 10.6992L11.2467 10.4372C11.9672 10.077 12.573 9.65942 13.0233 9.21732L13.4163 8.83252L13.6292 9.1027C13.973 9.53662 14.5052 9.80679 15.111 9.85591C15.7578 9.90504 16.1344 9.79042 17.5917 9.09451C19.2292 8.30855 19.9005 7.57168 20.0397 6.44185C20.097 5.95881 19.9169 5.06642 19.5239 3.8056C18.9344 1.93893 18.2385 0.9401 17.1333 0.399751L16.511 0.0886397L14.7917 0.0722656C13.842 0.0722656 12.7695 0.0968269 12.4093 0.137763Z" fill="#151515"/>
<path d="M2.14972 17.8957C1.80586 18.0349 1.54387 18.8946 1.10995 21.2934C0.602347 24.1343 0.454979 25.9109 0.520476 28.2115C0.659657 32.7881 1.77311 36.6197 3.89358 39.7963C4.91697 41.3355 5.41639 41.7039 6.70177 41.8922C7.65966 42.0232 13.4725 41.9414 15.069 41.7694C23.2152 40.8852 30.0023 38.2326 35.2339 33.877C35.9953 33.2466 36.1508 33.001 36.0362 32.6899C35.9544 32.4688 35.5123 32.2232 35.2994 32.2805C35.2257 32.2969 34.7099 32.6817 34.145 33.1402C31.3204 35.408 27.9965 37.2338 24.4023 38.4782C20.3006 39.9109 16.1415 40.6069 11.221 40.7051C8.34738 40.7624 6.7427 40.6724 6.25147 40.4267C5.00703 39.7881 3.16492 36.1039 2.42808 32.7963C1.92048 30.4712 1.72399 28.0396 1.87136 25.649C2.01054 23.3156 2.27253 21.5145 2.71463 19.7624C2.95206 18.8209 3.00937 18.2724 2.88656 18.0922C2.82106 17.9858 2.50177 17.8139 2.40352 17.8221C2.37077 17.8221 2.25615 17.8548 2.14972 17.8957Z" fill="#151515"/>
</g>
<defs>
<clipPath id="clip0_804_2278">
<rect width="40.9357" height="42" fill="white" transform="translate(0.496094)"/>
</clipPath>
</defs>
</svg>
