<svg width="43" height="42" fill="none" xmlns="http://www.w3.org/2000/svg"><path fill-rule="evenodd" clip-rule="evenodd" d="M12.162 15.131c.166-.008.728-.008.728-.008 1.107-.27 2.581-.447 4.06-.92 1.577-.503 3.154-1.33 4.356-2.886.732-.948.83-2.04.549-3.135-.256-.996-.83-1.996-1.466-2.861a.609.609 0 0 0-.18-.162.659.659 0 0 0-.235-.084 6.288 6.288 0 0 0-.97-.075c-2.034 0-3.826.968-4.855 2.44-.11.153-.261.279-.439.364a1.248 1.248 0 0 1-.575.12 4.735 4.735 0 0 0-.197-.004C10.213 7.92 8 9.967 8 12.488c0 1.328.613 2.523 1.592 3.358.245.21.624.205.863-.01a2.652 2.652 0 0 1 1.707-.705Zm.509-1.156c-.962-.06-1.816.115-2.604.646a3.238 3.238 0 0 1-.811-2.133c0-1.88 1.65-3.406 3.682-3.406l.154.003c.415.013.826-.073 1.195-.25.37-.176.683-.437.912-.757l.003-.005a4.4 4.4 0 0 1 1.638-1.404 4.809 4.809 0 0 1 2.663-.482c.491.698.929 1.48 1.13 2.263.196.764.162 1.53-.348 2.192-1.031 1.334-2.393 2.032-3.744 2.464-1.402.447-2.8.62-3.87.87Z" fill="#000"/><path fill-rule="evenodd" clip-rule="evenodd" d="M29.54 14.54a4.07 4.07 0 0 1 1.016.49c.899.603 1.644 1.622 1.982 3.278 1.024 5.029.117 10.33-.518 11.669-.678 1.43-2.264 1.925-3.966 1.914-1.519-.01-3.11-.404-4.002-.666-.234 1.552-.793 2.89-1.63 4.042l-.004.006a1.786 1.786 0 0 1-1.432.72c-.268.007-.593.007-.898.007-.412 0-.812-.14-1.132-.398a1.779 1.779 0 0 1-.626-1.015l-.001-.005c-.136-.666-.355-1.582-.646-2.335-.057-.15-.11-.301-.159-.454-4.084-.459-6.137-3.215-7.094-4.902-.779-.22-1.426-.952-1.84-2.043-.572-1.505-.741-3.704-.45-5.668.2-1.346.619-2.58 1.244-3.426 1.04-1.407 2.18-1.841 3.553-1.74l-.062.016c-.014.003 1.03 1.303 1.517 1.485a9.067 9.067 0 0 0-.989-.244c-1.213-.22-2.183.008-3.052 1.184-1.156 1.565-1.408 4.685-.934 6.944.15.72.374 1.35.682 1.803.224.328.482.56.815.572.18.006.33-.088.468-.223.217-.213.396-.521.556-.878.867-1.943 1.044-5.226 1.044-5.226a.59.59 0 0 1 .307-.486.602.602 0 0 1 .578-.001c3.923 2.13 8.321 2.086 12.244.496a.603.603 0 0 1 .669.147.59.59 0 0 1 .09.673c-.75 1.45-1.16 3.282-.584 4.95a.588.588 0 0 1-.116.585.6.6 0 0 1-.57.19s-3.321-.679-5.832 1.208c-1.834 1.38-1.439 3.388-.966 4.614.314.813.553 1.8.7 2.522.06.273.304.468.586.468.298 0 .615 0 .876-.007h.014a.594.594 0 0 0 .475-.236c.844-1.164 1.357-2.546 1.491-4.178a.589.589 0 0 1 .273-.452.6.6 0 0 1 .529-.058s2.231.808 4.316.821c1.208.008 2.393-.215 2.874-1.23.594-1.254 1.387-6.22.427-10.93-.258-1.267-.791-2.069-1.48-2.53a3.23 3.23 0 0 0-1.348-.5c.072-.005.672-.14.756-.34.086-.204.17-.416.25-.633ZM17.25 30.556c-.172-1.415.136-3.046 1.794-4.293 2.048-1.54 4.556-1.623 5.879-1.535-.226-1.246-.062-2.532.332-3.702-3.632 1.148-7.55 1.069-11.155-.618-.125 1.19-.425 3.305-1.067 4.744-.333.747-.776 1.308-1.297 1.595.887 1.413 2.543 3.327 5.515 3.81Z" fill="#000"/><path fill-rule="evenodd" clip-rule="evenodd" d="M25.732 25.91s1.157.192 2.287.966a.66.66 0 0 0 .454.094.63.63 0 0 0 .397-.224.541.541 0 0 0-.114-.79c-1.387-.95-2.81-1.174-2.81-1.174a.658.658 0 0 0-.447.107.57.57 0 0 0-.242.363.539.539 0 0 0 .095.417.623.623 0 0 0 .38.24Zm.936-5.24s1.132-.325 2.188-1.454a.544.544 0 0 0-.07-.8.653.653 0 0 0-.867.051c-.794.85-1.631 1.113-1.631 1.113a.609.609 0 0 0-.361.284.533.533 0 0 0-.038.436c.05.145.16.265.307.334.146.07.316.082.472.035Zm-13.12-1.574s-.809-.398-1.45-1.137a.656.656 0 0 0-.866-.083.542.542 0 0 0-.1.8 6.499 6.499 0 0 0 1.837 1.432c.144.066.31.076.463.03a.61.61 0 0 0 .355-.277.534.534 0 0 0 .048-.427.582.582 0 0 0-.287-.338Zm.145-10.775s-.788 1.525-1.046 3.03a.542.542 0 0 0 .12.415.63.63 0 0 0 .397.221.66.66 0 0 0 .453-.096.571.571 0 0 0 .253-.36c.232-1.35.94-2.715.94-2.715a.533.533 0 0 0 .022-.436.591.591 0 0 0-.316-.324.666.666 0 0 0-.47-.024.606.606 0 0 0-.353.29Zm4.987 18.576s-2.226-.79-3.56-2.208a.616.616 0 0 0-.191-.137.662.662 0 0 0-.683.08.58.58 0 0 0-.148.177.541.541 0 0 0 .087.631c1.52 1.616 4.048 2.525 4.048 2.525.153.052.321.046.47-.016a.594.594 0 0 0 .321-.315.533.533 0 0 0-.009-.434.6.6 0 0 0-.335-.303Z" fill="#000"/><path fill-rule="evenodd" clip-rule="evenodd" d="M16.733 26.815s.689-1 1.242-3.029a.796.796 0 0 0-.014-.445.518.518 0 0 0-.235-.303.317.317 0 0 0-.322.013.546.546 0 0 0-.223.322c-.48 1.761-1.066 2.639-1.066 2.639a.727.727 0 0 0-.115.42.704.704 0 0 0 .134.409.367.367 0 0 0 .303.159.385.385 0 0 0 .296-.185Z" fill="#000"/><path fill-rule="evenodd" clip-rule="evenodd" d="M36.059 3.627c.136 1.432.273 5.178-.4 7.805-1.017 3.968-1.457 9.212-.337 13.259 1.01 3.653 2.017 4.324 2.502 12.462l.004.034a.563.563 0 0 1-.333.584.573.573 0 0 1-.234.05h-.004c-3.268.019-12.173.019-14.923.019a.592.592 0 0 1-.554-.385l-.886-2.4a.58.58 0 0 0-.548-.38.587.587 0 0 0-.549.38l-.886 2.4a.586.586 0 0 1-.553.385h-14.6a.593.593 0 0 1-.562-.41.583.583 0 0 1-.023-.245l.002-.033c.505-8.136 1.51-8.808 2.522-12.461 1.12-4.047.68-9.291-.337-13.259-.673-2.627-.537-6.372-.394-7.802a.578.578 0 0 0-.524-.627.587.587 0 0 0-.638.512c-.15 1.504-.284 5.442.423 8.203.971 3.79 1.413 8.8.343 12.665-1.03 3.72-2.046 4.408-2.56 12.685a1.734 1.734 0 0 0 .44 1.353A1.756 1.756 0 0 0 3.758 39h14.6c.36 0 .71-.11 1.006-.315.296-.205.52-.495.645-.83l.337-.914.337.914c.124.336.349.626.644.83.295.205.647.315 1.007.315 2.751 0 11.66 0 14.93-.019a1.747 1.747 0 0 0 1.293-.575 1.725 1.725 0 0 0 .432-1.34c-.494-8.275-1.51-8.963-2.54-12.683-1.07-3.866-.628-8.875.342-12.665.708-2.76.575-6.697.431-8.2a.58.58 0 0 0-.635-.504.586.586 0 0 0-.528.613Z" fill="#000"/><path fill-rule="evenodd" clip-rule="evenodd" d="M20.144 21.672s.65.625.63 1.73a.547.547 0 0 0 .169.418.615.615 0 0 0 .434.18.646.646 0 0 0 .44-.167.548.548 0 0 0 .182-.413c.029-1.654-1-2.573-1-2.573a.615.615 0 0 0-.437-.175.646.646 0 0 0-.44.174.547.547 0 0 0 .02.826Zm-5.019-1.262s-.24.712-.054 2.27c.008.075.032.15.07.216.039.067.091.127.154.175a.627.627 0 0 0 .453.124.637.637 0 0 0 .413-.216.566.566 0 0 0 .127-.428c-.149-1.245.012-1.814.012-1.814a.547.547 0 0 0-.051-.437.607.607 0 0 0-.364-.276.647.647 0 0 0-.464.045.586.586 0 0 0-.296.34Z" fill="#000"/><path fill-rule="evenodd" clip-rule="evenodd" d="M28.35 14.693c-1.613-.12-3.259.424-4.116.914-1.521.869-4.199 1.052-7.174-.043a69.106 69.106 0 0 0-1.501-.54c1.918-.452 4.085-1.214 5.609-3.29 1.02-1.39.735-3.102-.052-4.657-1.074-2.123-3.042-3.924-3.042-3.924a.609.609 0 0 0-.84.032.574.574 0 0 0 .02.818s1.804 1.647 2.788 3.59c.586 1.157.91 2.429.151 3.463-.973 1.325-2.254 2.025-3.53 2.46-1.348.459-2.696.632-3.726.885-1.373-.1-2.514.328-3.553 1.71-.625.831-1.044 2.043-1.244 3.366-.291 1.929-.122 4.09.45 5.568.414 1.07 1.061 1.79 1.84 2.006.957 1.657 3.01 4.365 7.094 4.816.05.156.104.305.16.446.29.74.509 1.64.645 2.294l.001.004c.085.393.306.745.626.998s.72.391 1.132.391c.305 0 .63 0 .898-.007.279 0 .553-.065.802-.188s.464-.3.63-.519l.005-.006c.836-1.132 1.395-2.447 1.63-3.97.89.256 2.482.643 4.001.653 1.702.01 3.288-.474 3.966-1.88.635-1.315 1.542-6.523.518-11.464-.338-1.626-1.083-2.627-1.982-3.22a4.1 4.1 0 0 0-1.015-.481c.763-2.032 1.215-4.614.045-6.74-2.356-4.28-5.615-5.16-5.615-5.16a.613.613 0 0 0-.445.06.586.586 0 0 0-.277.344.57.57 0 0 0 .046.435.596.596 0 0 0 .345.282s2.818.824 4.89 4.59c1.04 1.887.522 4.188-.18 5.964Zm-8.262 20.14a.61.61 0 0 1-.376-.128.58.58 0 0 1-.21-.33c-.147-.71-.386-1.68-.7-2.479-.473-1.204-.868-3.177.966-4.532 2.51-1.854 5.832-1.187 5.832-1.187a.615.615 0 0 0 .57-.187.578.578 0 0 0 .116-.574c-.577-1.638-.166-3.44.584-4.863a.57.57 0 0 0-.09-.66.613.613 0 0 0-.668-.145c-3.924 1.561-8.322 1.605-12.245-.488a.611.611 0 0 0-.795.201.572.572 0 0 0-.09.278s-.177 3.224-1.044 5.133c-.16.351-.339.654-.556.863-.138.133-.288.225-.468.219-.333-.012-.59-.24-.815-.562-.308-.444-.531-1.064-.682-1.77-.474-2.22-.222-5.285.934-6.823.869-1.155 1.839-1.379 3.052-1.163.937.166 1.997.564 3.233 1.02 3.403 1.25 6.465.95 8.204-.044.623-.355 1.753-.756 2.922-.782.734-.016 1.486.116 2.122.534.688.454 1.221 1.242 1.48 2.486.959 4.627.166 9.506-.428 10.737-.481.998-1.666 1.218-2.874 1.21-2.085-.014-4.316-.807-4.316-.807a.614.614 0 0 0-.528.057.591.591 0 0 0-.274.443c-.134 1.604-.647 2.962-1.491 4.106a.598.598 0 0 1-.475.231h-.014c-.261.007-.578.007-.876.007Zm-2.837-4.18c-.173-1.39.135-2.993 1.793-4.218 2.048-1.512 4.556-1.594 5.879-1.508-.226-1.224-.062-2.487.332-3.636-3.632 1.127-7.55 1.05-11.155-.607-.125 1.168-.425 3.247-1.067 4.66-.333.733-.776 1.285-1.297 1.566.887 1.39 2.543 3.27 5.515 3.743Z" fill="#000"/></svg>