<svg width="42" height="42" fill="none" xmlns="http://www.w3.org/2000/svg"><path d="M19.994 3.526c-.893 1.068-3.806 4.734-3.806 6.965A4.821 4.821 0 0 0 21 15.304a4.821 4.821 0 0 0 4.813-4.813c0-2.231-2.914-5.897-3.807-6.965-.498-.604-1.514-.604-2.012 0ZM21 12.68a2.187 2.187 0 0 1-2.188-2.188c0-.682 1.007-2.397 2.188-3.999 1.181 1.602 2.188 3.317 2.188 4A2.188 2.188 0 0 1 21 12.678Zm-8.313-2.188c0-2.231-2.913-5.897-3.806-6.965-.498-.595-1.514-.595-2.012 0-.893 1.068-3.806 4.725-3.806 6.965a4.821 4.821 0 0 0 4.812 4.813 4.821 4.821 0 0 0 4.813-4.813ZM7.875 12.68a2.187 2.187 0 0 1-2.188-2.188c0-.682 1.007-2.397 2.188-3.999 1.181 1.602 2.188 3.317 2.188 4a2.188 2.188 0 0 1-2.188 2.187Zm25.244-9.153c-.893 1.068-3.806 4.734-3.806 6.965a4.821 4.821 0 0 0 4.812 4.813 4.821 4.821 0 0 0 4.813-4.813c0-2.231-2.914-5.897-3.807-6.965-.498-.604-1.514-.604-2.012 0Zm1.006 9.153a2.187 2.187 0 0 1-2.188-2.188c0-.682 1.007-2.397 2.188-3.999 1.181 1.602 2.188 3.317 2.188 4a2.188 2.188 0 0 1-2.188 2.187ZM26.556 14.9c-.892 1.068-3.806 4.725-3.806 6.965a4.821 4.821 0 0 0 4.813 4.813 4.821 4.821 0 0 0 4.812-4.813c0-2.231-2.914-5.897-3.806-6.965-.499-.604-1.514-.604-2.013 0Zm1.006 9.153a2.187 2.187 0 0 1-2.187-2.188c0-.682 1.006-2.397 2.188-3.998 1.18 1.6 2.187 3.316 2.187 3.998a2.188 2.188 0 0 1-2.188 2.188Zm-8.312-2.188c0-2.231-2.914-5.897-3.806-6.965-.499-.595-1.514-.595-2.013 0-.892 1.068-3.806 4.725-3.806 6.965a4.821 4.821 0 0 0 4.813 4.813 4.821 4.821 0 0 0 4.812-4.813Zm-4.813 2.188a2.187 2.187 0 0 1-2.187-2.188c0-.682 1.006-2.397 2.188-3.998 1.18 1.6 2.187 3.316 2.187 3.998a2.188 2.188 0 0 1-2.188 2.188Zm5.557 3.097c-.893 1.068-3.806 4.734-3.806 6.965A4.821 4.821 0 0 0 21 38.93a4.821 4.821 0 0 0 4.813-4.813c0-2.231-2.914-5.897-3.807-6.965-.498-.604-1.514-.604-2.012 0ZM21 36.304a2.187 2.187 0 0 1-2.188-2.188c0-.682 1.007-2.397 2.188-3.998 1.181 1.6 2.188 3.316 2.188 3.998A2.188 2.188 0 0 1 21 36.304Z" fill="#000"/></svg>