<svg width="35" height="42" viewBox="0 0 35 42" fill="none" xmlns="http://www.w3.org/2000/svg">
<g clip-path="url(#clip0_804_2201)">
<path d="M34.1894 8.90192H33.5087C33.4363 8.80005 33.358 8.70244 33.2743 8.6096C33.2324 8.56404 33.1929 8.51619 33.1562 8.46628C33.128 8.40482 33.1036 8.34171 33.0831 8.27728C33.0458 8.16538 33.0027 8.05551 32.954 7.9481L33.2964 7.35464C33.3992 7.17386 33.4263 6.95977 33.3718 6.75908C33.3173 6.55839 33.1857 6.3874 33.0056 6.28342C32.8255 6.17944 32.6116 6.15092 32.4105 6.20407C32.2095 6.25722 32.0376 6.38774 31.9324 6.56714L31.5881 7.16343C31.4653 7.17414 31.3525 7.19493 31.2564 7.21257C31.1149 7.25542 30.9639 7.25542 30.8224 7.21257C30.726 7.19493 30.6132 7.17414 30.4904 7.16343L30.1464 6.56714C30.0412 6.38774 29.8693 6.25722 29.6683 6.20407C29.4673 6.15092 29.2533 6.17944 29.0733 6.28342C28.8932 6.3874 28.7615 6.55839 28.707 6.75908C28.6525 6.95977 28.6796 7.17386 28.7824 7.35464L29.1248 7.9481C29.076 8.05551 29.0328 8.16538 28.9954 8.27728C28.975 8.34168 28.9509 8.40479 28.9229 8.46628C28.886 8.51611 28.8465 8.56395 28.8045 8.6096C28.7208 8.70251 28.6424 8.80011 28.5698 8.90192H27.8894C27.6805 8.90192 27.4802 8.98489 27.3326 9.13258C27.1849 9.28026 27.1019 9.48057 27.1019 9.68943C27.1019 9.89828 27.1849 10.0986 27.3326 10.2463C27.4802 10.394 27.6805 10.4769 27.8894 10.4769H28.5698C28.6425 10.5786 28.7208 10.6761 28.8045 10.7689C28.8464 10.8145 28.8858 10.8622 28.9226 10.9119C28.9507 10.9734 28.975 11.0365 28.9954 11.1009C29.0328 11.2128 29.076 11.3227 29.1248 11.4301L28.7824 12.0236C28.7299 12.1132 28.6956 12.2123 28.6816 12.3152C28.6675 12.4181 28.6739 12.5227 28.7004 12.6231C28.727 12.7235 28.7731 12.8177 28.8362 12.9002C28.8993 12.9827 28.9781 13.0519 29.068 13.1038C29.158 13.1558 29.2573 13.1894 29.3603 13.2028C29.4633 13.2162 29.5679 13.2091 29.6681 13.1818C29.7684 13.1546 29.8622 13.1079 29.9443 13.0442C30.0264 12.9806 30.095 12.9014 30.1464 12.8111L30.4907 12.2148C30.6135 12.2038 30.726 12.1833 30.8224 12.1656C30.9639 12.1228 31.1149 12.1228 31.2564 12.1656C31.3525 12.1833 31.4653 12.2041 31.5881 12.2148L31.9324 12.8111C32.0376 12.9905 32.2095 13.121 32.4105 13.1742C32.6116 13.2273 32.8255 13.1988 33.0056 13.0948C33.1857 12.9908 33.3173 12.8198 33.3718 12.6191C33.4263 12.4185 33.3992 12.2044 33.2964 12.0236L32.9537 11.4301C33.0026 11.3228 33.0458 11.2129 33.0831 11.1009C33.1036 11.0366 33.1279 10.9734 33.1559 10.9119C33.1927 10.862 33.2321 10.814 33.274 10.7683C33.3578 10.6756 33.4362 10.5781 33.5087 10.4763H34.1894C34.3983 10.4763 34.5986 10.3933 34.7463 10.2456C34.8939 10.098 34.9769 9.89765 34.9769 9.68879C34.9769 9.47994 34.8939 9.27963 34.7463 9.13195C34.5986 8.98426 34.3983 8.90129 34.1894 8.90129V8.90192ZM32.0893 9.73132C31.9776 9.85164 31.8783 9.98292 31.7929 10.1232C31.7124 10.27 31.6465 10.4244 31.596 10.584C31.5916 10.5969 31.5866 10.6108 31.5815 10.6256L31.5431 10.6184C31.2116 10.5405 30.8666 10.5405 30.5351 10.6184L30.4967 10.6256C30.4916 10.6108 30.4866 10.5966 30.4822 10.584C30.4316 10.4249 30.3657 10.2711 30.2853 10.1248C30.1997 9.98456 30.1003 9.85328 29.9886 9.7329L29.952 9.68943L29.9886 9.64722C30.1003 9.52683 30.1997 9.39556 30.2853 9.25535C30.3657 9.10903 30.4316 8.95521 30.4822 8.79608C30.4866 8.78348 30.4916 8.76931 30.4967 8.7545L30.5351 8.76175C30.8666 8.83958 31.2116 8.83958 31.5431 8.76175L31.5815 8.7545C31.5866 8.76931 31.5916 8.78317 31.596 8.79608C31.6465 8.95521 31.7125 9.10903 31.7929 9.25535C31.8783 9.39561 31.9776 9.5269 32.0893 9.64722L32.1255 9.68943L32.0893 9.73132ZM11.0287 13.923C11.0733 13.9231 11.1179 13.9194 11.1619 13.9117C11.3678 13.8766 11.5513 13.7612 11.6721 13.5909C11.793 13.4205 11.8411 13.2091 11.8061 13.0032C11.7467 12.6533 11.7169 12.2991 11.7169 11.9442C11.7169 9.02288 13.7846 6.43736 16.6338 5.79696C16.7347 5.77421 16.8301 5.73181 16.9146 5.67218C16.9991 5.61255 17.0711 5.53686 17.1263 5.44943C17.1816 5.362 17.2191 5.26454 17.2366 5.16262C17.2542 5.0607 17.2516 4.95632 17.2288 4.85542C17.2061 4.75453 17.1637 4.65911 17.104 4.5746C17.0444 4.49009 16.9687 4.41816 16.8813 4.36291C16.7939 4.30765 16.6964 4.27016 16.5945 4.25257C16.4926 4.23498 16.3882 4.23764 16.2873 4.26039C14.3199 4.70418 12.5976 5.88552 11.4751 7.5611C10.3526 9.23668 9.91536 11.2789 10.2535 13.2672C10.2845 13.4504 10.3794 13.6167 10.5212 13.7367C10.6631 13.8568 10.8428 13.9228 11.0287 13.923ZM6.99193 25.3314C6.992 25.6238 7.01506 25.9158 7.06092 26.2046C7.09012 26.39 7.18454 26.5588 7.32719 26.6807C7.46983 26.8026 7.65133 26.8696 7.83897 26.8696C7.88117 26.8695 7.9233 26.8662 7.96497 26.8595C8.06707 26.843 8.16491 26.8065 8.2529 26.7521C8.34089 26.6978 8.41732 26.6266 8.47781 26.5427C8.5383 26.4588 8.58167 26.3638 8.60545 26.2632C8.62923 26.1625 8.63295 26.0582 8.61639 25.9561C8.58349 25.7495 8.56696 25.5406 8.56694 25.3314V20.6064C8.56173 19.0052 9.10525 17.4506 10.107 16.2014C10.1732 16.1207 10.2227 16.0276 10.2526 15.9276C10.2825 15.8276 10.2922 15.7226 10.2812 15.6188C10.2702 15.515 10.2386 15.4144 10.1883 15.3229C10.1381 15.2314 10.0701 15.1508 9.98845 15.0858C9.90676 15.0208 9.81296 14.9727 9.71251 14.9443C9.61205 14.9158 9.50695 14.9077 9.40331 14.9202C9.29967 14.9328 9.19957 14.9658 9.10882 15.0175C9.01807 15.0691 8.93848 15.1382 8.87469 15.2208C7.6584 16.753 6.99529 18.6511 6.99288 20.6074L6.99193 25.3314ZM24.5819 4.72501C25.0492 4.72501 25.5059 4.58645 25.8944 4.32686C26.2829 4.06726 26.5858 3.69829 26.7646 3.2666C26.9434 2.83491 26.9902 2.35989 26.899 1.9016C26.8078 1.44332 26.5828 1.02237 26.2524 0.691963C25.922 0.361561 25.5011 0.136554 25.0428 0.045396C24.5845 -0.0457619 24.1095 0.00102364 23.6778 0.179836C23.2461 0.358649 22.8771 0.661457 22.6175 1.04997C22.3579 1.43848 22.2194 1.89525 22.2194 2.36251C22.2201 2.98885 22.4693 3.58933 22.9122 4.03222C23.3551 4.47512 23.9555 4.72426 24.5819 4.72501ZM24.5819 1.57501C24.7376 1.57501 24.8899 1.62119 25.0194 1.70772C25.1489 1.79425 25.2498 1.91725 25.3094 2.06114C25.3691 2.20504 25.3846 2.36338 25.3543 2.51614C25.3239 2.6689 25.2489 2.80922 25.1387 2.91935C25.0286 3.02949 24.8883 3.10449 24.7355 3.13488C24.5828 3.16526 24.4244 3.14967 24.2805 3.09006C24.1366 3.03046 24.0136 2.92952 23.9271 2.80002C23.8406 2.67052 23.7944 2.51826 23.7944 2.36251C23.7944 2.15365 23.8774 1.95334 24.025 1.80566C24.1727 1.65797 24.373 1.57501 24.5819 1.57501ZM19.4096 5.79917C20.7767 6.1086 22.0015 6.86544 22.8898 7.94976C23.7781 9.03407 24.2792 10.3838 24.3135 11.7851C24.3151 11.8384 24.3157 11.891 24.3157 11.9426C24.3157 12.3016 24.2851 12.6599 24.2244 13.0136C24.2007 13.1513 24.1888 13.2907 24.1888 13.4304C24.1875 13.7744 24.2605 14.1147 24.4026 14.428C24.5448 14.7414 24.7528 15.0204 25.0125 15.246C25.4357 15.6133 25.8143 16.029 26.1405 16.4846C26.2632 16.6518 26.447 16.7638 26.6518 16.7963C26.8566 16.8289 27.066 16.7793 27.2345 16.6584C27.4029 16.5375 27.5169 16.355 27.5517 16.1505C27.5864 15.9461 27.5391 15.7362 27.42 15.5664C27.0214 15.0109 26.5588 14.5042 26.0419 14.0566C25.9535 13.9785 25.8829 13.8824 25.835 13.7747C25.787 13.667 25.7627 13.5502 25.7638 13.4323C25.7637 13.3823 25.7679 13.3325 25.7764 13.2833C25.8525 12.8409 25.8907 12.3928 25.8907 11.9439C25.8907 11.8784 25.8899 11.8125 25.8882 11.7464C25.8404 9.99618 25.2124 8.31148 24.1029 6.95701C22.9935 5.60254 21.4654 4.65509 19.7589 4.26354C19.6575 4.23904 19.5523 4.23493 19.4493 4.25144C19.3463 4.26795 19.2476 4.30475 19.159 4.35972C19.0703 4.41468 18.9935 4.48671 18.9329 4.57161C18.8723 4.65652 18.8292 4.75262 18.8061 4.85433C18.7829 4.95603 18.7802 5.06132 18.7981 5.16408C18.816 5.26684 18.8541 5.36502 18.9103 5.45292C18.9664 5.54083 19.0395 5.6167 19.1252 5.67614C19.2109 5.73558 19.3076 5.77739 19.4096 5.79917ZM25.892 32.4189V31.6409C25.892 31.432 25.809 31.2317 25.6613 31.084C25.5136 30.9364 25.3133 30.8534 25.1045 30.8534C24.8956 30.8534 24.6953 30.9364 24.5476 31.084C24.3999 31.2317 24.317 31.432 24.317 31.6409V32.4189C24.3157 33.4628 23.9005 34.4636 23.1623 35.2018C22.4242 35.94 21.4234 36.3552 20.3795 36.3564H17.8198C17.6109 36.3564 17.4106 36.4394 17.2629 36.5871C17.1152 36.7348 17.0323 36.9351 17.0323 37.1439C17.0323 37.3528 17.1152 37.5531 17.2629 37.7008C17.4106 37.8485 17.6109 37.9315 17.8198 37.9315H20.3795C23.4189 37.9315 25.892 35.4584 25.892 32.4189ZM26.2593 37.275C25.792 37.275 25.3352 37.4135 24.9467 37.6731C24.5582 37.9327 24.2554 38.3017 24.0766 38.7334C23.8978 39.1651 23.851 39.6401 23.9422 40.0984C24.0333 40.5567 24.2583 40.9776 24.5887 41.308C24.9191 41.6384 25.3401 41.8634 25.7984 41.9546C26.2567 42.0458 26.7317 41.999 27.1634 41.8202C27.5951 41.6414 27.964 41.3385 28.2236 40.95C28.4832 40.5615 28.6218 40.1048 28.6218 39.6375C28.621 39.0111 28.3719 38.4107 27.929 37.9678C27.4861 37.5249 26.8856 37.2757 26.2593 37.275ZM26.2593 40.425C26.1035 40.425 25.9513 40.3788 25.8218 40.2923C25.6923 40.2057 25.5913 40.0828 25.5317 39.9389C25.4721 39.795 25.4565 39.6366 25.4869 39.4839C25.5173 39.3311 25.5923 39.1908 25.7024 39.0806C25.8126 38.9705 25.9529 38.8955 26.1056 38.8651C26.2584 38.8347 26.4167 38.8503 26.5606 38.9099C26.7045 38.9695 26.8275 39.0705 26.9141 39.2C27.0006 39.3295 27.0468 39.4817 27.0468 39.6375C27.0468 39.8464 26.9638 40.0467 26.8161 40.1943C26.6684 40.342 26.4681 40.425 26.2593 40.425ZM22.742 32.4189V27.6939H23.5295C24.1558 27.6932 24.7563 27.444 25.1992 27.0011C25.6421 26.5582 25.8912 25.9578 25.892 25.3314V20.6064C25.892 17.9289 23.9743 15.6924 21.4407 15.1966C22.2767 14.3201 22.7427 13.1551 22.742 11.9439C22.742 9.33851 20.6223 7.21887 18.017 7.21887C15.4116 7.21887 13.2919 9.33851 13.2919 11.9439C13.291 13.1552 13.7571 14.3202 14.5932 15.1966C12.06 15.6927 10.1419 17.9295 10.1419 20.6064V25.3314C10.1427 25.9578 10.3918 26.5582 10.8347 27.0011C11.2776 27.444 11.8781 27.6932 12.5044 27.6939H13.2919V32.4189C13.2927 33.0453 13.5418 33.6458 13.9847 34.0887C14.4276 34.5315 15.0281 34.7807 15.6545 34.7814H20.3795C21.0058 34.7807 21.6063 34.5315 22.0492 34.0887C22.4921 33.6458 22.7412 33.0453 22.742 32.4189ZM18.017 8.79388C18.64 8.79388 19.249 8.97862 19.767 9.32475C20.285 9.67088 20.6888 10.1628 20.9272 10.7384C21.1656 11.314 21.228 11.9474 21.1064 12.5584C20.9849 13.1695 20.6849 13.7307 20.2444 14.1713C19.8038 14.6118 19.2425 14.9118 18.6315 15.0334C18.0205 15.1549 17.3871 15.0925 16.8115 14.8541C16.2359 14.6157 15.744 14.212 15.3978 13.6939C15.0517 13.1759 14.867 12.5669 14.867 11.9439C14.8679 11.1087 15.2 10.308 15.7906 9.71751C16.3811 9.12696 17.1818 8.7948 18.017 8.79388ZM18.017 26.1189C17.8081 26.1189 17.6078 26.2019 17.4601 26.3496C17.3124 26.4973 17.2295 26.6976 17.2295 26.9064V33.2064H15.6545C15.4456 33.2064 15.2453 33.1235 15.0976 32.9758C14.9499 32.8281 14.867 32.6278 14.867 32.4189V20.6064C14.867 20.3975 14.784 20.1972 14.6363 20.0496C14.4886 19.9019 14.2883 19.8189 14.0795 19.8189C13.8706 19.8189 13.6703 19.9019 13.5226 20.0496C13.3749 20.1972 13.2919 20.3975 13.2919 20.6064V26.1189H12.5044C12.2956 26.1189 12.0953 26.036 11.9476 25.8883C11.7999 25.7406 11.7169 25.5403 11.7169 25.3314V20.6064C11.7181 19.5625 12.1333 18.5616 12.8715 17.8235C13.6097 17.0853 14.6105 16.6701 15.6545 16.6689H20.3795C21.4234 16.6701 22.4242 17.0853 23.1624 17.8235C23.9006 18.5616 24.3158 19.5625 24.317 20.6064V25.3314C24.317 25.5403 24.234 25.7406 24.0863 25.8883C23.9386 26.036 23.7383 26.1189 23.5295 26.1189H22.742V20.6064C22.742 20.3975 22.659 20.1972 22.5113 20.0496C22.3636 19.9019 22.1633 19.8189 21.9545 19.8189C21.7456 19.8189 21.5453 19.9019 21.3976 20.0496C21.2499 20.1972 21.167 20.3975 21.167 20.6064V32.4189C21.167 32.6278 21.084 32.8281 20.9363 32.9758C20.7886 33.1235 20.5883 33.2064 20.3795 33.2064H18.8045V26.9064C18.8045 26.6976 18.7215 26.4973 18.5738 26.3496C18.4261 26.2019 18.2258 26.1189 18.017 26.1189ZM6.30208 14.679C6.76934 14.679 7.22611 14.5405 7.61462 14.2809C8.00313 14.0213 8.30594 13.6523 8.48475 13.2206C8.66357 12.7889 8.71035 12.3139 8.61919 11.8556C8.52803 11.3973 8.30303 10.9764 7.97263 10.646C7.64222 10.3156 7.22127 10.0906 6.76298 9.99942C6.3047 9.90826 5.82968 9.95505 5.39799 10.1339C4.9663 10.3127 4.59733 10.6155 4.33773 11.004C4.07813 11.3925 3.93958 11.8493 3.93958 12.3165C3.94033 12.9429 4.18947 13.5434 4.63237 13.9862C5.07526 14.4291 5.67574 14.6783 6.30208 14.679ZM6.30208 11.529C6.45784 11.529 6.61009 11.5752 6.73959 11.6617C6.8691 11.7483 6.97003 11.8713 7.02964 12.0152C7.08924 12.1591 7.10484 12.3174 7.07445 12.4702C7.04407 12.6229 6.96906 12.7632 6.85893 12.8734C6.7488 12.9835 6.60848 13.0585 6.45572 13.0889C6.30296 13.1193 6.14462 13.1037 6.00072 13.0441C5.85682 12.9845 5.73383 12.8835 5.6473 12.754C5.56077 12.6245 5.51458 12.4723 5.51458 12.3165C5.51458 12.1077 5.59755 11.9074 5.74523 11.7597C5.89292 11.612 6.09322 11.529 6.30208 11.529ZM27.891 18.1125C27.6872 18.1583 27.51 18.2832 27.3983 18.4596C27.2866 18.6361 27.2495 18.8497 27.2953 19.0535C27.4095 19.5637 27.4671 20.0851 27.467 20.608V25.333C27.4681 25.9326 27.3316 26.5244 27.0679 27.0629C26.8043 27.6014 26.4205 28.0721 25.9462 28.4389C25.7815 28.5674 25.6746 28.756 25.649 28.9633C25.6235 29.1706 25.6813 29.3796 25.8098 29.5442C25.9383 29.7089 26.1269 29.8158 26.3342 29.8414C26.5415 29.8669 26.7504 29.8091 26.9151 29.6806C27.5787 29.1672 28.1155 28.5082 28.4843 27.7546C28.853 27.0009 29.0438 26.1727 29.042 25.3336V20.6086C29.042 19.9696 28.9716 19.3324 28.8319 18.7088C28.8093 18.6079 28.767 18.5124 28.7075 18.4278C28.648 18.3432 28.5723 18.2711 28.485 18.2158C28.3976 18.1604 28.3002 18.1228 28.1982 18.1051C28.0963 18.0874 27.9919 18.0899 27.891 18.1125ZM14.8392 36.272C13.0299 35.8915 11.7169 34.2711 11.7169 32.4189V30.8159C11.7166 30.3954 11.6066 29.9822 11.3977 29.6172C11.1888 29.2522 10.8884 28.948 10.5259 28.7347C10.2785 28.5897 10.0474 28.4186 9.83671 28.2241C9.6832 28.0824 9.4797 28.0076 9.27099 28.0159C9.06228 28.0243 8.86546 28.1153 8.72381 28.2688C8.58216 28.4223 8.5073 28.6258 8.51568 28.8345C8.52407 29.0432 8.61503 29.2401 8.76854 29.3817C9.06281 29.6533 9.38569 29.8922 9.73149 30.0942C9.85659 30.1685 9.96016 30.2741 10.032 30.4006C10.1038 30.5271 10.1414 30.6701 10.141 30.8156V32.4186C10.1411 33.6828 10.5756 34.9087 11.3717 35.8907C12.1679 36.8728 13.2773 37.5514 14.5142 37.813C14.5677 37.8242 14.6223 37.8299 14.677 37.83C14.8718 37.83 15.0597 37.7578 15.2044 37.6273C15.3491 37.4968 15.4403 37.3174 15.4603 37.1236C15.4804 36.9298 15.4279 36.7355 15.313 36.5781C15.1981 36.4208 15.029 36.3116 14.8383 36.2717L14.8392 36.272ZM7.90197 32.3663H7.22157C7.14903 32.2646 7.07068 32.1671 6.98689 32.0743C6.94506 32.0286 6.90563 31.9808 6.86877 31.931C6.84063 31.8695 6.81623 31.8064 6.79569 31.742C6.75852 31.63 6.71541 31.52 6.66654 31.4125L7.00894 30.8194C7.06147 30.7298 7.09575 30.6307 7.10982 30.5278C7.12389 30.4249 7.11747 30.3202 7.09092 30.2198C7.06438 30.1194 7.01823 30.0252 6.95515 29.9427C6.89206 29.8602 6.81328 29.791 6.72334 29.7391C6.6334 29.6872 6.53407 29.6535 6.43108 29.6402C6.32809 29.6268 6.22347 29.6339 6.12325 29.6611C6.02302 29.6883 5.92916 29.7351 5.84708 29.7987C5.765 29.8623 5.69632 29.9416 5.64499 30.0319L5.30069 30.6278C5.17784 30.6389 5.06507 30.6593 4.969 30.6773C4.89742 30.6926 4.82492 30.7031 4.75196 30.7088C4.679 30.7031 4.6065 30.6926 4.53493 30.6773C4.44043 30.6593 4.32608 30.6389 4.20323 30.6278L3.85894 30.0322C3.75376 29.8528 3.5819 29.7223 3.38086 29.6691C3.17981 29.616 2.9659 29.6445 2.78581 29.7485C2.60572 29.8524 2.47407 30.0234 2.41958 30.2241C2.36509 30.4248 2.3922 30.6389 2.49498 30.8197L2.83739 31.4128C2.78865 31.5203 2.74554 31.6303 2.70824 31.7423C2.68771 31.8067 2.66342 31.8698 2.63547 31.9313C2.59848 31.9812 2.55895 32.0291 2.51703 32.075C2.43326 32.1676 2.35501 32.2651 2.28267 32.367H1.60196C1.3931 32.367 1.19279 32.4499 1.04511 32.5976C0.897422 32.7453 0.814453 32.9456 0.814453 33.1545C0.814453 33.3633 0.897422 33.5636 1.04511 33.7113C1.19279 33.859 1.3931 33.942 1.60196 33.942H2.28267C2.35501 34.0438 2.43326 34.1413 2.51703 34.234C2.55887 34.2797 2.59829 34.3275 2.63516 34.3773C2.66335 34.4387 2.68775 34.5019 2.70824 34.5663C2.74554 34.6783 2.78865 34.7883 2.83739 34.8958L2.49498 35.488C2.44246 35.5776 2.40817 35.6767 2.3941 35.7796C2.38004 35.8825 2.38646 35.9871 2.413 36.0876C2.43955 36.188 2.48569 36.2821 2.54878 36.3646C2.61187 36.4471 2.69065 36.5163 2.78059 36.5683C2.87053 36.6202 2.96985 36.6538 3.07284 36.6672C3.17583 36.6806 3.28045 36.6735 3.38068 36.6463C3.48091 36.619 3.57476 36.5723 3.65684 36.5086C3.73892 36.445 3.8076 36.3658 3.85894 36.2755L4.20323 35.6795C4.32608 35.6685 4.43885 35.648 4.53493 35.6301C4.6065 35.6148 4.679 35.6043 4.75196 35.5986C4.82492 35.6043 4.89742 35.6148 4.969 35.6301C5.06507 35.648 5.17784 35.6685 5.30069 35.6795L5.64499 36.2755C5.69632 36.3658 5.765 36.445 5.84708 36.5086C5.92916 36.5723 6.02302 36.619 6.12325 36.6463C6.22347 36.6735 6.32809 36.6806 6.43108 36.6672C6.53407 36.6538 6.6334 36.6202 6.72334 36.5683C6.81328 36.5163 6.89206 36.4471 6.95515 36.3646C7.01823 36.2821 7.06438 36.188 7.09092 36.0876C7.11747 35.9871 7.12389 35.8825 7.10982 35.7796C7.09575 35.6767 7.06147 35.5776 7.00894 35.488L6.66654 34.8948C6.71541 34.7874 6.75852 34.6774 6.79569 34.5654C6.81616 34.501 6.84045 34.4378 6.86845 34.3764C6.90544 34.3265 6.94498 34.2785 6.98689 34.2327C7.07068 34.14 7.14903 34.0425 7.22157 33.9407H7.90197C8.11083 33.9407 8.31113 33.8577 8.45882 33.7101C8.6065 33.5624 8.68947 33.3621 8.68947 33.1532C8.68947 32.9443 8.6065 32.744 8.45882 32.5964C8.31113 32.4487 8.11083 32.3657 7.90197 32.3657V32.3663ZM5.80186 33.1957C5.69025 33.3163 5.59095 33.4476 5.50544 33.5879C5.42504 33.7341 5.3591 33.8878 5.30857 34.0469L5.29408 34.0884L5.25596 34.0831C5.09016 34.0479 4.92142 34.0282 4.75196 34.0245C4.5825 34.0282 4.41376 34.0479 4.24796 34.0831L4.20953 34.09L4.19504 34.0484C4.14451 33.8894 4.07857 33.7357 3.99817 33.5895C3.91277 33.4491 3.81346 33.3178 3.70175 33.1973C3.69041 33.1847 3.67781 33.1702 3.66521 33.1554C3.67781 33.1406 3.69041 33.1261 3.70175 33.1135C3.81346 32.9931 3.91277 32.8617 3.99817 32.7213C4.07857 32.5751 4.14451 32.4214 4.19504 32.2624L4.20953 32.2208L4.24796 32.2277C4.41376 32.263 4.5825 32.2826 4.75196 32.2863C4.92142 32.2826 5.09016 32.263 5.25596 32.2277L5.29439 32.2208L5.30888 32.2624C5.35942 32.4214 5.42535 32.5751 5.50576 32.7213C5.59126 32.8616 5.69056 32.993 5.80218 33.1135C5.81352 33.1261 5.82612 33.1406 5.83872 33.1554C5.8258 33.1696 5.8132 33.1831 5.80186 33.1957Z" fill="black"/>
</g>
<defs>
<clipPath id="clip0_804_2201">
<rect width="34.1625" height="42" fill="white" transform="translate(0.814453)"/>
</clipPath>
</defs>
</svg>
