<svg width="34" height="42" viewBox="0 0 34 42" fill="none" xmlns="http://www.w3.org/2000/svg">
<g clip-path="url(#clip0_804_2266)">
<path d="M14.3391 0.173213C14.0116 0.320582 13.6022 0.762687 13.4467 1.13929C13.1847 1.76152 13.3239 2.70304 13.7414 3.14514C13.9788 3.39894 13.8888 3.45625 13.4221 3.34163C13.2092 3.28432 12.7344 3.24339 12.366 3.2352C11.1706 3.2352 10.1554 3.65274 9.32035 4.49602C8.47708 5.33111 8.07586 6.32175 8.07586 7.54982C8.07586 8.81064 8.51801 9.83403 9.42678 10.6937C10.311 11.5124 11.1706 11.8481 12.4151 11.8481C14.1016 11.8481 15.5016 10.9802 16.2549 9.4738C16.435 9.10538 16.5905 8.72877 16.5905 8.63871C16.5905 8.47497 16.6233 8.47497 17.4338 8.52409C19.2104 8.6469 20.9543 9.13813 22.5016 9.94046C22.9847 10.1943 23.3858 10.4235 23.3858 10.4563C23.3858 10.4808 23.2958 10.5954 23.1894 10.6937C23.0174 10.8574 22.9683 10.8656 22.8046 10.7837C22.518 10.6282 21.8139 10.6609 21.4537 10.8492C21.2736 10.9393 20.9788 11.1767 20.7823 11.3732L20.4303 11.7416L20.0046 11.5288C19.6525 11.3487 19.4642 11.3159 18.8829 11.3159C17.7285 11.3159 17.5648 11.4223 15.2396 13.7311L13.2747 15.6796L12.8654 15.3194C12.1285 14.6726 11.2116 14.4761 10.2782 14.7709C9.6724 14.9674 8.97649 15.6469 8.78 16.2527C8.57532 16.8504 8.62444 17.7346 8.87824 18.234C8.98468 18.4387 9.50047 19.0364 10.0244 19.5685L10.9823 20.5264L10.5648 20.944L10.1391 21.3615L9.71333 21.2223C9.14023 21.034 8.17411 21.0832 7.69926 21.3288C7.2244 21.5744 6.64312 22.2457 6.47937 22.7451C6.29107 23.3101 6.34019 24.1206 6.59399 24.6609C6.74136 24.972 7.3554 25.6352 9.17298 27.4527C11.3589 29.6469 11.5964 29.8516 12.0303 30.0153C14.1098 30.7767 16.0174 28.9346 15.3215 26.8305L15.1823 26.4048L15.5917 25.9872L16.0092 25.5697L17.0572 26.5931C17.9496 27.4691 18.1706 27.6492 18.5473 27.772C19.1204 27.9603 20.0946 27.9112 20.5613 27.6738C22.035 26.9042 22.3625 24.9557 21.2244 23.6785L20.8642 23.2691L22.8455 21.2633C25.1706 18.9136 25.2198 18.8317 25.228 17.7019C25.228 17.0796 25.1952 16.8995 25.0233 16.5475L24.8104 16.1299L25.2771 15.6305C25.8584 15.0083 26.0221 14.4925 25.8092 13.8948L25.6864 13.5264L25.9812 13.2235L26.2759 12.9206L26.5952 13.3218C27.4549 14.4106 28.2572 15.9744 28.6665 17.3744C29.0186 18.6025 29.1414 19.4867 29.1496 20.813C29.1496 22.3931 28.9203 23.7276 28.4127 25.103L28.2081 25.6598H27.6513C27.1929 25.6598 27.0209 25.7007 26.6525 25.8972C26.1695 26.1592 25.7274 26.675 25.5964 27.1416C25.4572 27.641 25.4899 30.4984 25.6373 30.9323C25.8174 31.4481 26.1777 31.8574 26.6771 32.103C27.0946 32.3159 27.1356 32.3159 28.863 32.3159C30.5496 32.3159 30.6478 32.3077 31.049 32.1194C32.2525 31.5627 32.6127 29.7943 31.7122 28.82L31.5484 28.6317L31.9168 27.8375C34.2256 22.9007 33.9063 16.9241 31.0818 12.2574C30.4841 11.2586 29.6244 10.1533 29.3625 10.0469C29.0595 9.92409 28.7648 10.0141 28.642 10.2679C28.4701 10.6446 28.5274 10.8656 28.9449 11.3896C31.2864 14.3451 32.4818 18.275 32.1543 22.0165C31.9742 24.1288 31.532 25.758 30.6233 27.6329C30.0747 28.7709 30.0092 29.0492 30.2467 29.2375C30.3204 29.303 30.5005 29.4504 30.6478 29.5732C30.9753 29.8434 31.0654 30.2282 30.8853 30.5802C30.6315 31.0633 30.5414 31.0878 28.8549 31.0878H27.3157L27.0537 30.8504L26.7835 30.613V29.0001V27.3872L27.0537 27.1498C27.3648 26.8715 27.7332 26.8387 28.1753 27.0516C28.7648 27.3299 29.0432 27.027 29.5835 25.537C30.2467 23.6785 30.525 21.6071 30.3613 19.7732C30.2385 18.406 30.0911 17.7101 29.6899 16.4902C29.1496 14.8609 28.249 13.289 27.1437 12.0036C26.8818 11.7007 26.7426 11.4633 26.7426 11.3241C26.7426 10.5872 25.8502 9.80128 25.0233 9.80128C24.7695 9.80128 24.573 9.7276 24.2209 9.48198C22.3706 8.22935 19.2677 7.27146 17.0654 7.26327C16.7051 7.26327 16.6724 7.2469 16.6315 7.03403C16.5987 6.91122 16.5414 6.64924 16.5005 6.45275C16.394 5.99427 16.5087 5.8469 16.7706 6.09251C17.1227 6.41181 17.5157 6.55099 18.0233 6.55099C18.58 6.55099 18.932 6.40362 19.3742 5.99427L19.6607 5.72409L20.5613 5.95333C22.6981 6.49368 24.9168 7.61532 26.6116 9.00713C27.1929 9.49017 27.373 9.54748 27.7496 9.36736C27.9952 9.26093 28.0934 9.00713 28.0198 8.70421C27.9133 8.27029 25.7765 6.74748 24.1636 5.95333C23.1566 5.45391 21.3554 4.81532 20.4712 4.6352L19.9636 4.52877L19.9227 3.25976C19.8981 2.55567 19.8326 1.84339 19.7835 1.67965C19.5952 1.13929 19.1285 0.615319 18.5636 0.328769L18.0478 0.0585938H16.3204C15.0513 0.0667809 14.5192 0.0913421 14.3391 0.173213ZM18.0478 1.45041C18.58 1.77789 18.6373 1.97438 18.6373 3.59543C18.6373 4.94631 18.6291 5.06093 18.4736 5.21649C18.2853 5.40479 17.8513 5.42935 17.6303 5.26561C17.5484 5.20011 17.4502 5.02 17.4011 4.85625C17.2946 4.47146 17.1227 4.3159 16.8034 4.3159C16.5742 4.3159 16.435 4.42234 15.8291 5.04456C15.4361 5.44573 15.1168 5.82234 15.1168 5.88783C15.1168 5.95333 15.1905 6.22351 15.2888 6.49368C15.5508 7.23871 15.4853 8.1966 15.1414 8.90889C14.6256 9.94865 13.7087 10.5463 12.5379 10.6036C12.0221 10.6282 11.7847 10.6036 11.4081 10.4726C9.23029 9.70304 8.59988 6.97672 10.2209 5.35567C10.7858 4.79076 11.3835 4.53696 12.2513 4.49602C12.8163 4.47146 13.0291 4.49602 13.3975 4.6352C13.6432 4.73345 13.9297 4.80713 14.028 4.80713C14.2572 4.80713 15.4198 3.72643 15.5671 3.38257C15.7473 2.96503 15.4525 2.51473 14.994 2.51473C14.7975 2.51473 14.5437 2.17087 14.5437 1.9007C14.5437 1.75333 14.6174 1.56503 14.7075 1.46678C14.8712 1.29485 14.9449 1.28666 16.3285 1.28666C17.6303 1.28666 17.8022 1.30304 18.0478 1.45041ZM25.3917 11.1522C25.7192 11.4715 25.6619 11.7662 25.1952 12.2738L24.7858 12.7077L24.3274 12.2574L23.8689 11.8071L24.3192 11.3732C24.8268 10.8902 25.0806 10.8329 25.3917 11.1522ZM23.4841 13.0516C24.2046 13.772 24.6139 14.2387 24.6139 14.3451C24.6139 14.4434 24.4502 14.6808 24.2455 14.8773L23.8771 15.2457L22.5917 13.9522L21.2981 12.6668L21.6665 12.2984C21.863 12.0937 22.1005 11.9299 22.1905 11.9299C22.297 11.9299 22.78 12.3475 23.4841 13.0516ZM19.3578 12.6258C19.7671 12.7978 23.6724 16.6785 23.8853 17.1288C24.2701 17.9639 24.1145 18.2177 21.7975 20.5264L19.8654 22.4504L16.9835 19.5603L14.0934 16.6785L16.0174 14.7463C18.2934 12.4539 18.5473 12.2984 19.3578 12.6258ZM11.6619 16.0153C12.0549 16.22 20.4876 24.6691 20.594 24.972C20.897 25.7826 20.2911 26.6668 19.4315 26.6668C19.2595 26.6668 19.0385 26.6258 18.9402 26.5767C18.6864 26.4457 10.1391 17.9147 9.9917 17.6446C9.70515 17.096 9.96713 16.3182 10.5484 16.0317C10.9823 15.8188 11.2689 15.8106 11.6619 16.0153ZM13.5613 23.0235L15.1578 24.62L14.7075 25.0703L14.2572 25.5206L12.6443 23.9077L11.0233 22.2867L11.449 21.8609C11.6864 21.6235 11.8993 21.427 11.9239 21.427C11.9484 21.427 12.6853 22.1475 13.5613 23.0235ZM9.36947 22.4422C9.63146 22.5896 13.9952 26.9615 14.1262 27.2153C14.1753 27.3136 14.2163 27.5592 14.2163 27.7557C14.2163 28.6317 13.2584 29.2212 12.4724 28.8282C12.1122 28.6481 7.93668 24.489 7.74019 24.1124C7.53551 23.7112 7.5437 23.3428 7.77294 22.9498C8.08405 22.4013 8.83731 22.1639 9.36947 22.4422Z" fill="#151515"/>
<path d="M11.9309 5.78969C11.5052 5.89612 11.014 6.28091 10.8011 6.69027C10.6292 7.00138 10.6046 7.14875 10.6292 7.64817C10.6537 8.13939 10.6947 8.28677 10.8993 8.58151C11.6771 9.69496 13.3555 9.57215 13.9941 8.36864C14.3379 7.71366 14.166 6.72302 13.6257 6.23179C13.1835 5.82243 12.4958 5.64232 11.9309 5.78969ZM12.8233 7.247C13.028 7.5008 13.028 7.59904 12.8151 7.86922C12.6923 8.02477 12.5695 8.08208 12.373 8.08208C11.7426 8.08208 11.6444 7.18969 12.2502 7.00138C12.4467 6.93588 12.6514 7.02594 12.8233 7.247Z" fill="#151515"/>
<path d="M18.4004 14.1899C18.3022 14.3127 18.2285 14.4847 18.2285 14.5747C18.2285 14.6811 18.5478 15.0659 19.0718 15.5899C19.7268 16.2449 19.9642 16.4332 20.1361 16.4332C20.439 16.4332 20.6847 16.163 20.6847 15.8355C20.6847 15.6063 20.57 15.4589 19.8823 14.7712C19.211 14.0999 19.0472 13.9771 18.8262 13.9771C18.6461 13.9771 18.5151 14.0425 18.4004 14.1899Z" fill="#151515"/>
<path d="M16.6877 15.8843C16.3602 16.2281 16.4421 16.4083 17.3427 17.3088C18.0058 17.972 18.2351 18.1521 18.407 18.1521C18.7181 18.1521 18.9637 17.8901 18.9637 17.5626C18.9637 17.3416 18.8409 17.1778 18.1614 16.4983C17.2772 15.6141 17.0398 15.5159 16.6877 15.8843Z" fill="#151515"/>
<path d="M2.69651 9.87518C2.5082 9.96524 2.20528 10.1863 2.02516 10.3746C1.29651 11.1278 1.26376 12.4623 1.95967 13.2155L2.12341 13.4038L1.78774 14.1161C1.14095 15.4916 0.682475 16.9816 0.4123 18.6027C0.232183 19.6424 0.207622 22.4261 0.371364 23.5559C0.772534 26.4459 1.98423 29.2541 3.79358 31.522C4.21113 32.0459 4.25206 32.0705 4.58774 32.0705C4.91522 32.0705 4.94797 32.0541 5.07896 31.7512C5.25089 31.3746 5.25908 31.391 4.48949 30.3594C1.0509 25.7746 0.502358 19.5606 3.0813 14.3372C3.35148 13.7886 3.57253 13.2483 3.57253 13.1337C3.57253 12.9863 3.48247 12.8553 3.26961 12.6916C2.86025 12.3886 2.77019 12.2658 2.7047 11.9629C2.6392 11.6272 2.84388 11.2342 3.16318 11.0705C3.47429 10.9068 6.11873 10.8904 6.43803 11.0541C6.84739 11.2588 6.92926 11.5945 6.92926 13.06C6.92926 14.0997 6.9047 14.46 6.80645 14.6728C6.57721 15.1477 6.06961 15.2787 5.48832 15.0003C4.89066 14.7138 4.69417 14.9185 4.13744 16.4003C2.69651 20.2155 3.04856 24.5547 5.08715 28.0179C7.33043 31.8413 11.4076 34.3793 15.8614 34.7395L16.5737 34.7968L16.762 35.2144C16.8685 35.4436 17.1141 35.8202 17.3106 36.0576C17.4989 36.2951 17.6544 36.5079 17.6544 36.5325C17.6544 36.6226 15.8942 36.5652 14.9772 36.4506C12.1036 36.0658 9.4018 34.9196 7.14212 33.1021C6.52809 32.6109 6.2661 32.5372 5.90587 32.7746C5.74212 32.881 5.70119 32.9793 5.70119 33.2249C5.70119 33.5114 5.74212 33.5769 6.25791 34.0027C7.46961 35.0097 9.25443 36.0658 10.6954 36.6226C12.6521 37.3758 14.2977 37.7196 16.3609 37.7769L17.81 37.8261L17.6954 38.0389C17.2533 38.9068 17.5971 40.0693 18.4322 40.5114C18.6369 40.6179 18.8006 40.7325 18.8006 40.7571C18.8006 40.7816 18.9071 40.9699 19.0462 41.1746C19.2018 41.4038 19.4392 41.6249 19.7094 41.7641C20.0778 41.9688 20.1924 41.9933 20.7164 41.9606C21.4614 41.9278 21.8872 41.674 22.2229 41.0764C22.3457 40.8553 22.4848 40.667 22.534 40.667C22.5831 40.667 22.7796 40.5524 22.9679 40.4132C23.9176 39.7255 23.9421 38.1699 23.0088 37.4167L22.6977 37.1711L22.9679 37.0319C23.4018 36.8027 24.1468 35.984 24.4334 35.419C25.1047 34.0764 25.1129 32.7582 24.4743 31.4319C23.8112 30.0728 22.4848 29.1886 20.9293 29.0658C20.1106 29.0085 19.4638 29.1395 18.6696 29.5325C17.8755 29.9173 17.0895 30.6951 16.7293 31.4401C16.4919 31.9313 16.2626 32.8155 16.2626 33.274V33.536L15.8369 33.4951C11.5223 33.0366 7.6006 30.3594 5.77487 26.6261C5.02984 25.0869 4.72692 24.0307 4.5468 22.2459C4.38306 20.543 4.65323 18.5699 5.30002 16.8261L5.47195 16.3594L5.82399 16.4003C6.5854 16.5068 7.54329 15.991 7.93627 15.2541C8.10002 14.943 8.11639 14.7875 8.14095 13.2892C8.15733 12.2576 8.13277 11.5208 8.07546 11.2916C7.94446 10.7758 7.55967 10.2518 7.10937 9.9898L6.72458 9.76056L4.88247 9.736C3.2123 9.71963 3.00762 9.72781 2.69651 9.87518ZM21.2404 30.3512C21.8299 30.4904 22.3457 30.7769 22.7714 31.2109C23.9995 32.4307 23.9995 34.3302 22.7714 35.55C22.5503 35.7793 22.1492 36.0658 21.8954 36.1804C21.6416 36.3033 21.3878 36.4752 21.3468 36.5652C21.2076 36.8109 21.2322 37.8179 21.3796 38.0226C21.4451 38.1126 21.6579 38.2354 21.8626 38.2845C22.6977 38.4892 22.6977 39.3243 21.8626 39.529C21.4696 39.6272 21.2568 39.8483 21.2568 40.1594C21.2568 40.4214 20.9047 40.7489 20.6264 40.7489C20.2661 40.7489 20.0369 40.536 19.9796 40.1676C19.9223 39.8073 19.6357 39.5208 19.3328 39.5208C19.0217 39.5208 18.7679 39.2506 18.7679 38.9231C18.7679 38.5547 18.8989 38.3992 19.3246 38.2845C19.8813 38.1372 19.9468 38.0307 19.9468 37.2693C19.9468 36.5079 19.9305 36.4834 19.2264 36.1313C18.6205 35.8284 18.0965 35.2799 17.7936 34.6249C17.5726 34.1419 17.5398 33.9863 17.5398 33.3804C17.5398 32.7746 17.5726 32.619 17.7936 32.136C18.424 30.7851 19.8731 30.0401 21.2404 30.3512Z" fill="#151515"/>
<path d="M19.987 31.6777C19.1028 31.9888 18.587 33.0531 18.8899 33.9619C19.0536 34.4285 19.3729 34.7806 19.8478 34.9935C20.6911 35.3864 21.6244 35.1245 22.132 34.3467C22.3367 34.0519 22.3612 33.9291 22.3612 33.3724C22.3612 32.7993 22.3367 32.7011 22.1156 32.3818C21.6653 31.735 20.7238 31.4239 19.987 31.6777ZM20.9694 33.0122C21.084 33.1186 21.1741 33.2823 21.1741 33.3806C21.1741 33.6016 20.8221 33.9537 20.601 33.9537C20.3799 33.9537 20.0279 33.6016 20.0279 33.3806C20.0279 33.1595 20.3799 32.8075 20.601 32.8075C20.6992 32.8075 20.863 32.8976 20.9694 33.0122Z" fill="#151515"/>
</g>
<defs>
<clipPath id="clip0_804_2266">
<rect width="33.2398" height="42" fill="white" transform="translate(0.248047)"/>
</clipPath>
</defs>
</svg>
