<svg width="35" height="35" fill="none" xmlns="http://www.w3.org/2000/svg"><path d="M13.125 14.219h-2.171c1.015-2.942 1.883-4.35 4.769-5.553a1.094 1.094 0 0 0-.421-2.104H15.3c-6.021.011-9.48 2.425-11.932 8.325a15.063 15.063 0 0 0-1.18 5.894c0 3.164.957 4.887 2.416 7.155.2.312.548.502.92.502h7.601a3.285 3.285 0 0 0 3.281-3.282V17.5a3.285 3.285 0 0 0-3.281-3.281Zm16.406 0H27.36c1.015-2.942 1.883-4.35 4.769-5.553a1.094 1.094 0 0 0-.421-2.104h-.002c-6.021.011-9.48 2.425-11.932 8.325a15.063 15.063 0 0 0-1.18 5.894c0 3.164.957 4.887 2.416 7.155.2.312.548.502.92.502h7.601a3.285 3.285 0 0 0 3.282-3.282V17.5a3.285 3.285 0 0 0-3.282-3.281Z" fill="#2C53A5"/></svg>