<svg width="42" height="42" fill="none" xmlns="http://www.w3.org/2000/svg"><g clip-path="url(#a)" fill="#000"><path d="M19.4 11.12c-.07.385-.387.652-.708.596-.321-.055-.525-.412-.456-.797.07-.384.386-.651.708-.596.32.056.525.412.456.797Zm.881-1.456a.359.359 0 0 1-.293-.152 1.358 1.358 0 0 0-1.87-.348c-.456.224-.741-.248-.396-.599a2.073 2.073 0 0 1 2.852.532c.159.225-.025.567-.293.567Zm7.664 5.692a.446.446 0 0 1-.232-.065l-2.31-1.4a.449.449 0 1 1 .465-.767l2.31 1.4c.32.449.243.727-.233.832Zm-1.485-3.021a.448.448 0 0 1-.024-.897l2.03-.109c.614.267.63.566.048.896l-2.03.109h-.024Zm-.725 5.142a.448.448 0 0 1-.403-.253l-.925-1.898a.449.449 0 0 1 .806-.393l.925 1.898c.047.416-.088.63-.403.646ZM36.159 13.785a.573.573 0 1 0-.001-1.146.573.573 0 0 0 0 1.146ZM35.855 27.483a.573.573 0 1 0 0-1.147.573.573 0 0 0 0 1.147ZM6.285 5.992a.583.583 0 1 0 0-1.167.583.583 0 0 0 0 1.167ZM26.094 28.245a.583.583 0 1 0 0-1.167.583.583 0 0 0 0 1.167ZM21.764 35.055a.583.583 0 1 0 0-1.167.583.583 0 0 0 0 1.167Z"/><path d="M30.264 18.1a.453.453 0 0 0-.755.215c-.261 1.193-.823 2.242-1.883 2.912l-.792-.736a.457.457 0 0 0-.676.076l-1.76 2.579-2.65 2.193a9.192 9.192 0 0 0-4.826-5.409l.427-.91.78.137c1.704.3 3.365-.976 3.503-2.701.765.027 1.23-.917.722-1.507l-.525-.608.785-.233c.6-.178.684-.876.39-1.346l.756-.283c.67-.251.957-1.094.57-1.701l-1.184-1.856.003-.02c.091-.5.131-1.01.12-1.52l.316.056a.453.453 0 0 0 .523-.498C23.686 3.6 21.046.864 17.74.284L16.808.12C12.57-.624 8.934 2.164 7.85 6.151c-.347 1.655-.595 3.335-.89 5a5.918 5.918 0 0 0 .599 3.816l-.277 6.51c-.055 1.28-1.272 2.256-2.534 2.033a2.152 2.152 0 0 1-1.78-2.293l.907-11.74a3.598 3.598 0 0 1 1.176-2.381.453.453 0 0 0 .152-.29.446.446 0 0 0-.747-.373A4.486 4.486 0 0 0 2.98 9.408l-.907 11.74a3.076 3.076 0 0 0 2.612 3.26 9.111 9.111 0 0 0-.774 2.82l-.973 9.064C2.614 39.306 5.07 42 8.092 42h11.304a2.813 2.813 0 0 0 2.816-2.804v-2.85a.449.449 0 0 0-.897 0v2.85c0 1.051-.861 1.907-1.92 1.907H8.093c-2.493 0-4.53-2.223-4.262-4.715l.974-9.064a8.2 8.2 0 0 1 .891-2.938 3.087 3.087 0 0 0 2.482-2.853 8.26 8.26 0 0 1 2.15-1.114 3.217 3.217 0 0 0 1.845 3.02c1.385.642 3.093.028 3.741-1.356l.628-1.34a8.284 8.284 0 0 1 4.46 5.215l-5.072 4.198-2.65-3.351c-1.24-1.57-3.637-1.73-5.076-.34-1.389 1.342-1.38 3.638.022 4.97l5.16 4.897c1.215 1.154 3.175 1.142 4.376-.027 0 0 6.263-6.09 7.17-6.969a.55.55 0 0 0 .152-.361.452.452 0 0 0-.767-.302l-7.18 6.989a2.254 2.254 0 0 1-3.134.02l-5.159-4.899c-1.034-.982-1.042-2.682-.016-3.673 1.063-1.027 2.834-.907 3.749.251l2.933 3.712c.194.2.407.223.639.067l8.564-7.09 2.56 2.443a.448.448 0 0 0 .629-.008l2.363-2.379a4.256 4.256 0 0 0 0-6.006Zm-22.42-6.793.842-4.756C9.34 2.867 12.977.36 16.653 1.004l.932.164c2.786.49 4.94 2.574 5.528 5.276L16.91 5.355c-1.87-.328-3.414 1.63-2.613 3.37a1.503 1.503 0 0 1-.32 1.7c-.7-.967-2.072-1.24-3.064-.548-1.331.927-1.054 2.55-.079 3.593l-.545 3.081a5.03 5.03 0 0 1-2.445-5.244Zm2.695 8.104a9.148 9.148 0 0 0-2.314 1.009l.18-4.248a6.07 6.07 0 0 0 2.827 1.741c-.233.496-.495.987-.693 1.498Zm4.561 2.291a1.926 1.926 0 0 1-2.55.923c-1.128-.523-1.642-1.908-1.113-3.036l.697-1.486 4.3.756-1.334 2.843Zm-3.132-4.54a5.152 5.152 0 0 1-.837-.22l.625-3.527a.449.449 0 0 0-.104-.374l-.46-.527a1.302 1.302 0 0 1 .233-1.9 1.308 1.308 0 0 1 1.803.307l.307.428c.196.218.415.245.657.078.93-.76 1.46-1.904.92-3.078-.5-1.088.48-2.314 1.643-2.11l5.61.985a7.061 7.061 0 0 1-.134 1.71.448.448 0 0 0 .063.322l1.279 2.005a.259.259 0 0 1-.128.378l-1.214.455c-.263.132-.345.337-.248.614l.274.57-1.348.401a.453.453 0 0 0-.212.723l.977 1.134c.002.001.004.004.003.01l-.001.006a.013.013 0 0 1-.004.004.016.016 0 0 1-.01.003.395.395 0 0 0-.022-.002l-.423-.035c-.313.013-.474.176-.483.49.128 1.352-1.112 2.496-2.45 2.261l-6.316-1.11Zm17.66 6.31-2.06 2.064-2.25-2.147 1.287-1.885.653.606a.449.449 0 0 0 .515.068 4.97 4.97 0 0 0 2.375-2.771 3.36 3.36 0 0 1-.52 4.065Zm9.86-10.593h-.674a2.522 2.522 0 0 0-.413-.997l.477-.478a.45.45 0 0 0-.635-.634l-.476.478a2.513 2.513 0 0 0-.994-.414v-.675a.449.449 0 0 0-.898 0v.675a2.513 2.513 0 0 0-.994.414l-.476-.478a.449.449 0 0 0-.636.634l.478.478a2.52 2.52 0 0 0-.413.997h-.673a.449.449 0 0 0 0 .898h.673c.064.358.205.698.413.996l-.477.478c-.41.41.225 1.045.635.634l.476-.477c.298.208.637.349.994.413v.675a.449.449 0 0 0 .898 0v-.675c.357-.064.696-.205.994-.413l.476.477c.41.41 1.045-.223.635-.634l-.477-.478a2.52 2.52 0 0 0 .413-.996h.673a.449.449 0 0 0 0-.898Zm-3.164 2.085a1.637 1.637 0 0 1 0-3.273 1.637 1.637 0 0 1 0 3.273Zm2.965 11.613h-.673a2.521 2.521 0 0 0-.413-.997l.478-.478a.45.45 0 0 0-.636-.634l-.476.477a2.514 2.514 0 0 0-.994-.413v-.675a.449.449 0 0 0-.897 0v.675a2.516 2.516 0 0 0-.994.413l-.477-.477a.449.449 0 0 0-.635.634l.477.478a2.521 2.521 0 0 0-.413.997h-.673a.449.449 0 0 0 0 .897h.673c.064.358.205.698.413.997l-.477.478c-.41.41.225 1.045.635.634l.476-.477c.298.207.637.348.995.413v.675a.449.449 0 0 0 .897 0v-.675c.357-.065.696-.206.994-.413l.476.477c.41.41 1.045-.224.636-.634l-.478-.478c.208-.299.35-.639.413-.997h.673a.448.448 0 1 0 0-.897Zm-3.163 2.085a1.637 1.637 0 0 1 0-3.273 1.637 1.637 0 0 1 0 3.273Z"/></g><defs><clipPath id="a"><path fill="#fff" d="M0 0h42v42H0z"/></clipPath></defs></svg>