<svg width="43" height="42" viewBox="0 0 43 42" fill="none" xmlns="http://www.w3.org/2000/svg">
<g clip-path="url(#clip0_804_2307)">
<path d="M8.16932 0.154028C8.10382 0.219525 8.0547 0.481513 8.0547 0.727127C8.0547 1.10373 7.97283 1.20198 7.5471 1.28385C7.13774 1.3821 6.99037 1.33297 6.79388 1.03824C6.28628 0.317771 5.10733 0.956366 5.56581 1.70958C5.7623 2.00432 5.74593 2.10257 5.43482 2.43005C5.14008 2.75754 5.02546 2.77391 4.6161 2.62654C4.25587 2.49555 4.09213 2.49555 3.89563 2.65929C3.5354 2.9704 3.56815 3.59262 3.97751 3.88736C4.25587 4.06748 4.30499 4.21485 4.20675 4.6242C4.12487 5.03356 4.01025 5.11543 3.58452 5.16455C3.10967 5.21368 3.06055 5.2628 3.06055 5.78678C3.06055 6.31075 3.10967 6.35988 3.58452 6.409C4.01025 6.45812 4.12487 6.53999 4.22312 6.9821C4.30499 7.39145 4.27224 7.53882 3.97751 7.71894C3.56815 7.9973 3.51903 8.60314 3.89563 8.91425C4.09213 9.078 4.25587 9.078 4.6161 8.947C5.02546 8.79963 5.14008 8.81601 5.43482 9.14349C5.72955 9.4546 5.74593 9.56922 5.58218 9.92946C5.43482 10.2733 5.43482 10.4207 5.59856 10.6172C5.8933 10.961 6.51552 10.9283 6.79388 10.5353C6.974 10.2733 7.13774 10.2242 7.53072 10.3061C7.97283 10.3879 8.0547 10.4862 8.0547 10.8792C8.0547 11.1739 8.16932 11.4031 8.38218 11.5178C8.87341 11.7797 9.36461 11.4523 9.36461 10.8792C9.36461 10.4862 9.44648 10.3879 9.90496 10.3061C10.3307 10.2242 10.4781 10.2569 10.6582 10.5353C10.9365 10.9447 11.788 10.9774 11.9354 10.6008C11.9845 10.4371 11.9681 10.1259 11.8699 9.86396C11.7225 9.48735 11.7553 9.35636 12.05 9.078C12.2956 8.84876 12.4757 8.79963 12.6395 8.89788C13.5564 9.48735 14.326 8.3084 13.4418 7.68619C13.1962 7.52245 13.1471 7.35871 13.2289 6.96572C13.3108 6.55637 13.4254 6.45812 13.8348 6.409C14.85 6.31075 14.85 5.2628 13.8348 5.16455C13.4254 5.11543 13.3108 5.01718 13.2289 4.64058C13.1634 4.26397 13.2289 4.06748 13.54 3.75637C14.0149 3.28151 14.0476 3.11777 13.6874 2.77391C13.3927 2.4628 12.9506 2.43005 12.6722 2.70841C12.5248 2.85578 12.3938 2.80666 12.0827 2.51192C11.7389 2.21719 11.7061 2.08619 11.8371 1.8242C11.9354 1.64409 11.9681 1.3166 11.919 1.10373C11.788 0.596133 10.9857 0.54701 10.6582 1.03824C10.4781 1.3166 10.3143 1.34935 9.90496 1.26748C9.46285 1.18561 9.38098 1.08736 9.33186 0.645256C9.28274 0.219525 9.21724 0.137654 8.79154 0.0885309C8.51318 0.0557826 8.23482 0.0885309 8.16932 0.154028ZM10.1669 2.93765C12.3611 4.03473 12.6231 6.9821 10.6418 8.40665C8.23482 10.1587 4.82897 7.84993 5.59856 4.98444C5.94242 3.67449 7.39973 2.5283 8.72604 2.51192C9.03715 2.51192 9.69209 2.70841 10.1669 2.93765Z" fill="#151515"/>
<path d="M7.95799 4.21485C7.90887 4.34584 7.89249 4.62421 7.92524 4.83707C7.95799 5.13181 8.07261 5.21368 8.44922 5.21368C9.03869 5.21368 9.36618 4.77158 9.10419 4.34584C8.87495 3.98561 8.08898 3.88736 7.95799 4.21485Z" fill="#151515"/>
<path d="M9.39792 5.65579C8.95583 6.09789 9.29968 6.76924 9.95465 6.76924C10.495 6.76924 10.757 6.35988 10.5441 5.86865C10.3313 5.42655 9.74178 5.31193 9.39792 5.65579Z" fill="#151515"/>
<path d="M6.97557 6.50713C6.92644 6.63813 6.91007 6.91649 6.94282 7.12936C6.97557 7.42409 7.10656 7.52234 7.51592 7.55509C7.9744 7.60421 8.05627 7.53871 8.15452 7.17848C8.22001 6.93286 8.17089 6.67088 8.05627 6.52351C7.79428 6.2124 7.09019 6.2124 6.97557 6.50713Z" fill="#151515"/>
<path d="M27.7528 4.49307C26.9995 4.70594 26.7212 5.19716 26.7212 6.32699C26.7212 7.16208 26.7867 7.34219 27.196 7.75155L27.6545 8.2264L27.327 8.55388C26.9995 8.88137 26.9995 8.88137 26.3773 8.55388C25.5422 8.12816 23.8884 7.75155 22.8568 7.75155C20.5317 7.75155 18.4685 8.63575 16.8639 10.3387C15.9142 11.3539 15.3247 12.3855 14.8826 13.8264C14.8335 13.9738 14.4405 14.2685 13.9984 14.4814C12.9668 14.9726 11.1656 16.7738 10.6089 17.8545C9.69193 19.672 9.44632 21.817 9.93755 23.7165C10.1668 24.5679 10.5106 25.1083 10.8381 25.1083C10.8873 25.1083 11.0837 25.01 11.2475 24.879C11.5422 24.6662 11.5422 24.617 11.2802 23.2089C11.051 22.0299 11.0346 21.5551 11.1656 20.7036C11.5422 18.4603 12.9832 16.5445 15.0463 15.5621C16.0779 15.0872 16.2908 15.0381 17.7972 15.0381C19.3855 15.0381 19.5001 15.0708 20.6954 15.6603C22.1528 16.3644 23.2662 17.4942 23.9048 18.8697C24.2323 19.5901 24.265 19.7703 24.0849 19.8849C23.5937 20.196 23.2662 20.0322 22.9551 19.3118C22.382 17.9691 20.9083 16.6755 19.4837 16.2498C19.189 16.1679 18.4194 16.086 17.7808 16.086C15.5212 16.086 13.7528 17.1667 12.7703 19.1808C12.2954 20.1469 12.2299 20.4252 12.2299 21.6697C12.2299 23.2907 12.6557 24.4205 13.7036 25.5667C15.2264 27.2697 18.2721 27.7936 20.368 26.7293C21.2194 26.2872 22.3329 25.272 22.7259 24.5352C22.9715 24.0603 23.1188 23.9621 23.5609 23.9621C23.8557 23.9621 24.1013 24.0112 24.1013 24.0767C24.1013 24.1586 23.8884 24.5843 23.6264 25.0264C22.775 26.5165 21.1375 27.7445 19.3528 28.2194C18.9434 28.334 18.5668 28.4977 18.5013 28.6124C18.4358 28.7106 18.3703 29.4802 18.3703 30.3153C18.3703 31.789 18.3867 31.8381 18.796 31.9855C19.0253 32.0837 19.7294 32.1492 20.3516 32.1492H21.4814V32.6404V33.1317H20.1223C19.2873 33.1317 18.6814 33.2135 18.5668 33.3281C18.4522 33.4428 18.3703 34.0486 18.3703 34.8837V36.2428H17.7972H17.2241V34.8673C17.2241 33.9504 17.1586 33.4428 17.0112 33.3281C16.8966 33.2299 16.2089 33.1317 15.5048 33.0989C14.2112 33.0498 14.1949 33.0498 14.1457 32.5913L14.0966 32.1492H15.3738C17.2077 32.1492 17.2405 32.1001 17.1913 30.1024L17.1422 28.4814L16.2416 28.2194C15.0463 27.8591 14.3422 27.4825 13.4253 26.7293C12.5411 25.9761 12.0498 25.9106 11.7878 26.5001C11.6241 26.8603 11.6568 26.9749 12.0826 27.4334C12.7703 28.1539 14.2931 29.12 15.1609 29.3656C15.865 29.5621 15.9142 29.6112 15.9142 30.1188V30.6755H14.8335C13.8674 30.6755 13.72 30.7246 13.2779 31.1504C12.8522 31.5761 12.803 31.7398 12.803 32.6241C12.803 33.4264 12.8685 33.6884 13.196 34.065C13.5399 34.458 13.72 34.5235 14.7516 34.5726L15.9142 34.6381V35.6533C15.9142 36.2919 16.0124 36.7995 16.1598 37.0124C16.7165 37.7983 18.5504 37.8966 19.3036 37.1925C19.6311 36.8977 19.6802 36.6685 19.6802 35.7352V34.6381L20.8428 34.5726C21.8744 34.5235 22.0545 34.458 22.3984 34.065C22.7259 33.6884 22.7913 33.4264 22.7913 32.5586C22.7913 31.6089 22.7586 31.4942 22.2837 31.1013C21.858 30.741 21.6288 30.6755 20.7282 30.6755H19.6802V30.1024C19.6802 29.7094 19.7621 29.5293 19.9259 29.5293C20.3843 29.5293 22.0381 28.6942 22.906 28.0393C23.9212 27.2533 25.1165 25.534 25.5095 24.3223C25.7223 23.6346 25.8861 23.4217 26.2954 23.2416C27.5399 22.7176 29.3411 20.9983 29.996 19.7048C31.1095 17.527 31.1586 14.5796 30.127 12.3691C29.7995 11.6977 29.7995 11.665 30.0779 11.3375C30.3726 11.0264 30.389 11.0264 30.8475 11.4685C31.2732 11.8779 31.4533 11.927 32.403 11.927C33.3691 11.927 33.5001 11.8779 33.8604 11.4685C34.237 11.0264 34.2533 10.9282 34.2533 8.19365C34.2533 4.9843 34.1878 4.77143 33.0744 4.46032C32.1083 4.21471 31.3387 4.39483 31.2077 4.90243C31.0604 5.45915 31.3878 5.75389 32.1738 5.81939L32.8615 5.86851V8.16091V10.4533L32.3375 10.5024L31.7972 10.5515V9.71645C31.7972 8.99599 31.7481 8.86499 31.3878 8.70125C30.9949 8.52113 30.8802 8.58663 29.5867 9.8802C28.8171 10.6498 28.1949 11.403 28.1949 11.5667C28.1949 11.7305 28.375 12.1726 28.5878 12.5492C29.7177 14.4977 29.7832 16.7901 28.768 18.8205C27.7855 20.8346 25.9843 22.1445 23.6919 22.5211C21.072 22.9632 18.1247 21.4404 16.8311 18.9843C16.3563 18.0837 16.2908 17.5761 16.6346 17.5761C16.7656 17.5761 16.9621 17.5434 17.0931 17.4942C17.2241 17.4451 17.437 17.7235 17.699 18.3129C18.1411 19.3609 19.3364 20.5398 20.4662 21.0638C21.0884 21.3586 21.5305 21.4241 22.7913 21.4241C24.1668 21.4241 24.4615 21.3749 25.2802 20.9656C26.4592 20.3925 27.5726 19.1644 28.0311 17.9363C28.5223 16.6591 28.4405 14.596 27.8674 13.4007C27.3434 12.32 26.2463 11.2556 25.1165 10.7317C24.3305 10.3714 23.9539 10.2896 22.7913 10.2896C21.6288 10.2896 21.2522 10.3714 20.4826 10.7317C19.4019 11.2229 18.3867 12.0907 17.9609 12.8931C17.6662 13.4334 17.3223 13.6463 16.6837 13.6463C16.2089 13.6463 17.2732 11.8124 18.2393 10.9445C20.4335 8.97961 23.1516 8.63575 25.8697 9.96207C26.5574 10.3059 27.1797 10.5188 27.3598 10.4533C27.5235 10.4042 28.1785 9.8147 28.8335 9.14336C29.8159 8.14453 30.0124 7.8498 29.9633 7.47319C29.9142 7.04746 29.8487 7.01471 29.0136 6.93284C28.1457 6.85097 28.113 6.83459 28.113 6.35974C28.113 5.91763 28.1785 5.86851 28.6861 5.81939C29.4066 5.75389 29.6685 5.52465 29.6685 5.03342C29.6685 4.39483 28.8498 4.18196 27.7528 4.49307ZM24.134 11.8779C24.4943 11.9761 25.1492 12.3855 25.575 12.7784C27.0814 14.1375 27.4253 16.1188 26.4592 17.9036C25.7715 19.1808 25.6732 19.1972 25.1656 18.1983C24.5598 16.9866 23.7083 15.9059 22.8077 15.2346C21.858 14.5141 21.5142 14.3504 20.2206 13.9083L19.1563 13.548L19.844 12.8767C20.9083 11.796 22.5785 11.403 24.134 11.8779ZM20.2861 18.2474C20.8756 18.6568 21.6452 19.6065 21.6452 19.934C21.6452 20.0977 20.4335 19.4428 19.9095 18.9843C19.6475 18.7714 19.3036 18.3621 19.1235 18.0673L18.8288 17.5434L19.2054 17.658C19.4183 17.7235 19.9095 18.0018 20.2861 18.2474ZM17.0767 21.686C18.0428 22.6521 19.6639 23.5691 20.6954 23.7328C21.0393 23.7983 21.3177 23.8802 21.3177 23.9129C21.3177 24.2077 20.5481 24.9609 19.844 25.3375C18.6159 26.0089 17.3551 26.0907 16.2253 25.5667C14.5387 24.7972 13.6218 23.4217 13.6218 21.7024C13.6218 20.5398 13.851 19.8685 14.5223 19.0825L14.9808 18.5258L15.5703 19.6556C15.8978 20.2615 16.5691 21.1784 17.0767 21.686Z" fill="#151515"/>
<path d="M37.9707 10.4697C37.9052 10.5352 37.8561 10.7972 37.8561 11.0428C37.8561 11.403 37.7578 11.534 37.2994 11.6814C36.8245 11.8288 36.6608 11.8124 36.3169 11.5995C36.0877 11.4358 35.7766 11.3703 35.5801 11.4358C35.1216 11.5832 34.9906 12.1071 35.3181 12.5984C35.5309 12.9422 35.5473 13.106 35.3999 13.5644C35.2526 14.0229 35.1216 14.1212 34.6959 14.1703C34.221 14.2194 34.1719 14.2685 34.1719 14.7925C34.1719 15.3165 34.221 15.3656 34.6959 15.4147C35.1216 15.4639 35.2526 15.5621 35.3999 16.0206C35.5473 16.4791 35.5309 16.6428 35.3181 16.9867C34.7777 17.8054 35.4982 18.5258 36.3169 17.9855C36.6608 17.7726 36.8245 17.7563 37.283 17.9036C37.7415 18.051 37.8397 18.182 37.8888 18.6077C37.938 19.0826 37.9871 19.1317 38.5111 19.1317C39.035 19.1317 39.0842 19.0826 39.1333 18.6077C39.1824 18.182 39.2806 18.051 39.7391 17.9036C40.1976 17.7563 40.3614 17.7726 40.7052 17.9855C41.5239 18.5258 42.2444 17.8054 41.704 16.9867C41.4912 16.6428 41.4748 16.4791 41.6222 16.0206C41.7695 15.5621 41.9005 15.4639 42.3263 15.4147C42.8011 15.3656 42.8502 15.3165 42.8502 14.7925C42.8502 14.2685 42.8011 14.2194 42.3263 14.1703C41.9005 14.1212 41.7695 14.0229 41.6222 13.5644C41.4748 13.106 41.4912 12.9422 41.704 12.5984C42.2444 11.7796 41.5239 11.0592 40.7052 11.5995C40.3614 11.8124 40.1976 11.8288 39.7391 11.6814C39.2806 11.534 39.1824 11.403 39.1333 10.9773C39.0842 10.5352 39.0187 10.4533 38.5929 10.4042C38.3146 10.3715 38.0362 10.4042 37.9707 10.4697ZM39.3461 13.0732C39.9192 13.3843 40.476 14.2194 40.476 14.7925C40.476 15.7095 39.4116 16.7574 38.4783 16.7574C37.6105 16.7574 36.5461 15.6767 36.5461 14.7925C36.5461 13.9083 37.6105 12.8276 38.4783 12.8276C38.6912 12.8276 39.0678 12.9422 39.3461 13.0732Z" fill="#151515"/>
<path d="M32.8468 22.3903C31.7989 22.8488 31.1275 24.2569 31.4223 25.3868C31.5205 25.7306 31.6351 26.1236 31.7006 26.2546C31.7661 26.4347 31.5696 26.6312 31.0457 26.9096L30.2924 27.3189L29.6047 26.6476C28.5568 25.5833 27.1158 25.4686 26.0679 26.3692C25.3802 26.9423 25.0854 27.5646 25.0854 28.4651C25.0854 29.8242 25.8223 30.7248 27.1813 31.0359L28.0328 31.2488V32.1821V33.1318H27.3942C25.6749 33.1318 24.5451 35.2768 25.3474 36.9961C26.1497 38.6663 28.8351 38.8464 29.8831 37.3072L30.2433 36.7833L30.8164 37.1599C31.1275 37.3727 31.4714 37.5529 31.586 37.5529C31.8644 37.5529 31.848 37.7166 31.5369 38.4698C31.0129 39.6979 31.6843 41.2862 32.9451 41.8102C33.6164 42.0885 35.0737 41.9412 35.6141 41.5482C36.1708 41.1552 36.7112 40.0745 36.7112 39.3868C36.7112 39.092 36.6129 38.6008 36.4819 38.3061L36.2527 37.7493L37.0386 37.2581L37.841 36.7669L38.1521 37.2909C39.0199 38.7482 41.5416 38.7154 42.5731 37.2254C43.048 36.5049 43.0807 35.0803 42.6059 34.3107C42.1802 33.623 41.3614 33.1318 40.6082 33.1318H39.986V32.1657V31.1996L40.7228 31.1014C42.0492 30.8885 42.9334 29.8242 42.9334 28.4324C42.9334 27.3681 42.4913 26.5985 41.6234 26.14C40.3954 25.485 39.1018 25.7306 38.2667 26.7786L37.8246 27.3517L37.0223 26.926C36.4492 26.6148 36.2527 26.4347 36.3182 26.2546C37.0223 24.6008 36.5965 23.1107 35.2211 22.4067C34.648 22.1119 33.5182 22.0955 32.8468 22.3903ZM34.5661 23.7166C35.3685 24.126 35.4995 25.1412 34.8281 25.7634C34.5006 26.0745 34.4188 26.2874 34.4515 26.7295C34.5006 27.3353 34.5497 27.3681 35.9088 27.9412C36.2363 28.0885 36.7603 28.416 37.0878 28.6944C37.9883 29.4967 38.8071 29.2838 39.0854 28.1704C39.331 27.2043 40.6737 26.8932 41.2796 27.6628C41.7381 28.2523 41.7053 28.809 41.1977 29.3166C40.8211 29.6932 40.7065 29.726 39.9205 29.6277C39.2164 29.5295 38.9872 29.5622 38.6761 29.8242C38.3158 30.1189 38.2995 30.1681 38.4796 31.1014C38.6269 31.8219 38.6269 32.2803 38.4796 33.0336C38.2995 33.9669 38.3158 34.016 38.6924 34.3271C39.0036 34.5727 39.2328 34.6219 39.7731 34.54C40.6082 34.4254 41.1977 34.6546 41.4433 35.2113C41.7217 35.8172 41.6726 36.0628 41.1322 36.6031C40.7228 36.9961 40.5427 37.078 40.1825 36.9798C39.5767 36.8324 39.2 36.4722 39.0854 35.8991C38.9708 35.3587 38.4468 34.933 37.9392 34.933C37.7427 34.933 37.3825 35.1458 37.1369 35.3915C36.8913 35.6534 36.3182 36.03 35.8433 36.2429C35.3685 36.4394 34.8772 36.6686 34.7462 36.7341C34.3205 36.947 34.3533 37.8312 34.8117 38.3879C35.3848 39.0757 35.3848 39.8616 34.8117 40.3201C34.2386 40.7786 33.6819 40.7458 33.1907 40.2546C32.6503 39.7306 32.6503 39.0102 33.1907 38.5189C33.469 38.2406 33.6 37.9458 33.6 37.5365C33.6 36.8488 33.4854 36.7341 32.4375 36.3412C32.0281 36.1938 31.3895 35.8172 31.0129 35.5061C30.6527 35.195 30.2106 34.933 30.0468 34.933C29.5883 34.933 29.0152 35.3915 29.0152 35.7681C29.0152 36.1938 28.1474 37.0616 27.7217 37.0616C27.2796 37.0616 26.5919 36.423 26.4609 35.8827C26.379 35.5224 26.4609 35.326 26.8538 34.933C27.3287 34.4745 27.4106 34.4417 28.2293 34.54C29.4901 34.6874 29.5556 34.5564 29.5883 32.0347C29.5883 30.0862 29.572 29.9716 29.2281 29.7423C28.9661 29.5786 28.6714 29.5295 28.2129 29.6113C27.3451 29.7587 26.9357 29.6113 26.641 29.0219C26.1661 28.1213 26.7392 27.2371 27.8036 27.2371C28.3767 27.2371 29.0152 27.8429 29.0152 28.3996C29.0152 28.7271 29.6047 29.202 30.0305 29.202C30.1778 29.202 30.6854 28.9236 31.1275 28.5961C31.586 28.2523 32.3065 27.8593 32.7322 27.7119C33.469 27.4827 33.5182 27.4172 33.5673 26.8441C33.6 26.3856 33.5182 26.1236 33.2071 25.747C32.5521 24.9774 32.6831 24.1423 33.5182 23.6675C33.9439 23.4219 34.0258 23.4219 34.5661 23.7166Z" fill="#151515"/>
<path d="M32.8614 28.9562C31.486 29.4475 30.4872 31.1013 30.7164 32.5422C30.9948 34.196 32.1246 35.244 33.7948 35.375C34.6626 35.4404 34.941 35.3913 35.5632 35.0638C36.5784 34.5071 37.2006 33.5902 37.3152 32.4603C37.4135 31.396 37.2006 30.8393 36.6603 30.8393C36.0872 30.8393 35.8907 31.1504 35.8907 32.0019C35.8907 32.5913 35.7924 32.9024 35.465 33.279C33.9913 35.0475 31.3059 33.2135 32.3702 31.1668C32.6977 30.5445 33.4018 30.1843 34.3188 30.1843C34.8755 30.1843 35.1047 30.1024 35.2357 29.8732C35.7269 28.9399 34.3843 28.4159 32.8614 28.9562Z" fill="#151515"/>
<path d="M4.97783 28.0883C4.86321 28.203 4.78134 28.4813 4.78134 28.7106C4.78134 29.0708 4.66672 29.1854 4.17549 29.3328C3.68426 29.4802 3.52052 29.4801 3.30765 29.2837C2.88192 28.9071 2.34157 28.9889 2.1287 29.4474C1.96496 29.8076 1.98134 29.9223 2.27607 30.217C2.60356 30.5281 2.60356 30.5936 2.37432 31.0848C2.21058 31.4123 1.94859 31.6579 1.60473 31.7562C1.21175 31.8708 1.08075 32.0018 1.048 32.3784C0.982506 32.886 1.21175 33.1316 1.7521 33.1316C1.98134 33.1316 2.17783 33.3117 2.34157 33.672C2.57081 34.1796 2.57081 34.2451 2.2597 34.6708C1.99771 35.0147 1.96496 35.1784 2.09596 35.3913C2.34157 35.7679 2.94742 35.8334 3.29128 35.5223C3.55327 35.2766 3.63514 35.2766 4.17549 35.5059C4.68309 35.7187 4.78134 35.8334 4.78134 36.2427C4.78134 36.6193 4.86321 36.7503 5.19069 36.8322C5.69829 36.9632 6.09128 36.6685 6.09128 36.1445C6.09128 35.8497 6.23865 35.686 6.69713 35.5059C7.2211 35.2766 7.31935 35.2766 7.56496 35.5059C7.95794 35.8497 8.49829 35.817 8.72753 35.4076C8.8749 35.1293 8.84215 34.9819 8.59654 34.638C8.3018 34.2614 8.3018 34.1796 8.53104 33.672C8.69479 33.3117 8.89128 33.1316 9.12052 33.1316C9.66086 33.1316 9.8901 32.886 9.8246 32.3784C9.79185 32.0018 9.66086 31.8708 9.2515 31.7562C8.92403 31.6579 8.66204 31.4123 8.4983 31.1012C8.28543 30.6427 8.3018 30.5609 8.58017 30.1679C8.84216 29.8076 8.8749 29.6603 8.72753 29.3819C8.49829 28.9725 7.95794 28.9398 7.54859 29.3C7.30297 29.5293 7.17198 29.5293 6.68075 29.3492C6.2059 29.1854 6.09128 29.0544 6.09128 28.7106C6.09128 28.2357 5.82929 27.8918 5.43631 27.8918C5.28894 27.8918 5.09245 27.9737 4.97783 28.0883ZM6.54976 30.9211C7.27022 31.5269 7.49946 32.1819 7.25385 32.9679C6.74625 34.6708 4.37198 34.8182 3.68426 33.1807C3.3404 32.3456 3.52052 31.6252 4.22461 31.0193C4.96145 30.3644 5.84566 30.3316 6.54976 30.9211Z" fill="#151515"/>
</g>
<defs>
<clipPath id="clip0_804_2307">
<rect width="42" height="42" fill="white" transform="translate(0.964844)"/>
</clipPath>
</defs>
</svg>
