<svg width="42" height="42" fill="none" xmlns="http://www.w3.org/2000/svg"><path d="m15.176 10.085.589.86a1.042 1.042 0 0 0 .226-1.51l-.815.65Zm-2.51-3.147-.56-.877a1.041 1.041 0 0 0-.254 1.527l.815-.65ZM16.18 4.69l.814-.649a1.042 1.042 0 0 0-1.376-.228l.562.877Zm2.51 3.147-.815.65c.3.377.82.498 1.256.294l-.442-.944Zm2.877-1.348.442.943c.366-.172.6-.54.6-.943h-1.042Zm0-3.197V2.25c-.576 0-1.042.466-1.042 1.042h1.042Zm4.483 0h1.042A1.042 1.042 0 0 0 26.05 2.25v1.042Zm0 3.197h-1.042c0 .38.208.73.542.913l.5-.913ZM9.542 16.864l-.899.527a1.042 1.042 0 0 0 1.476.34l-.577-.867Zm-4.167-2.778-1.023-.194a1.042 1.042 0 0 0 .858 1.223l.165-1.029Zm.933-4.924.294-1a1.042 1.042 0 0 0-1.318.806l1.024.194Zm7.4 5.622.387.967c.442-.176.708-.63.646-1.102l-1.033.135Zm6.413 1.43-.934-.462-.55 1.112 1.191.349.293-1Zm16.16-7.927 1.041.039.039-1.044-1.044-.036-.036 1.041Zm-.182 4.95-.036 1.04 1.039.037.038-1.039-1.04-.038ZM9.921 15.593c-2.088 1.847-2.87 4.37-2.782 6.997.087 2.606 1.027 5.363 2.437 7.857 1.412 2.499 3.333 4.799 5.46 6.485 2.114 1.675 4.527 2.818 6.912 2.818v-2.083c-1.738 0-3.705-.852-5.617-2.367-1.898-1.505-3.65-3.592-4.942-5.879-1.295-2.292-2.095-4.72-2.168-6.9-.073-2.16.562-4.024 2.08-5.368l-1.38-1.56ZM21.948 39.75c2.378 0 4.854-1.137 7.046-2.82 2.208-1.696 4.23-4.022 5.713-6.583 2.913-5.03 3.977-11.5-.732-15.666l-1.38 1.56c3.551 3.143 3.069 8.297.31 13.062-1.354 2.338-3.2 4.454-5.18 5.975-1.998 1.533-4.033 2.389-5.777 2.389v2.083Zm12.027-25.069a6.817 6.817 0 0 0-1.573-1.06c-.491-.249-.946-.447-1.68-.88l-1.058 1.795c.811.478 1.387.736 1.798.944.393.198.7.379 1.132.762l1.38-1.56Zm-13.172.641c-1.552-.508-3.564-1.004-5.503-1.115-1.89-.108-3.964.134-5.379 1.386l1.38 1.56c.777-.686 2.134-.966 3.88-.866 1.697.097 3.523.54 4.974 1.015l.648-1.98ZM15.99 9.436l-2.509-3.147-1.629 1.299 2.51 3.147 1.629-1.3Zm-2.762-1.62 3.513-2.248-1.123-1.755-3.513 2.248 1.123 1.755Zm2.137-2.476 2.51 3.147 1.629-1.3-2.51-3.146-1.629 1.299Zm3.766 3.44 2.878-1.348-.884-1.887-2.878 1.35.884 1.886Zm3.477-2.291V3.292h-2.083v3.197h2.083Zm-1.041-2.156h4.483V2.25h-4.483v2.083Zm3.441-1.041v3.197h2.084V3.292h-2.084Zm1.042 3.197-.5.913h-.002V7.4h-.001l.003.002.025.014a6.343 6.343 0 0 1 .58.401c.383.297.87.739 1.301 1.319l1.671-1.244a9.036 9.036 0 0 0-2.492-2.27 3.669 3.669 0 0 0-.056-.032l-.018-.01a.263.263 0 0 0-.009-.005h-.001s-.001-.001-.501.913Zm-11.86 6.864a4.84 4.84 0 0 1 .992-1.849 4.326 4.326 0 0 1 .564-.545l.024-.018.001-.001-.002.002h-.002v.002s-.001 0 0 0c-.001 0-.002 0-.59-.859l-.59-.859-.003.002a.173.173 0 0 1-.003.002l-.008.006-.023.016a3.551 3.551 0 0 0-.286.229 6.394 6.394 0 0 0-.66.664 6.921 6.921 0 0 0-1.42 2.645l2.007.563Zm-4.648 3.511.898-.528-.002-.003-.002-.004-.007-.01a2.785 2.785 0 0 0-.084-.132 6.112 6.112 0 0 0-.233-.326 7.726 7.726 0 0 0-.898-.984c-.794-.732-2.016-1.554-3.674-1.82l-.33 2.058c1.14.182 2.002.75 2.591 1.293a5.636 5.636 0 0 1 .809.931l.032.05.004.007c0 .001 0 0 0 0a.04.04 0 0 0-.001-.002v-.001c-.001 0-.002-.002.897-.529ZM6.399 14.28l.932-4.925-2.047-.387-.932 4.924 2.047.388Zm-.091-5.118-.295.999h.002l.011.004.05.015.205.066a19.695 19.695 0 0 1 3.061 1.303c.85.454 1.668.991 2.288 1.593.623.605.97 1.202 1.045 1.776l2.066-.269c-.158-1.216-.853-2.218-1.66-3.002-.812-.789-1.815-1.433-2.757-1.936a21.797 21.797 0 0 0-3.629-1.52c-.028-.01-.05-.016-.066-.02l-.018-.006a.194.194 0 0 0-.008-.002l-.295.999Zm7.014 4.654A29.754 29.754 0 0 0 10.15 15.3a21.093 21.093 0 0 0-1.159.68c-.007.005-.013.01-.018.012l-.005.004-.002.001h-.001l.577.868.577.867.01-.006.045-.03.194-.12c.174-.105.436-.26.779-.446.685-.374 1.69-.876 2.948-1.378l-.773-1.935Zm12.938 3.92c.951-1.513 1.959-2.317 3.078-2.835l-.875-1.89c-1.501.694-2.81 1.777-3.967 3.616l1.764 1.109Zm-6.432-.523c1.293.378 2.8.986 3.746 1.389l.816-1.917c-.963-.41-2.562-1.058-3.977-1.472l-.585 2Zm6.206-8.424c-3.048 1.41-5.117 3.46-6.847 6.963l1.867.922c1.544-3.125 3.285-4.805 5.855-5.994l-.875-1.891Zm10.283-1.543c-3.909-.135-7.345.183-10.283 1.543l.875 1.89c2.497-1.155 5.544-1.482 9.337-1.35l.071-2.083Zm.823 6.03.182-4.95-2.082-.077-.182 4.95 2.082.076ZM29.338 14.9c1.351-.626 3.14-.747 6.725-.623l.072-2.082c-3.52-.122-5.803-.05-7.672.814l.875 1.89Zm-4.842 1.726a.136.136 0 0 1-.07.056c-.023.008-.033.003-.036.002l-.816 1.917c1.015.432 2.14.002 2.685-.866l-1.763-1.11Zm-2.647 11.34.43.993 1.912-.828-.43-.993-1.912.828Zm.347.65.291 4.274 2.079-.142-.292-4.274-2.078.142Zm1.159.964 4.433-.515-.24-2.07-4.433.515.24 2.07Zm.866-12.664-2.425 5.248 1.89.874 2.426-5.248-1.89-.874Zm-2.483 5.405-.22.792 2.006.56.22-.793-2.006-.559Zm.574-.67-4.534 2.05.859 1.9 4.534-2.051-.859-1.898Zm-3.866 1.986-4.517-1.064-.478 2.028 4.518 1.064.477-2.028Zm-1.207.63-1.54 3.895 1.937.766 1.54-3.894-1.937-.766Zm6.522 2.871a5.21 5.21 0 0 1-.237-3.466l-2.007-.559a7.291 7.291 0 0 0 .332 4.853l1.912-.828Z" fill="#333"/></svg>