<svg width="43" height="42" viewBox="0 0 43 42" fill="none" xmlns="http://www.w3.org/2000/svg">
<g clip-path="url(#clip0_804_2288)">
<path d="M11.8958 0.226903C11.6993 0.423394 11.6665 0.85731 11.8303 1.08655C11.9613 1.26667 12.4443 1.3731 13.1238 1.38129C14.7776 1.38129 17.2502 2.1345 19.0923 3.19064C20.7379 4.13216 21.1882 4.53333 26.0759 9.39651L30.718 14.0304L29.8829 14.1205C27.6642 14.3661 26.0104 14.8901 22.7765 16.3474C21.9905 16.7076 21.3355 16.986 21.3192 16.9778C21.311 16.9696 21.4256 16.6912 21.5812 16.3556C22.056 15.3322 22.2279 14.5135 22.2279 13.2936C22.2361 11.7544 21.9004 10.6 21.0981 9.34739C20.8525 8.97078 20.7624 8.75791 20.8116 8.66785C20.9671 8.37312 20.9917 7.78363 20.8607 7.26784C20.4923 5.85965 19.2478 4.85263 17.9379 4.91813C17.3975 4.94269 17.3811 4.9345 17.0291 4.60702C16.2104 3.8538 15.0151 3.19064 13.8443 2.84678C13.3776 2.71579 12.9355 2.66667 11.9531 2.63392L10.6595 2.59298V2.17544C10.6595 1.4386 10.4958 0.718131 10.2747 0.497078C10.0946 0.325148 10.0209 0.300587 9.67706 0.341523C8.71918 0.456142 6.90982 1.22573 5.68175 2.05263C4.87941 2.5848 3.43848 4.02573 2.90631 4.81988C1.97298 6.21988 1.35076 7.77544 1.06421 9.44563C0.826781 10.8211 0.884091 13.0889 1.1952 14.4971C1.72737 16.9532 2.93087 19.4176 4.56011 21.3497C4.84666 21.6936 8.18701 25.0749 11.9858 28.8655C18.3309 35.2105 18.9121 35.7673 19.1578 35.7673C19.5589 35.7673 19.8619 35.4316 19.8045 35.055C19.7718 34.8912 19.6981 34.7029 19.6244 34.6211C19.5016 34.4819 19.518 34.4737 19.9273 34.4164C20.1648 34.3836 20.8443 34.2363 21.4256 34.0889C23.6443 33.5158 25.339 32.7953 30.7671 30.1018C33.9028 28.538 35.0162 28.055 36.8174 27.4573C38.1847 26.9988 39.3472 26.7287 40.3543 26.6304L40.9437 26.5813L41.0747 27.0152C41.4841 28.3825 41.6396 30.6503 41.435 32.1322C41.1484 34.2363 40.1905 36.1766 38.7004 37.6912C37.3086 39.1158 35.9578 39.8772 33.9192 40.4094C33.1004 40.6222 32.9449 40.6386 31.332 40.6386C29.8256 40.6386 29.5063 40.6141 28.7531 40.4503C26.0595 39.8445 23.6197 38.5345 21.663 36.6515C21.139 36.1439 20.7624 36.0538 20.4513 36.3649C19.9928 36.8234 20.2303 37.2491 21.5566 38.3462C23.5706 40.0328 26.0923 41.2526 28.6057 41.7603C29.8583 42.0141 32.732 42.0304 33.8291 41.793C38.5613 40.7614 41.8852 37.3146 42.6876 32.6152C42.8268 31.7883 42.8431 31.3953 42.8104 30.1181C42.7531 27.8421 42.3601 26.1883 41.4104 24.1825C40.4852 22.2421 39.4455 20.8585 37.325 18.7544C36.056 17.4854 35.9659 17.4117 35.663 17.4117C35.2782 17.4117 35.0572 17.6491 35.0572 18.0585C35.0572 18.2959 35.139 18.4351 35.5893 18.9018L36.1297 19.4585L35.4502 19.5486C34.304 19.7123 32.9449 20.048 31.6595 20.4737C29.9811 21.0386 27.4513 22.1193 27.2221 22.3895C26.8946 22.7497 27.0092 23.241 27.4431 23.3965C27.7379 23.4948 27.6806 23.5111 28.9987 22.9298C31.987 21.6199 34.4759 20.9076 36.7028 20.7357L37.4069 20.6784L37.9964 21.3661C38.3157 21.7427 38.8233 22.4059 39.1098 22.8398C39.6256 23.593 40.4934 25.1977 40.4279 25.2632C40.4116 25.2795 40.0186 25.3532 39.5519 25.4187C37.8981 25.648 35.8841 26.2702 33.6244 27.2526C33.0841 27.4901 30.9309 28.5217 28.835 29.545C26.739 30.5684 24.6186 31.5755 24.1273 31.7801C22.1624 32.5988 20.2876 33.1146 18.9695 33.1965L18.2326 33.2456L15.4081 30.4047C13.8525 28.841 12.6572 27.5883 12.7472 27.6129C13.1157 27.7193 14.5811 27.9076 15.0642 27.9076C16.3905 27.9076 17.9706 27.6211 19.6572 27.0725C21.3355 26.5322 25.5437 24.6655 25.9531 24.2889C26.2642 23.986 26.1823 23.4784 25.7893 23.2737C25.4864 23.1181 25.4864 23.1181 23.8081 23.9123C20.8525 25.3041 19.035 25.9836 17.2911 26.3603C15.9975 26.6386 14.2045 26.6222 13.0747 26.3275C12.1168 26.0655 10.856 25.4597 10.0455 24.8702C9.13671 24.1988 5.55076 20.5474 4.92853 19.6632C3.07006 17.0024 2.21041 14.4316 2.21041 11.5334C2.21859 8.74972 3.13555 6.35088 4.92035 4.45965C5.41976 3.93567 6.52503 3.01871 6.66421 3.01871C6.77883 3.01871 6.68877 3.55088 6.48409 4.11579C6.37766 4.38597 6.12386 4.77076 5.82093 5.11462C4.78117 6.29357 4.15076 7.38246 3.78234 8.66785C3.52853 9.54388 3.46304 11.4024 3.65953 12.3603C3.92152 13.6784 4.59286 15.0374 5.46889 16.0199L5.85368 16.4538L5.86187 17.1252C5.87006 17.6491 5.91099 17.8784 6.05836 18.1813C6.37766 18.8281 6.91801 19.3521 7.60573 19.6959C8.15427 19.9661 8.29345 19.9988 8.80924 19.9988C9.12852 19.9988 9.47238 19.9497 9.56244 19.9006C9.70162 19.8269 9.79986 19.8597 10.1683 20.1053C10.7905 20.5228 11.6583 20.9076 12.4689 21.1205C13.4268 21.3825 14.9004 21.3825 15.932 21.1287C17.1273 20.8257 18.2654 20.2363 19.256 19.393C19.5016 19.1801 19.8537 18.9591 20.0338 18.9018C20.6233 18.7135 21.8923 18.1895 23.6771 17.4035C24.6431 16.9778 25.7893 16.4948 26.2151 16.3392C27.6888 15.7907 29.3753 15.4386 31.0455 15.3322L31.9542 15.2749L32.7975 16.11C33.5835 16.8795 33.6654 16.9369 33.9683 16.9369C34.3776 16.9369 34.5987 16.7158 34.5987 16.3146C34.5987 16.0445 34.263 15.6924 28.7121 10.1334C25.47 6.89123 22.4899 3.96842 22.0806 3.64094C20.9999 2.75673 20.0911 2.17544 18.8876 1.58597C16.9145 0.619885 15.2361 0.17778 13.2712 0.0959085C12.125 0.0467856 12.0677 0.0549728 11.8958 0.226903ZM9.34957 2.34737V2.91228L8.76011 3.14971C8.43263 3.2807 8.13789 3.39532 8.10514 3.4117C8.06421 3.42807 8.03965 3.17427 8.03965 2.8386V2.24094L8.59637 2.01988C8.8993 1.89708 9.19402 1.79883 9.25133 1.79883C9.31682 1.79064 9.34957 1.95439 9.34957 2.34737ZM13.4759 4.12398C14.5893 4.45146 15.4654 4.97544 16.4478 5.90059C17.07 6.49006 17.332 6.5883 17.6677 6.3345C18.1426 5.97427 19.035 6.45731 19.4771 7.30059C19.6654 7.67719 19.6572 8.10292 19.4361 8.37312C19.1578 8.73335 19.2069 8.98715 19.6735 9.61756C20.1648 10.2889 20.5823 11.1322 20.7788 11.8608C20.9753 12.5813 20.9753 14.0059 20.7788 14.7263C20.2466 16.6994 18.6092 18.607 16.6852 19.4749C14.6221 20.4164 12.4525 20.1462 10.504 18.7053C9.92267 18.2795 9.6525 18.2386 9.30045 18.5088C8.449 19.1801 6.62327 17.5918 7.26187 16.7404C7.51567 16.4047 7.41742 16.1427 6.81158 15.5041C5.4607 14.0795 4.84666 12.6141 4.84666 10.7965C4.84666 8.92984 5.5262 7.32515 6.88526 5.9579C7.40924 5.44211 8.11333 4.90994 8.67824 4.62339C8.89111 4.50877 8.94023 4.50877 8.94023 4.60702C8.94023 4.81988 8.28526 6.02339 7.97415 6.38363C7.54023 6.87485 7.44199 7.07953 7.50748 7.36608C7.57298 7.66082 7.83497 7.84912 8.16245 7.84912C8.46538 7.84094 8.56362 7.76725 9.04666 7.16959C9.52969 6.57193 10.0045 5.64678 10.2911 4.72164C10.504 4.04211 10.5285 4.00117 10.7741 3.96023C11.5192 3.83743 12.7472 3.91111 13.4759 4.12398Z" fill="#151515"/>
<path d="M16.6274 9.23289C15.8905 9.69137 15.3256 10.6001 15.2601 11.4189C15.2274 11.8528 15.2437 11.9428 15.3993 12.0984C15.5876 12.2867 15.9724 12.3276 16.2262 12.1884C16.3244 12.1393 16.4472 11.8855 16.5537 11.5253C16.7256 10.9522 16.873 10.7557 17.6507 10.0844C17.9291 9.84692 17.9373 9.47032 17.6589 9.20014C17.3969 8.92997 17.0858 8.93815 16.6274 9.23289Z" fill="#151515"/>
<path d="M15.1634 13.7357C14.1727 14.3989 14.0172 15.7088 14.9341 15.7088C15.2862 15.7088 15.4418 15.5942 15.6055 15.234C15.7119 14.9966 15.8429 14.8656 16.0803 14.7591C16.4488 14.5954 16.5552 14.4398 16.5552 14.0796C16.5552 13.4819 15.8184 13.2936 15.1634 13.7357Z" fill="#151515"/>
<path d="M11.9366 14.3252C11.1097 14.6118 10.3729 15.2258 10.1109 15.8562C9.9062 16.3475 10.1682 16.7732 10.6758 16.7732C10.9296 16.7732 11.036 16.7241 11.1752 16.5521C11.7483 15.848 12.0021 15.6843 12.9109 15.4059C13.3775 15.2749 13.4758 14.6773 13.0992 14.3171C12.8781 14.1124 12.5588 14.1124 11.9366 14.3252Z" fill="#151515"/>
<path d="M17.6439 14.9884C17.5457 15.0948 17.4474 15.3404 17.4147 15.5451C17.3328 16.0363 16.9644 16.4047 16.4732 16.4866C16.0147 16.5603 15.7363 16.8059 15.7363 17.117C15.7363 17.6737 16.1293 17.9112 16.8007 17.7638C17.9387 17.5182 18.6919 16.6585 18.7164 15.5615C18.7246 15.193 18.6919 15.0948 18.5281 14.9638C18.2662 14.7509 17.8568 14.7591 17.6439 14.9884Z" fill="#151515"/>
</g>
<defs>
<clipPath id="clip0_804_2288">
<rect width="42" height="42" fill="white" transform="translate(0.867188)"/>
</clipPath>
</defs>
</svg>
