<svg width="1039" height="261" fill="none" xmlns="http://www.w3.org/2000/svg"><g clip-path="url(#a)"><path d="M1009.25 41c9.53 0 17.25-7.723 17.25-17.25 0-9.527-7.72-17.25-17.25-17.25-9.527 0-17.25 7.723-17.25 17.25 0 9.527 7.723 17.25 17.25 17.25Z" stroke="#000" stroke-width="3" stroke-miterlimit="10"/><path d="M1001.65 33V12.74h8.34c1.79 0 3.33.29 4.62.87 1.28.58 2.27 1.41 2.97 2.49.69 1.08 1.04 2.36 1.04 3.85 0 1.49-.35 2.77-1.04 3.83-.69 1.07-1.68 1.89-2.97 2.46-1.28.57-2.82.85-4.62.85h-6.25l1.68-1.71v7.61h-3.76l-.01.01Zm3.76-7.21-1.68-1.79h6.08c1.66 0 2.91-.36 3.75-1.07.84-.71 1.26-1.71 1.26-2.98s-.42-2.29-1.26-2.98c-.84-.69-2.09-1.04-3.75-1.04h-6.08l1.68-1.85V25.8v-.01Zm9.49 7.21-5.12-7.35h4.02l5.15 7.35h-4.05Z" fill="#000"/><mask id="b" style="mask-type:luminance" maskUnits="userSpaceOnUse" x="-65" y="-78" width="1110" height="405"><path d="M1044.48-78H-65v404.68h1109.48V-78Z" fill="#fff"/></mask><g mask="url(#b)"><mask id="c" style="mask-type:luminance" maskUnits="userSpaceOnUse" x="-65" y="-78" width="1110" height="405"><path d="M1044.48-78H-65v404.68h1109.48V-78Z" fill="#fff"/></mask><g mask="url(#c)"><path d="m152.99 242.83 7.25-36.53h11.59c11 0 16.59 5.39 16.59 14.14 0 12.79-8.25 22.39-22.26 22.39h-13.17Zm-15.75 11.19h28.51c21.59 0 36.34-13.55 36.34-34.34 0-15.07-10.75-24.58-28.76-24.58h-24.42l-11.67 58.92ZM213.81 254.03h13.58l11.67-58.92h-13.59l-11.66 58.92ZM269.46 231.05l13.75-22.73 4.92 22.73h-18.67Zm23.67 22.98h13.5l-14.34-58.92h-13.34l-37.76 58.92h14.42l7.59-12.63h27.17l2.75 12.63h.01ZM361.7 241.32c-3.08 1.43-6.25 2.1-9.67 2.1-11.09 0-16.92-5.98-16.92-14.81 0-12.96 8.75-22.9 22.42-22.9 6.5 0 11.34 1.85 15.25 6.57l9.67-7.91c-5-6.65-13.17-10.27-24.34-10.27-22.09 0-36.67 15.24-36.67 35.35 0 15.24 11.17 25.59 28.84 25.59 8.42 0 16.42-2.61 22.34-7.16l4.84-24.24h-12.34l-3.42 17.68ZM443.44 195.11l-7.25 36.95-21.76-36.95h-11.17l-11.67 58.92h13.34l7.34-36.87 21.75 36.87h11.09l11.67-58.92h-13.34ZM498.09 243.42c-10.25 0-15.92-5.98-15.92-14.73 0-12.46 8.09-22.98 21.26-22.98 10.25 0 15.92 5.98 15.92 14.73 0 12.46-8.09 22.98-21.25 22.98m-1.17 11.62c21.5 0 36.09-15.24 36.09-35.35 0-15.15-10.67-25.59-28.42-25.59-21.5 0-36.09 15.23-36.09 35.35 0 15.15 10.67 25.59 28.42 25.59ZM565.08 255.04c16.25 0 26.92-7.83 26.92-20.03 0-18.1-29.01-13.05-28.92-22.73 0-4.21 4.58-7.24 12.42-7.24 5.75 0 11.42 1.52 15.84 4.55l5.08-10.44c-5.08-3.28-12.34-5.05-20.17-5.05-16.17 0-26.67 7.83-26.67 19.95 0 18.77 28.92 13.72 28.92 23.15 0 4.29-4.67 6.9-12.09 6.9-6.92 0-13.92-2.19-19.25-6.14l-5.5 10.52c4.92 3.7 13.92 6.57 23.42 6.57M616.9 254.03h13.5l9.5-47.81h18.59l2.25-11.11h-50.85l-2.25 11.11h18.68l-9.42 47.81ZM664.05 254.03h13.58l11.67-58.92h-13.58l-11.67 58.92ZM729.78 255.04c10 0 18.5-2.95 24.67-10.19l-8-8.25c-4.33 4.71-9.59 6.82-15.5 6.82-10.5 0-16.34-5.89-16.34-14.81 0-12.71 8.5-22.89 21.67-22.89 6.42 0 11.09 2.44 14.09 6.9l9.75-8.08c-4.17-6.73-12.59-10.44-22.92-10.44-21.67 0-36.26 15.23-36.26 35.35 0 15.15 11 25.59 28.84 25.59ZM788.27 255.04c16.25 0 26.92-7.83 26.92-20.03 0-18.1-29.01-13.05-28.92-22.73 0-4.21 4.59-7.24 12.42-7.24 5.75 0 11.42 1.52 15.84 4.55l5.08-10.44c-5.08-3.28-12.34-5.05-20.17-5.05-16.17 0-26.67 7.83-26.67 19.95 0 18.77 28.92 13.72 28.92 23.15 0 4.29-4.67 6.9-12.09 6.9-6.92 0-13.92-2.19-19.25-6.14l-5.5 10.52c4.92 3.7 13.92 6.57 23.42 6.57" fill="#219CD8"/><path fill-rule="evenodd" clip-rule="evenodd" d="m878.17 236.66 48.42 11.65.33-1.61-48.42-11.64-.33 1.6Z" fill="#86D2DA"/><path fill-rule="evenodd" clip-rule="evenodd" d="m903 242.63 23.59 5.68.33-1.61-23.59-5.67-.33 1.6Z" fill="#45739B"/><path fill-rule="evenodd" clip-rule="evenodd" d="m887.28 226.29 35.09 8.44.33-1.61-35.09-8.44-.33 1.61Z" fill="#86D2DA"/><path fill-rule="evenodd" clip-rule="evenodd" d="m905.45 230.66 16.92 4.07.33-1.61-16.92-4.07-.33 1.61Z" fill="#45739B"/><path fill-rule="evenodd" clip-rule="evenodd" d="m896.56 217.98 25.43 6.11.33-1.6-25.43-6.12-.33 1.61Z" fill="#86D2DA"/><path fill-rule="evenodd" clip-rule="evenodd" d="m907.51 220.61 14.48 3.48.33-1.6-14.49-3.49-.32 1.61Z" fill="#45739B"/><path fill-rule="evenodd" clip-rule="evenodd" d="m892.78 165.17 48.41 11.64.33-1.6-48.41-11.65-.33 1.61Z" fill="#86D2DA"/><path fill-rule="evenodd" clip-rule="evenodd" d="m892.78 165.17 25.23 6.07.33-1.61-25.23-6.07-.33 1.61Z" fill="#45739B"/><path fill-rule="evenodd" clip-rule="evenodd" d="m901.89 154.8 35.09 8.44.33-1.61-35.1-8.44-.32 1.61Z" fill="#86D2DA"/><path fill-rule="evenodd" clip-rule="evenodd" d="m901.89 154.8 18.57 4.46.32-1.6-18.57-4.47-.32 1.61Z" fill="#45739B"/><path fill-rule="evenodd" clip-rule="evenodd" d="m911.17 146.48 20.63 4.97.33-1.61-20.64-4.96-.32 1.6Z" fill="#86D2DA"/><path fill-rule="evenodd" clip-rule="evenodd" d="m910.26 146.27 12.25 2.94.33-1.6-12.25-2.95-.33 1.61Z" fill="#45739B"/><path fill-rule="evenodd" clip-rule="evenodd" d="m890.47 176.45 48.42 11.65.33-1.6-48.42-11.65-.33 1.6Z" fill="#86D2DA"/><path fill-rule="evenodd" clip-rule="evenodd" d="m890.47 176.45 25.23 6.07.33-1.6-25.23-6.07-.33 1.6Z" fill="#45739B"/><path fill-rule="evenodd" clip-rule="evenodd" d="m894.69 190.03 35.09 8.44.33-1.6-35.09-8.44-.33 1.6Z" fill="#86D2DA"/><path fill-rule="evenodd" clip-rule="evenodd" d="m894.69 190.03 18.17 4.37.33-1.6-18.17-4.37-.33 1.6Z" fill="#45739B"/><path fill-rule="evenodd" clip-rule="evenodd" d="m903.69 202.74 16.81 4.04.33-1.6-16.81-4.04-.33 1.6Z" fill="#86D2DA"/><path fill-rule="evenodd" clip-rule="evenodd" d="m904.37 202.9 6.83 1.65.33-1.61-6.84-1.64-.32 1.6Z" fill="#45739B"/><path fill-rule="evenodd" clip-rule="evenodd" d="m922.37 20.31 48.42 11.64.32-1.6L922.7 18.7l-.33 1.61Z" fill="#86D2DA"/><path fill-rule="evenodd" clip-rule="evenodd" d="m922.37 20.31 25.23 6.06.33-1.6-25.23-6.07-.33 1.61Z" fill="#45739B"/><path fill-rule="evenodd" clip-rule="evenodd" d="m920.06 31.59 48.42 11.65.33-1.6-48.42-11.65-.33 1.6Z" fill="#86D2DA"/><path fill-rule="evenodd" clip-rule="evenodd" d="m920.06 31.59 25.23 6.07.33-1.6-25.23-6.07-.33 1.6Z" fill="#45739B"/><path fill-rule="evenodd" clip-rule="evenodd" d="m924.28 45.17 35.09 8.44.33-1.6-35.09-8.44-.33 1.6Z" fill="#86D2DA"/><path fill-rule="evenodd" clip-rule="evenodd" d="m924.28 45.17 18.17 4.37.33-1.6-18.17-4.37-.33 1.6Z" fill="#45739B"/><path fill-rule="evenodd" clip-rule="evenodd" d="m933.28 57.88 16.81 4.04.33-1.6-16.81-4.05-.33 1.61Z" fill="#86D2DA"/><path fill-rule="evenodd" clip-rule="evenodd" d="m933.96 58.04 6.84 1.65.32-1.61-6.84-1.64-.32 1.6Z" fill="#45739B"/><path fill-rule="evenodd" clip-rule="evenodd" d="m907.27 94.25 48.41 11.64.33-1.6-48.42-11.65-.32 1.61Z" fill="#86D2DA"/><path fill-rule="evenodd" clip-rule="evenodd" d="m932.5 100.32 23.18 5.57.33-1.6-23.19-5.58-.32 1.61Z" fill="#45739B"/><path fill-rule="evenodd" clip-rule="evenodd" d="m916.37 83.87 35.09 8.45.33-1.61-35.09-8.44-.33 1.6Z" fill="#86D2DA"/><path fill-rule="evenodd" clip-rule="evenodd" d="m934.94 88.34 17.07 4.11.32-1.61-17.06-4.1-.33 1.6Z" fill="#45739B"/><path fill-rule="evenodd" clip-rule="evenodd" d="m925.65 75.56 20.64 4.97.33-1.61-20.64-4.96-.33 1.6Z" fill="#86D2DA"/><path fill-rule="evenodd" clip-rule="evenodd" d="M937 78.29 948.25 81l.33-1.61-11.26-2.7-.32 1.6Z" fill="#45739B"/><path fill-rule="evenodd" clip-rule="evenodd" d="m904.96 105.53 48.42 11.65.32-1.6-48.41-11.65-.33 1.6Z" fill="#86D2DA"/><path fill-rule="evenodd" clip-rule="evenodd" d="m930.19 111.6 23.19 5.58.32-1.6-23.18-5.58-.33 1.6Z" fill="#45739B"/><path fill-rule="evenodd" clip-rule="evenodd" d="m909.18 119.11 35.09 8.44.32-1.6-35.09-8.44-.32 1.6Z" fill="#86D2DA"/><path fill-rule="evenodd" clip-rule="evenodd" d="m928.11 123.67 16.7 4.01.33-1.6-16.7-4.02-.33 1.61Z" fill="#45739B"/><path fill-rule="evenodd" clip-rule="evenodd" d="m914.35 130.9 16.81 4.04.33-1.6-16.81-4.05-.33 1.61Z" fill="#86D2DA"/><path fill-rule="evenodd" clip-rule="evenodd" d="m926.06 133.72 8.04 1.93.33-1.6-8.04-1.94-.33 1.61Z" fill="#45739B"/><path fill-rule="evenodd" clip-rule="evenodd" d="M969.32 36.26c2.53.61 5.07-1.27 5.67-4.19.6-2.92-.97-5.79-3.51-6.4-2.53-.61-5.07 1.26-5.67 4.19-.6 2.92.97 5.79 3.51 6.4ZM966.16 49.46c2.53.61 5.07-1.26 5.67-4.19.6-2.92-.98-5.79-3.51-6.4-2.53-.61-5.07 1.27-5.67 4.19-.6 2.92.97 5.79 3.51 6.4ZM957.77 59.5c2.54.61 5.08-1.27 5.68-4.2.6-2.93-.97-5.79-3.51-6.4-2.54-.61-5.08 1.27-5.68 4.2-.6 2.93.98 5.79 3.51 6.4ZM947.76 64.59c1.54.37 3.09-.77 3.45-2.55.36-1.78-.59-3.52-2.14-3.89-1.55-.37-3.09.77-3.45 2.55-.36 1.78.59 3.52 2.14 3.89ZM925.14 77.32c1.58.38 3.16-.79 3.53-2.61.37-1.82-.61-3.6-2.18-3.98-1.58-.38-3.16.79-3.53 2.61-.37 1.82.61 3.6 2.18 3.98ZM913.93 87.54c2.54.61 5.09-1.27 5.69-4.2.6-2.93-.98-5.8-3.52-6.42-2.54-.61-5.09 1.27-5.69 4.2-.6 2.93.98 5.8 3.52 6.42ZM906.3 98.21c2.54.61 5.07-1.26 5.67-4.19.6-2.92-.97-5.79-3.51-6.4-2.53-.61-5.07 1.26-5.67 4.19-.6 2.92.97 5.79 3.51 6.4ZM906.19 110.17c2.54.61 5.07-1.26 5.67-4.19.6-2.93-.97-5.79-3.51-6.4-2.54-.61-5.08 1.26-5.67 4.19-.6 2.92.97 5.79 3.51 6.4ZM910.72 123.93c2.54.61 5.07-1.26 5.67-4.19.6-2.93-.97-5.79-3.51-6.4-2.54-.61-5.07 1.26-5.67 4.19-.6 2.92.97 5.79 3.51 6.4ZM917.12 136.24c2.53.61 5.07-1.27 5.67-4.19.6-2.92-.98-5.79-3.51-6.4-2.54-.61-5.08 1.27-5.67 4.19-.6 2.92.97 5.79 3.51 6.4ZM924.67 144.95c2.54.61 5.07-1.26 5.67-4.19.6-2.93-.97-5.79-3.51-6.4-2.54-.61-5.08 1.26-5.67 4.19-.6 2.92.97 5.79 3.51 6.4ZM931.52 156.09c2.53.61 5.07-1.26 5.67-4.19.6-2.93-.97-5.79-3.51-6.4-2.53-.61-5.07 1.26-5.67 4.19-.6 2.92.97 5.79 3.51 6.4ZM937.29 168.02c2.53.61 5.07-1.27 5.67-4.19.6-2.92-.97-5.79-3.51-6.4-2.53-.61-5.07 1.27-5.67 4.19-.6 2.92.97 5.79 3.51 6.4ZM940.13 181.27c2.53.61 5.07-1.26 5.67-4.19.6-2.92-.97-5.79-3.51-6.4-2.53-.61-5.07 1.26-5.67 4.19-.6 2.92.97 5.79 3.51 6.4ZM937.36 192.55c2.53.61 5.07-1.27 5.67-4.19.6-2.92-.97-5.79-3.51-6.4-2.53-.61-5.07 1.27-5.67 4.19-.6 2.92.97 5.79 3.51 6.4ZM928.84 203.23c2.54.61 5.08-1.27 5.68-4.2.6-2.93-.98-5.79-3.52-6.4-2.54-.61-5.08 1.27-5.68 4.19-.6 2.93.98 5.8 3.51 6.41M918.57 209.6c1.54.37 3.09-.77 3.45-2.55.36-1.78-.59-3.52-2.14-3.89-1.54-.37-3.09.77-3.45 2.55-.36 1.78.59 3.52 2.14 3.89Z" fill="#86D2DA"/><path fill-rule="evenodd" clip-rule="evenodd" d="M921.24 25.11c2.53.61 5.07-1.26 5.67-4.19.6-2.92-.97-5.79-3.51-6.4-2.53-.61-5.07 1.26-5.67 4.19-.6 2.92.97 5.79 3.51 6.4ZM920.79 38.68c2.53.61 5.07-1.26 5.67-4.19.6-2.92-.97-5.79-3.51-6.4-2.53-.61-5.07 1.26-5.67 4.19-.6 2.92.98 5.79 3.51 6.4ZM925.59 51.16c2.53.61 5.07-1.27 5.67-4.19.6-2.92-.97-5.79-3.51-6.4-2.53-.61-5.07 1.27-5.67 4.19-.6 2.92.97 5.79 3.51 6.4ZM932.19 62.5c2.53.61 5.07-1.26 5.67-4.19.6-2.92-.97-5.79-3.51-6.4-2.53-.61-5.07 1.26-5.67 4.19-.6 2.92.98 5.79 3.51 6.4ZM939.27 73.46c2.53.61 5.07-1.26 5.67-4.19.6-2.93-.97-5.79-3.51-6.4-2.53-.61-5.07 1.26-5.67 4.19-.6 2.92.98 5.79 3.51 6.4ZM946.13 84.6c2.53.61 5.07-1.27 5.67-4.19.6-2.92-.97-5.79-3.51-6.4-2.53-.61-5.07 1.27-5.67 4.19-.6 2.92.97 5.79 3.51 6.4ZM951.83 96.85c2.53.61 5.07-1.26 5.67-4.19.6-2.92-.98-5.79-3.51-6.4-2.54-.61-5.08 1.27-5.67 4.19-.6 2.92.97 5.79 3.51 6.4ZM954.67 110.1c2.53.61 5.07-1.27 5.67-4.19.6-2.92-.97-5.79-3.51-6.4-2.54-.61-5.07 1.27-5.67 4.19-.6 2.92.97 5.79 3.51 6.4ZM951.83 121.7c2.54.61 5.07-1.27 5.67-4.19.6-2.92-.97-5.79-3.51-6.4-2.54-.61-5.08 1.27-5.67 4.19-.6 2.92.97 5.79 3.51 6.4ZM943.31 132.38c2.54.61 5.08-1.27 5.68-4.2.6-2.93-.98-5.79-3.51-6.4-2.54-.61-5.08 1.27-5.68 4.19-.6 2.93.97 5.8 3.51 6.41ZM933.17 138.11c1.54.37 3.09-.77 3.45-2.55.36-1.78-.59-3.52-2.14-3.89-1.54-.37-3.09.77-3.45 2.55-.36 1.78.59 3.53 2.14 3.9M910.68 148.84c1.58.38 3.16-.79 3.53-2.61.37-1.82-.61-3.6-2.18-3.98-1.58-.38-3.16.79-3.53 2.61-.37 1.82.6 3.6 2.18 3.98ZM899.53 158.75c2.54.61 5.09-1.27 5.69-4.2.6-2.93-.98-5.8-3.52-6.42-2.54-.61-5.09 1.27-5.69 4.2-.6 2.93.98 5.8 3.52 6.42ZM891.91 169.41c2.53.61 5.07-1.26 5.67-4.19.6-2.92-.97-5.79-3.51-6.4-2.54-.61-5.07 1.26-5.67 4.19-.6 2.92.97 5.79 3.51 6.4ZM891.79 181.38c2.54.61 5.07-1.27 5.67-4.19.6-2.92-.97-5.79-3.51-6.4-2.53-.61-5.07 1.26-5.67 4.19-.6 2.93.97 5.79 3.51 6.4ZM896.4 194.82c2.53.61 5.07-1.26 5.67-4.19.6-2.93-.97-5.79-3.51-6.4-2.53-.61-5.07 1.26-5.67 4.19-.6 2.93.97 5.79 3.51 6.4ZM903.12 205.52c2.53.61 5.07-1.27 5.67-4.19.6-2.92-.97-5.79-3.51-6.4-2.53-.61-5.07 1.27-5.67 4.19-.6 2.92.97 5.79 3.51 6.4ZM910.14 216.8c2.53.61 5.07-1.26 5.67-4.19.6-2.93-.97-5.79-3.51-6.4-2.53-.61-5.07 1.27-5.67 4.19-.6 2.92.97 5.79 3.51 6.4ZM917.07 227.62c2.53.61 5.07-1.26 5.67-4.19.6-2.93-.98-5.79-3.51-6.4-2.53-.61-5.07 1.26-5.67 4.19-.6 2.92.98 5.79 3.51 6.4ZM922.83 239.55c2.53.61 5.07-1.27 5.67-4.19.6-2.92-.98-5.79-3.51-6.4-2.53-.61-5.07 1.27-5.67 4.19-.6 2.92.98 5.79 3.51 6.4ZM925.67 252.8c2.53.61 5.07-1.26 5.67-4.19.6-2.93-.97-5.79-3.51-6.4-2.54-.61-5.08 1.26-5.67 4.19-.59 2.93.97 5.79 3.51 6.4Z" fill="#45739B"/><path fill-rule="evenodd" clip-rule="evenodd" d="M896.08 220.34c1.58.38 3.16-.79 3.53-2.61.37-1.82-.6-3.6-2.18-3.98-1.58-.38-3.16.79-3.53 2.61-.37 1.82.6 3.6 2.18 3.98ZM885 229.92c2.54.61 5.09-1.27 5.69-4.2.6-2.93-.98-5.8-3.52-6.42-2.54-.61-5.09 1.27-5.69 4.2-.6 2.93.98 5.8 3.52 6.42ZM877.31 240.91c2.53.61 5.07-1.27 5.67-4.19.6-2.92-.97-5.79-3.51-6.4-2.53-.61-5.07 1.26-5.67 4.19-.6 2.92.97 5.79 3.51 6.4Z" fill="#86D2DA"/><path fill-rule="evenodd" clip-rule="evenodd" d="M67.77 129.9h115.75l.9 14.54H76.24l-8.47-14.54ZM8.85 16.47h139.2c-4.73 4.29-8.81 9.18-12.09 14.53H16.4L8.85 16.47ZM20.74 39.15h110.93a60.404 60.404 0 0 0-4.11 14.54H28.29l-7.55-14.54ZM32.62 61.84h94.26c0 .23-.01.45-.01.68 0 4.75.56 9.39 1.61 13.85H40.17l-7.55-14.53ZM44.51 84.53h86.59a63.645 63.645 0 0 0 8.12 14.54H52.06l-7.55-14.54ZM56.38 107.22h90.17c6.29 6.06 13.84 11.02 22.26 14.54H64.33l-1.65-2.41-6.3-12.13Z" fill="#BBE2F8"/><path d="M189.99 148.78c37.69 0 62.43-18.15 62.43-46.45 0-41.96-67.26-30.25-67.07-52.7 0-9.76 10.63-16.79 28.8-16.79 13.34 0 26.48 3.51 36.72 10.54l11.79-24.2c-11.79-7.61-28.61-11.71-46.77-11.71-37.5 0-61.85 18.15-61.85 46.26 0 43.53 67.07 31.81 67.07 53.68 0 9.95-10.82 16-28.03 16-16.04 0-32.28-5.07-44.65-14.25l-12.76 24.4c11.4 8.59 32.28 15.22 54.31 15.22M332.47 83h-26.48l9.47-47.43h24.55c15.85 0 25.13 6.25 25.13 19.52 0 18.15-11.98 27.91-32.66 27.91m11.4-73.19h-54.7l-27.06 136.63h31.51l7.34-37.67h30.15c40.4 0 65.72-21.66 65.72-56.41 0-26.74-19.13-42.55-52.96-42.55ZM535.65 146.44h31.51L594.22 9.81h-31.51l-27.06 136.63ZM715.24 9.81l-16.82 85.68-50.45-85.68h-25.9l-27.06 136.63h30.93l17.01-85.49 50.44 85.49h25.71L746.16 9.81h-30.92ZM775.18 146.44h31.31l22.03-110.87h43.1l5.22-25.76h-117.9l-5.22 25.76h43.3l-21.84 110.87ZM468.35 83.77h-26.89l9.55-47.81h24.94c16.17 0 25.52 6.3 25.52 19.67 0 18.3-12.27 28.13-33.12 28.13m65.07-31.09c0-26.95-19.48-42.7-53.39-42.7H424.5L397.22 147.7h31.76l7.6-38.56h26.89l21.43 38.56h33.32l-23.77-42.5c24.35-7.67 38.97-26.56 38.97-52.53Z" fill="#12559F"/></g></g></g><defs><clipPath id="a"><path fill="#fff" d="M0 0h1039v261H0z"/></clipPath></defs></svg>